<svg width="257" height="922" viewBox="0 0 257 922" fill="none" xmlns="http://www.w3.org/2000/svg">
<path d="M84.8463 576.288L107.921 598.751" stroke="#52338C" stroke-linecap="round" stroke-dasharray="2 2"/>
<path d="M84.8463 420.288L107.921 442.751" stroke="#52338C" stroke-linecap="round" stroke-dasharray="2 2"/>
<path d="M84.8443 187.788L107.919 210.251" stroke="#52338C" stroke-linecap="round" stroke-dasharray="2 2"/>
<path d="M84.8463 498.288L107.921 520.751" stroke="#52338C" stroke-linecap="round" stroke-dasharray="2 2"/>
<path d="M84.8443 265.788L107.919 288.251" stroke="#52338C" stroke-linecap="round" stroke-dasharray="2 2"/>
<path d="M84.8463 654.288L107.921 676.751" stroke="#52338C" stroke-linecap="round" stroke-dasharray="2 2"/>
<path d="M84.8463 810.288L107.921 832.751" stroke="#52338C" stroke-linecap="round" stroke-dasharray="2 2"/>
<path d="M84.8463 342.288L107.921 364.751" stroke="#9A7BC6" stroke-linecap="round" stroke-dasharray="2 2"/>
<path d="M84.8463 732.288L107.921 754.751" stroke="#52338C" stroke-linecap="round" stroke-dasharray="2 2"/>
<path d="M84.8443 109.788L107.919 132.251" stroke="#52338C" stroke-linecap="round" stroke-dasharray="2 2"/>
<path d="M118.932 150.747C118.366 150.181 117.944 149.555 117.664 148.869C117.393 148.175 117.261 147.462 117.268 146.73C117.284 146.006 117.438 145.301 117.732 144.615C118.026 143.928 118.453 143.306 119.011 142.748C119.576 142.182 120.202 141.752 120.889 141.458C121.575 141.164 122.277 141.013 122.993 141.006C123.725 140.998 124.43 141.13 125.109 141.402C125.803 141.673 126.433 142.092 126.998 142.658C127.617 143.276 128.054 143.925 128.311 144.603C128.567 145.282 128.695 145.984 128.695 146.708L127.225 146.708C127.255 146.18 127.168 145.656 126.964 145.135C126.768 144.622 126.44 144.136 125.98 143.676C125.565 143.261 125.109 142.955 124.611 142.759C124.121 142.556 123.612 142.461 123.084 142.476C122.556 142.492 122.035 142.612 121.522 142.839C121.017 143.072 120.546 143.408 120.108 143.845C119.671 144.283 119.335 144.754 119.101 145.26C118.875 145.773 118.754 146.293 118.739 146.821C118.724 147.349 118.815 147.862 119.011 148.36C119.214 148.85 119.524 149.302 119.939 149.717C120.429 150.208 120.934 150.554 121.455 150.758C121.983 150.954 122.51 151.037 123.038 151.007L123.05 152.466C122.311 152.482 121.59 152.35 120.889 152.071C120.195 151.799 119.543 151.358 118.932 150.747ZM125.243 157.058C124.715 156.53 124.365 155.931 124.191 155.26C124.018 154.588 124.018 153.917 124.191 153.246C124.372 152.567 124.727 151.964 125.255 151.436C125.775 150.915 126.367 150.572 127.031 150.406C127.702 150.233 128.373 150.233 129.045 150.406C129.716 150.579 130.316 150.93 130.844 151.458C131.364 151.979 131.711 152.574 131.884 153.246C132.073 153.917 132.08 154.588 131.907 155.26C131.734 155.931 131.387 156.527 130.866 157.047C130.338 157.575 129.735 157.93 129.056 158.111C128.385 158.284 127.71 158.28 127.031 158.099C126.36 157.926 125.764 157.579 125.243 157.058ZM126.228 156.074C126.567 156.414 126.948 156.636 127.37 156.742C127.793 156.847 128.215 156.84 128.637 156.719C129.067 156.591 129.459 156.349 129.814 155.995C130.161 155.648 130.391 155.26 130.504 154.83C130.625 154.407 130.629 153.989 130.515 153.574C130.417 153.159 130.199 152.782 129.859 152.442C129.52 152.103 129.139 151.881 128.717 151.775C128.302 151.662 127.883 151.666 127.461 151.786C127.038 151.907 126.654 152.141 126.307 152.488C125.952 152.842 125.711 153.234 125.583 153.664C125.462 154.087 125.454 154.509 125.56 154.931C125.666 155.354 125.888 155.735 126.228 156.074ZM129.309 160.898L134.683 155.524L135.702 156.543L130.328 161.917L129.309 160.898ZM132.941 164.53L136.188 161.283C136.588 160.883 136.776 160.446 136.754 159.971C136.746 159.495 136.558 159.073 136.188 158.704C135.939 158.455 135.664 158.285 135.362 158.194C135.061 158.104 134.755 158.093 134.446 158.16C134.137 158.228 133.85 158.394 133.586 158.658L133.371 158.036C133.778 157.629 134.22 157.361 134.695 157.233C135.177 157.112 135.656 157.123 136.132 157.267C136.614 157.402 137.048 157.663 137.433 158.047C137.81 158.424 138.066 158.847 138.202 159.314C138.345 159.79 138.353 160.265 138.225 160.74C138.104 161.223 137.836 161.671 137.421 162.086L133.959 165.548L132.941 164.53ZM136.573 168.162L139.82 164.915C140.22 164.515 140.408 164.078 140.386 163.602C140.378 163.127 140.193 162.709 139.831 162.347C139.582 162.098 139.303 161.924 138.994 161.826C138.692 161.736 138.387 161.724 138.078 161.792C137.768 161.86 137.482 162.026 137.218 162.29L136.844 161.509C137.282 161.117 137.746 160.872 138.236 160.774C138.741 160.676 139.235 160.702 139.718 160.853C140.208 160.996 140.642 161.257 141.019 161.634C141.411 162.026 141.679 162.46 141.822 162.935C141.966 163.41 141.977 163.889 141.856 164.372C141.743 164.862 141.475 165.318 141.053 165.741L137.602 169.191L136.573 168.162ZM138.988 170.577L144.362 165.203L145.38 166.221L140.006 171.595L138.988 170.577ZM142.62 174.209L145.867 170.962C146.266 170.562 146.455 170.124 146.432 169.649C146.425 169.174 146.236 168.752 145.867 168.382C145.618 168.133 145.342 167.963 145.041 167.873C144.739 167.782 144.434 167.771 144.124 167.839C143.815 167.907 143.529 168.073 143.265 168.337L143.05 167.715C143.457 167.307 143.898 167.039 144.373 166.911C144.856 166.791 145.335 166.802 145.81 166.945C146.293 167.081 146.727 167.341 147.111 167.726C147.488 168.103 147.745 168.525 147.881 168.993C148.024 169.468 148.031 169.943 147.903 170.419C147.782 170.901 147.515 171.35 147.1 171.765L143.638 175.227L142.62 174.209ZM146.251 177.84L149.498 174.593C149.898 174.194 150.087 173.756 150.064 173.281C150.057 172.806 149.872 172.387 149.51 172.025C149.261 171.776 148.982 171.603 148.672 171.505C148.371 171.414 148.065 171.403 147.756 171.471C147.447 171.539 147.16 171.705 146.896 171.969L146.523 171.188C146.96 170.796 147.424 170.551 147.914 170.452C148.42 170.354 148.914 170.381 149.397 170.532C149.887 170.675 150.321 170.935 150.698 171.312C151.09 171.705 151.358 172.138 151.501 172.613C151.644 173.089 151.656 173.568 151.535 174.05C151.422 174.54 151.154 174.997 150.732 175.419L147.281 178.87L146.251 177.84ZM148.678 180.267L154.052 174.893L155.07 175.911L149.696 181.285L148.678 180.267ZM155.636 174.327C155.447 174.138 155.353 173.924 155.353 173.682C155.36 173.433 155.458 173.215 155.647 173.026C155.828 172.845 156.039 172.754 156.281 172.754C156.53 172.747 156.748 172.837 156.937 173.026C157.125 173.215 157.216 173.433 157.208 173.682C157.208 173.924 157.118 174.135 156.937 174.316C156.748 174.504 156.53 174.602 156.281 174.61C156.039 174.61 155.824 174.516 155.636 174.327ZM152.022 183.611L159.648 175.986L160.666 177.004L153.041 184.63L152.022 183.611ZM155.145 177.841L156.073 176.914L159.738 180.579L158.811 181.507L155.145 177.841Z" fill="#8A66BD"/>
<path d="M118.932 227.747C118.366 227.181 117.944 226.555 117.664 225.869C117.393 225.175 117.261 224.462 117.268 223.73C117.284 223.006 117.438 222.301 117.732 221.615C118.026 220.928 118.453 220.306 119.011 219.748C119.576 219.182 120.202 218.752 120.889 218.458C121.575 218.164 122.277 218.013 122.993 218.006C123.725 217.998 124.43 218.13 125.109 218.402C125.803 218.673 126.433 219.092 126.998 219.658C127.617 220.276 128.054 220.925 128.311 221.603C128.567 222.282 128.695 222.984 128.695 223.708L127.225 223.708C127.255 223.18 127.168 222.656 126.964 222.135C126.768 221.622 126.44 221.136 125.98 220.676C125.565 220.261 125.109 219.955 124.611 219.759C124.121 219.556 123.612 219.461 123.084 219.476C122.556 219.492 122.035 219.612 121.522 219.839C121.017 220.072 120.546 220.408 120.108 220.845C119.671 221.283 119.335 221.754 119.101 222.26C118.875 222.773 118.754 223.293 118.739 223.821C118.724 224.349 118.815 224.862 119.011 225.36C119.214 225.85 119.524 226.302 119.939 226.717C120.429 227.208 120.934 227.554 121.455 227.758C121.983 227.954 122.51 228.037 123.038 228.007L123.05 229.466C122.311 229.482 121.59 229.35 120.889 229.071C120.195 228.799 119.543 228.358 118.932 227.747ZM125.243 234.058C124.715 233.53 124.365 232.931 124.191 232.26C124.018 231.588 124.018 230.917 124.191 230.246C124.372 229.567 124.727 228.964 125.255 228.436C125.775 227.915 126.367 227.572 127.031 227.406C127.702 227.233 128.373 227.233 129.045 227.406C129.716 227.579 130.316 227.93 130.844 228.458C131.364 228.979 131.711 229.574 131.884 230.246C132.073 230.917 132.08 231.588 131.907 232.26C131.734 232.931 131.387 233.527 130.866 234.047C130.338 234.575 129.735 234.93 129.056 235.111C128.385 235.284 127.71 235.28 127.031 235.099C126.36 234.926 125.764 234.579 125.243 234.058ZM126.228 233.074C126.567 233.414 126.948 233.636 127.37 233.742C127.793 233.847 128.215 233.84 128.637 233.719C129.067 233.591 129.459 233.349 129.814 232.995C130.161 232.648 130.391 232.26 130.504 231.83C130.625 231.407 130.629 230.989 130.515 230.574C130.417 230.159 130.199 229.782 129.859 229.442C129.52 229.103 129.139 228.881 128.717 228.775C128.302 228.662 127.883 228.666 127.461 228.786C127.038 228.907 126.654 229.141 126.307 229.488C125.952 229.842 125.711 230.234 125.583 230.664C125.462 231.087 125.454 231.509 125.56 231.931C125.666 232.354 125.888 232.735 126.228 233.074ZM129.309 237.898L134.683 232.524L135.702 233.543L130.328 238.917L129.309 237.898ZM132.941 241.53L136.188 238.283C136.588 237.883 136.776 237.446 136.754 236.971C136.746 236.495 136.558 236.073 136.188 235.704C135.939 235.455 135.664 235.285 135.362 235.194C135.061 235.104 134.755 235.093 134.446 235.16C134.137 235.228 133.85 235.394 133.586 235.658L133.371 235.036C133.778 234.629 134.22 234.361 134.695 234.233C135.177 234.112 135.656 234.123 136.132 234.267C136.614 234.402 137.048 234.663 137.433 235.047C137.81 235.424 138.066 235.847 138.202 236.314C138.345 236.79 138.353 237.265 138.225 237.74C138.104 238.223 137.836 238.671 137.421 239.086L133.959 242.548L132.941 241.53ZM136.573 245.162L139.82 241.915C140.22 241.515 140.408 241.078 140.386 240.602C140.378 240.127 140.193 239.709 139.831 239.347C139.582 239.098 139.303 238.924 138.994 238.826C138.692 238.736 138.387 238.724 138.078 238.792C137.768 238.86 137.482 239.026 137.218 239.29L136.844 238.509C137.282 238.117 137.746 237.872 138.236 237.774C138.741 237.676 139.235 237.702 139.718 237.853C140.208 237.996 140.642 238.257 141.019 238.634C141.411 239.026 141.679 239.46 141.822 239.935C141.966 240.41 141.977 240.889 141.856 241.372C141.743 241.862 141.475 242.318 141.053 242.741L137.602 246.191L136.573 245.162ZM138.988 247.577L144.362 242.203L145.38 243.221L140.006 248.595L138.988 247.577ZM142.62 251.209L145.867 247.962C146.266 247.562 146.455 247.124 146.432 246.649C146.425 246.174 146.236 245.752 145.867 245.382C145.618 245.133 145.342 244.963 145.041 244.873C144.739 244.782 144.434 244.771 144.124 244.839C143.815 244.907 143.529 245.073 143.265 245.337L143.05 244.715C143.457 244.307 143.898 244.039 144.373 243.911C144.856 243.791 145.335 243.802 145.81 243.945C146.293 244.081 146.727 244.341 147.111 244.726C147.488 245.103 147.745 245.525 147.881 245.993C148.024 246.468 148.031 246.943 147.903 247.419C147.782 247.901 147.515 248.35 147.1 248.765L143.638 252.227L142.62 251.209ZM146.251 254.84L149.498 251.593C149.898 251.194 150.087 250.756 150.064 250.281C150.057 249.806 149.872 249.387 149.51 249.025C149.261 248.776 148.982 248.603 148.672 248.505C148.371 248.414 148.065 248.403 147.756 248.471C147.447 248.539 147.16 248.705 146.896 248.969L146.523 248.188C146.96 247.796 147.424 247.551 147.914 247.452C148.42 247.354 148.914 247.381 149.397 247.532C149.887 247.675 150.321 247.935 150.698 248.312C151.09 248.705 151.358 249.138 151.501 249.613C151.644 250.089 151.656 250.568 151.535 251.05C151.422 251.54 151.154 251.997 150.732 252.419L147.281 255.87L146.251 254.84ZM148.678 257.267L154.052 251.893L155.07 252.911L149.696 258.285L148.678 257.267ZM155.636 251.327C155.447 251.138 155.353 250.924 155.353 250.682C155.36 250.433 155.458 250.215 155.647 250.026C155.828 249.845 156.039 249.754 156.281 249.754C156.53 249.747 156.748 249.837 156.937 250.026C157.125 250.215 157.216 250.433 157.208 250.682C157.208 250.924 157.118 251.135 156.937 251.316C156.748 251.504 156.53 251.602 156.281 251.61C156.039 251.61 155.824 251.516 155.636 251.327ZM152.022 260.611L159.648 252.986L160.666 254.004L153.041 261.63L152.022 260.611ZM155.145 254.841L156.073 253.914L159.738 257.579L158.811 258.507L155.145 254.841Z" fill="#8A66BD"/>
<path d="M118.932 304.747C118.366 304.181 117.944 303.555 117.664 302.869C117.393 302.175 117.261 301.462 117.268 300.73C117.284 300.006 117.438 299.301 117.732 298.615C118.026 297.928 118.453 297.306 119.011 296.748C119.576 296.182 120.202 295.752 120.889 295.458C121.575 295.164 122.277 295.013 122.993 295.006C123.725 294.998 124.43 295.13 125.109 295.402C125.803 295.673 126.433 296.092 126.998 296.658C127.617 297.276 128.054 297.925 128.311 298.603C128.567 299.282 128.695 299.984 128.695 300.708L127.225 300.708C127.255 300.18 127.168 299.656 126.964 299.135C126.768 298.622 126.44 298.136 125.98 297.676C125.565 297.261 125.109 296.955 124.611 296.759C124.121 296.556 123.612 296.461 123.084 296.476C122.556 296.492 122.035 296.612 121.522 296.839C121.017 297.072 120.546 297.408 120.108 297.845C119.671 298.283 119.335 298.754 119.101 299.26C118.875 299.773 118.754 300.293 118.739 300.821C118.724 301.349 118.815 301.862 119.011 302.36C119.214 302.85 119.524 303.302 119.939 303.717C120.429 304.208 120.934 304.554 121.455 304.758C121.983 304.954 122.51 305.037 123.038 305.007L123.05 306.466C122.311 306.482 121.59 306.35 120.889 306.071C120.195 305.799 119.543 305.358 118.932 304.747ZM125.243 311.058C124.715 310.53 124.365 309.931 124.191 309.26C124.018 308.588 124.018 307.917 124.191 307.246C124.372 306.567 124.727 305.964 125.255 305.436C125.775 304.915 126.367 304.572 127.031 304.406C127.702 304.233 128.373 304.233 129.045 304.406C129.716 304.579 130.316 304.93 130.844 305.458C131.364 305.979 131.711 306.574 131.884 307.246C132.073 307.917 132.08 308.588 131.907 309.26C131.734 309.931 131.387 310.527 130.866 311.047C130.338 311.575 129.735 311.93 129.056 312.111C128.385 312.284 127.71 312.28 127.031 312.099C126.36 311.926 125.764 311.579 125.243 311.058ZM126.228 310.074C126.567 310.414 126.948 310.636 127.37 310.742C127.793 310.847 128.215 310.84 128.637 310.719C129.067 310.591 129.459 310.349 129.814 309.995C130.161 309.648 130.391 309.26 130.504 308.83C130.625 308.407 130.629 307.989 130.515 307.574C130.417 307.159 130.199 306.782 129.859 306.442C129.52 306.103 129.139 305.881 128.717 305.775C128.302 305.662 127.883 305.666 127.461 305.786C127.038 305.907 126.654 306.141 126.307 306.488C125.952 306.842 125.711 307.234 125.583 307.664C125.462 308.087 125.454 308.509 125.56 308.931C125.666 309.354 125.888 309.735 126.228 310.074ZM129.309 314.898L134.683 309.524L135.702 310.543L130.328 315.917L129.309 314.898ZM132.941 318.53L136.188 315.283C136.588 314.883 136.776 314.446 136.754 313.971C136.746 313.495 136.558 313.073 136.188 312.704C135.939 312.455 135.664 312.285 135.362 312.194C135.061 312.104 134.755 312.093 134.446 312.16C134.137 312.228 133.85 312.394 133.586 312.658L133.371 312.036C133.778 311.629 134.22 311.361 134.695 311.233C135.177 311.112 135.656 311.123 136.132 311.267C136.614 311.402 137.048 311.663 137.433 312.047C137.81 312.424 138.066 312.847 138.202 313.314C138.345 313.79 138.353 314.265 138.225 314.74C138.104 315.223 137.836 315.671 137.421 316.086L133.959 319.548L132.941 318.53ZM136.573 322.162L139.82 318.915C140.22 318.515 140.408 318.078 140.386 317.602C140.378 317.127 140.193 316.709 139.831 316.347C139.582 316.098 139.303 315.924 138.994 315.826C138.692 315.736 138.387 315.724 138.078 315.792C137.768 315.86 137.482 316.026 137.218 316.29L136.844 315.509C137.282 315.117 137.746 314.872 138.236 314.774C138.741 314.676 139.235 314.702 139.718 314.853C140.208 314.996 140.642 315.257 141.019 315.634C141.411 316.026 141.679 316.46 141.822 316.935C141.966 317.41 141.977 317.889 141.856 318.372C141.743 318.862 141.475 319.318 141.053 319.741L137.602 323.191L136.573 322.162ZM138.988 324.577L144.362 319.203L145.38 320.221L140.006 325.595L138.988 324.577ZM142.62 328.209L145.867 324.962C146.266 324.562 146.455 324.124 146.432 323.649C146.425 323.174 146.236 322.752 145.867 322.382C145.618 322.133 145.342 321.963 145.041 321.873C144.739 321.782 144.434 321.771 144.124 321.839C143.815 321.907 143.529 322.073 143.265 322.337L143.05 321.715C143.457 321.307 143.898 321.039 144.373 320.911C144.856 320.791 145.335 320.802 145.81 320.945C146.293 321.081 146.727 321.341 147.111 321.726C147.488 322.103 147.745 322.525 147.881 322.993C148.024 323.468 148.031 323.943 147.903 324.419C147.782 324.901 147.515 325.35 147.1 325.765L143.638 329.227L142.62 328.209ZM146.251 331.84L149.498 328.593C149.898 328.194 150.087 327.756 150.064 327.281C150.057 326.806 149.872 326.387 149.51 326.025C149.261 325.776 148.982 325.603 148.672 325.505C148.371 325.414 148.065 325.403 147.756 325.471C147.447 325.539 147.16 325.705 146.896 325.969L146.523 325.188C146.96 324.796 147.424 324.551 147.914 324.452C148.42 324.354 148.914 324.381 149.397 324.532C149.887 324.675 150.321 324.935 150.698 325.312C151.09 325.705 151.358 326.138 151.501 326.613C151.644 327.089 151.656 327.568 151.535 328.05C151.422 328.54 151.154 328.997 150.732 329.419L147.281 332.87L146.251 331.84ZM148.678 334.267L154.052 328.893L155.07 329.911L149.696 335.285L148.678 334.267ZM155.636 328.327C155.447 328.138 155.353 327.924 155.353 327.682C155.36 327.433 155.458 327.215 155.647 327.026C155.828 326.845 156.039 326.754 156.281 326.754C156.53 326.747 156.748 326.837 156.937 327.026C157.125 327.215 157.216 327.433 157.208 327.682C157.208 327.924 157.118 328.135 156.937 328.316C156.748 328.504 156.53 328.602 156.281 328.61C156.039 328.61 155.824 328.516 155.636 328.327ZM152.022 337.611L159.648 329.986L160.666 331.004L153.041 338.63L152.022 337.611ZM155.145 331.841L156.073 330.914L159.738 334.579L158.811 335.507L155.145 331.841Z" fill="#8A66BD"/>
<path d="M119.553 377.228L120.481 376.3L122.619 378.438C122.913 378.733 123.234 378.933 123.581 379.038C123.935 379.151 124.286 379.163 124.633 379.072C124.987 378.989 125.316 378.797 125.617 378.495C125.919 378.193 126.111 377.865 126.194 377.511C126.285 377.164 126.273 376.813 126.16 376.459C126.055 376.112 125.855 375.791 125.561 375.497L123.422 373.359L124.35 372.431L126.556 374.637C127.039 375.12 127.371 375.648 127.552 376.221C127.74 376.802 127.763 377.383 127.62 377.963C127.492 378.544 127.182 379.08 126.692 379.57C126.209 380.053 125.674 380.362 125.085 380.498C124.512 380.633 123.931 380.611 123.343 380.43C122.77 380.249 122.242 379.917 121.759 379.434L119.553 377.228ZM115.786 379.57L123.637 371.718L124.701 372.782L116.849 380.633L115.786 379.57ZM124.525 388.535C124.08 388.09 123.778 387.593 123.62 387.042C123.476 386.491 123.484 385.941 123.642 385.39C123.801 384.84 124.114 384.33 124.581 383.863L127.704 380.74L128.722 381.758L125.645 384.836C125.351 385.13 125.143 385.435 125.023 385.752C124.917 386.069 124.906 386.382 124.989 386.691C125.072 387 125.245 387.287 125.509 387.551C125.909 387.951 126.346 388.139 126.821 388.117C127.304 388.087 127.768 387.849 128.213 387.404L131.29 384.327L132.309 385.345L129.186 388.467C128.718 388.935 128.209 389.248 127.659 389.407C127.108 389.565 126.558 389.572 126.007 389.429C125.471 389.286 124.977 388.988 124.525 388.535ZM128.299 392.084L136.377 384.006L137.396 385.024L129.318 393.102L128.299 392.084ZM130.807 394.592L138.885 386.514L139.904 387.532L131.826 395.61L130.807 394.592ZM135.669 399.453L141.043 394.079L142.061 395.097L136.687 400.471L135.669 399.453ZM139.753 397.405L139.538 396.851C140.224 396.164 140.93 395.776 141.654 395.686C142.378 395.595 143.038 395.848 143.634 396.444C143.905 396.715 144.101 397.009 144.222 397.326C144.35 397.635 144.399 397.994 144.369 398.401L143.011 398.423C143.019 398.19 142.981 397.978 142.898 397.79C142.815 397.601 142.683 397.417 142.502 397.236C142.125 396.858 141.695 396.67 141.212 396.67C140.73 396.67 140.243 396.915 139.753 397.405ZM142.409 406.419C141.873 405.884 141.511 405.28 141.323 404.609C141.142 403.93 141.138 403.255 141.311 402.584C141.485 401.913 141.839 401.309 142.375 400.774C142.903 400.246 143.499 399.891 144.162 399.71C144.834 399.537 145.497 399.537 146.154 399.71C146.825 399.884 147.421 400.231 147.941 400.751C148.439 401.249 148.763 401.8 148.914 402.403C149.073 403.014 149.057 403.625 148.869 404.236C148.688 404.854 148.345 405.416 147.839 405.922C147.764 405.997 147.677 406.076 147.579 406.159C147.489 406.235 147.375 406.318 147.24 406.408L142.703 401.871L143.551 401.023L147.545 405.016L146.844 404.971C147.206 404.609 147.447 404.24 147.568 403.862C147.696 403.478 147.711 403.101 147.613 402.731C147.523 402.354 147.311 401.999 146.98 401.668C146.633 401.321 146.252 401.091 145.837 400.977C145.422 400.864 145.007 400.872 144.592 401C144.177 401.128 143.785 401.377 143.416 401.747C143.039 402.124 142.782 402.531 142.646 402.969C142.518 403.399 142.514 403.832 142.635 404.27C142.763 404.7 143.008 405.096 143.37 405.458C143.672 405.759 144 405.982 144.355 406.125C144.717 406.276 145.094 406.336 145.486 406.306L145.475 407.63C144.917 407.675 144.37 407.588 143.834 407.37C143.306 407.158 142.831 406.842 142.409 406.419ZM148.282 412.293C147.784 411.795 147.456 411.225 147.298 410.584C147.147 409.936 147.166 409.283 147.354 408.627C147.55 407.978 147.913 407.39 148.44 406.862C148.968 406.334 149.557 405.972 150.205 405.776C150.862 405.587 151.514 405.569 152.163 405.719C152.811 405.87 153.381 406.191 153.871 406.681C154.286 407.096 154.565 407.548 154.708 408.039C154.867 408.529 154.889 409.019 154.776 409.509C154.678 410 154.444 410.452 154.075 410.867L152.457 412.485C152.05 412.847 151.597 413.081 151.099 413.186C150.609 413.3 150.115 413.281 149.617 413.13C149.134 412.979 148.689 412.7 148.282 412.293ZM149.402 411.489C149.907 411.995 150.484 412.232 151.133 412.202C151.789 412.164 152.385 411.878 152.921 411.342C153.29 410.973 153.539 410.581 153.667 410.166C153.811 409.751 153.83 409.34 153.724 408.932C153.633 408.525 153.419 408.152 153.079 407.812C152.74 407.473 152.359 407.25 151.936 407.145C151.522 407.047 151.099 407.062 150.669 407.19C150.247 407.311 149.858 407.548 149.504 407.903C149.142 408.265 148.897 408.661 148.769 409.091C148.648 409.513 148.637 409.932 148.735 410.347C148.84 410.769 149.063 411.15 149.402 411.489ZM147.931 416.218L151.529 412.621L153.023 411.489L154.143 410.007L155.557 408.593L156.575 409.611L148.95 417.237L147.931 416.218ZM154.754 418.764C154.309 418.319 154.007 417.821 153.849 417.271C153.705 416.72 153.713 416.17 153.871 415.619C154.03 415.068 154.343 414.559 154.81 414.092L157.933 410.969L158.951 411.987L155.874 415.065C155.58 415.359 155.372 415.664 155.251 415.981C155.146 416.298 155.135 416.611 155.217 416.92C155.3 417.229 155.474 417.516 155.738 417.78C156.138 418.18 156.575 418.368 157.05 418.346C157.533 418.315 157.997 418.078 158.442 417.633L161.519 414.555L162.537 415.574L159.415 418.696C158.947 419.164 158.438 419.477 157.888 419.635C157.337 419.794 156.786 419.801 156.236 419.658C155.7 419.515 155.206 419.217 154.754 418.764ZM160.904 424.915C160.369 424.379 160.006 423.776 159.818 423.104C159.637 422.426 159.633 421.751 159.807 421.079C159.98 420.408 160.335 419.805 160.87 419.269C161.398 418.741 161.994 418.387 162.658 418.206C163.329 418.032 163.993 418.032 164.649 418.206C165.32 418.379 165.916 418.726 166.436 419.246C166.934 419.744 167.259 420.295 167.409 420.898C167.568 421.509 167.553 422.12 167.364 422.731C167.183 423.35 166.84 423.911 166.335 424.417C166.259 424.492 166.172 424.571 166.074 424.654C165.984 424.73 165.871 424.813 165.735 424.903L161.198 420.366L162.047 419.518L166.04 423.512L165.339 423.466C165.701 423.104 165.942 422.735 166.063 422.358C166.191 421.973 166.206 421.596 166.108 421.226C166.018 420.849 165.807 420.495 165.475 420.163C165.128 419.816 164.747 419.586 164.332 419.473C163.917 419.36 163.502 419.367 163.088 419.495C162.673 419.624 162.281 419.872 161.911 420.242C161.534 420.619 161.277 421.026 161.142 421.464C161.013 421.894 161.01 422.328 161.13 422.765C161.259 423.195 161.504 423.591 161.866 423.953C162.167 424.255 162.495 424.477 162.85 424.62C163.212 424.771 163.589 424.832 163.981 424.801L163.97 426.125C163.412 426.17 162.865 426.084 162.33 425.865C161.802 425.654 161.326 425.337 160.904 424.915ZM166.189 430.2C165.887 429.898 165.638 429.574 165.442 429.227C165.261 428.88 165.129 428.521 165.046 428.152C164.971 427.775 164.952 427.401 164.99 427.032L166.302 427.032C166.257 427.469 166.302 427.877 166.438 428.254C166.581 428.623 166.811 428.966 167.128 429.283C167.445 429.6 167.743 429.792 168.022 429.86C168.308 429.921 168.55 429.853 168.746 429.657C168.942 429.46 169.021 429.238 168.984 428.989C168.961 428.74 168.874 428.472 168.723 428.186C168.58 427.892 168.418 427.586 168.237 427.269C168.071 426.953 167.935 426.628 167.83 426.296C167.724 425.964 167.698 425.629 167.75 425.289C167.811 424.958 168.003 424.629 168.327 424.305C168.652 423.981 169.01 423.781 169.402 423.706C169.802 423.623 170.205 423.656 170.613 423.807C171.028 423.966 171.435 424.245 171.835 424.645C172.257 425.067 172.555 425.516 172.728 425.991C172.917 426.466 172.97 426.956 172.887 427.462L171.574 427.462C171.62 427.115 171.582 426.775 171.461 426.443C171.348 426.119 171.152 425.817 170.873 425.538C170.579 425.244 170.3 425.071 170.036 425.018C169.787 424.965 169.572 425.029 169.391 425.21C169.21 425.391 169.138 425.599 169.176 425.833C169.214 426.066 169.308 426.327 169.459 426.613C169.617 426.907 169.779 427.213 169.945 427.53C170.119 427.839 170.254 428.163 170.352 428.503C170.451 428.842 170.466 429.181 170.398 429.521C170.337 429.868 170.141 430.207 169.809 430.539C169.304 431.044 168.723 431.263 168.067 431.195C167.418 431.135 166.792 430.803 166.189 430.2ZM170.248 434.032L177.873 426.407L178.892 427.425L171.266 435.05L170.248 434.032ZM173.371 428.262L174.298 427.334L177.964 431L177.036 431.928L173.371 428.262ZM178.283 442.293C177.755 441.765 177.4 441.162 177.219 440.483C177.046 439.812 177.046 439.14 177.219 438.469C177.408 437.798 177.762 437.202 178.283 436.682C178.811 436.154 179.406 435.799 180.07 435.618C180.741 435.445 181.409 435.448 182.073 435.629C182.752 435.81 183.355 436.165 183.883 436.693C184.298 437.108 184.603 437.572 184.799 438.084C185.003 438.59 185.086 439.118 185.048 439.668L183.691 439.668C183.721 439.306 183.664 438.956 183.521 438.616C183.393 438.277 183.185 437.964 182.899 437.677C182.559 437.338 182.178 437.115 181.756 437.01C181.341 436.897 180.922 436.9 180.5 437.021C180.078 437.142 179.689 437.379 179.335 437.734C178.98 438.088 178.743 438.477 178.622 438.899C178.501 439.321 178.494 439.744 178.599 440.166C178.705 440.589 178.927 440.969 179.267 441.309C179.554 441.595 179.863 441.807 180.195 441.942C180.542 442.078 180.9 442.135 181.269 442.112L181.258 443.458C180.723 443.496 180.195 443.413 179.674 443.21C179.161 443.013 178.697 442.708 178.283 442.293ZM181.476 445.26L186.85 439.886L187.868 440.904L182.494 446.278L181.476 445.26ZM185.56 443.212L185.345 442.658C186.032 441.972 186.737 441.583 187.461 441.493C188.185 441.402 188.845 441.655 189.441 442.251C189.712 442.522 189.908 442.816 190.029 443.133C190.157 443.443 190.206 443.801 190.176 444.208L188.819 444.231C188.826 443.997 188.788 443.786 188.705 443.597C188.622 443.409 188.49 443.224 188.309 443.043C187.932 442.666 187.502 442.477 187.02 442.477C186.537 442.477 186.05 442.722 185.56 443.212ZM188.216 452.227C187.681 451.691 187.318 451.088 187.13 450.416C186.949 449.738 186.945 449.063 187.119 448.391C187.292 447.72 187.647 447.117 188.182 446.581C188.71 446.053 189.306 445.699 189.97 445.518C190.641 445.344 191.305 445.344 191.961 445.518C192.632 445.691 193.228 446.038 193.748 446.558C194.246 447.056 194.571 447.607 194.721 448.21C194.88 448.821 194.865 449.432 194.676 450.043C194.495 450.662 194.152 451.223 193.647 451.729C193.571 451.804 193.484 451.883 193.386 451.966C193.296 452.042 193.183 452.125 193.047 452.215L188.51 447.678L189.359 446.83L193.352 450.824L192.651 450.778C193.013 450.416 193.254 450.047 193.375 449.67C193.503 449.285 193.518 448.908 193.42 448.538C193.33 448.161 193.119 447.807 192.787 447.475C192.44 447.128 192.059 446.898 191.644 446.785C191.229 446.672 190.814 446.679 190.4 446.807C189.985 446.936 189.593 447.184 189.223 447.554C188.846 447.931 188.589 448.338 188.454 448.776C188.325 449.206 188.322 449.64 188.442 450.077C188.571 450.507 188.816 450.903 189.178 451.265C189.479 451.567 189.807 451.789 190.162 451.932C190.524 452.083 190.901 452.144 191.293 452.113L191.282 453.437C190.724 453.482 190.177 453.396 189.642 453.177C189.114 452.966 188.638 452.649 188.216 452.227ZM194.078 458.089C193.588 457.598 193.263 457.033 193.105 456.392C192.954 455.743 192.973 455.09 193.162 454.434C193.358 453.786 193.72 453.197 194.248 452.669C194.776 452.141 195.364 451.779 196.013 451.583C196.669 451.395 197.318 451.372 197.959 451.515C198.607 451.666 199.181 451.991 199.678 452.488C200.086 452.896 200.361 453.344 200.504 453.835C200.663 454.325 200.689 454.819 200.583 455.317C200.485 455.807 200.252 456.26 199.882 456.674L198.264 458.292C197.857 458.654 197.404 458.888 196.906 458.994C196.416 459.107 195.922 459.088 195.424 458.937C194.942 458.786 194.493 458.503 194.078 458.089ZM195.209 457.297C195.715 457.802 196.292 458.04 196.94 458.009C197.597 457.972 198.192 457.685 198.728 457.15C199.098 456.78 199.346 456.388 199.475 455.973C199.618 455.558 199.637 455.147 199.531 454.74C199.433 454.325 199.214 453.948 198.875 453.608C198.536 453.269 198.155 453.046 197.732 452.941C197.318 452.843 196.895 452.858 196.465 452.986C196.05 453.114 195.666 453.356 195.311 453.71C194.949 454.072 194.7 454.464 194.565 454.887C194.444 455.309 194.436 455.732 194.542 456.154C194.647 456.576 194.87 456.957 195.209 457.297ZM195.979 459.763L197.427 458.315L198.932 457.195L200.04 455.701L201.353 454.389L202.382 455.419L197.008 460.793L195.979 459.763ZM199.295 463.079L206.92 455.453L207.938 456.472L200.313 464.097L199.295 463.079ZM202.417 457.309L203.345 456.381L207.01 460.047L206.083 460.974L202.417 457.309ZM204.844 468.855C204.309 468.319 203.947 467.716 203.758 467.044C203.577 466.366 203.573 465.691 203.747 465.019C203.92 464.348 204.275 463.745 204.81 463.209C205.338 462.681 205.934 462.327 206.598 462.146C207.269 461.972 207.933 461.972 208.589 462.146C209.26 462.319 209.856 462.666 210.376 463.186C210.874 463.684 211.199 464.235 211.349 464.838C211.508 465.449 211.493 466.06 211.304 466.671C211.123 467.29 210.78 467.851 210.275 468.357C210.199 468.432 210.113 468.511 210.014 468.594C209.924 468.67 209.811 468.753 209.675 468.843L205.138 464.307L205.987 463.458L209.981 467.452L209.279 467.406C209.641 467.044 209.882 466.675 210.003 466.298C210.131 465.913 210.146 465.536 210.048 465.166C209.958 464.789 209.747 464.435 209.415 464.103C209.068 463.756 208.687 463.526 208.272 463.413C207.857 463.3 207.442 463.307 207.028 463.435C206.613 463.564 206.221 463.813 205.851 464.182C205.474 464.559 205.217 464.967 205.082 465.404C204.953 465.834 204.95 466.268 205.07 466.705C205.199 467.135 205.444 467.531 205.806 467.893C206.107 468.195 206.436 468.417 206.79 468.56C207.152 468.711 207.529 468.772 207.921 468.742L207.91 470.065C207.352 470.11 206.805 470.024 206.27 469.805C205.742 469.594 205.266 469.277 204.844 468.855ZM210.695 474.705C210.197 474.208 209.873 473.642 209.722 473.008C209.578 472.367 209.601 471.719 209.79 471.062C209.986 470.414 210.348 469.825 210.876 469.297C211.404 468.769 211.992 468.407 212.641 468.211C213.297 468.023 213.946 468 214.587 468.143C215.228 468.287 215.797 468.607 216.295 469.105C216.695 469.505 216.97 469.954 217.121 470.451C217.279 470.942 217.306 471.436 217.2 471.933C217.11 472.431 216.88 472.888 216.51 473.302L214.892 474.92C214.485 475.282 214.032 475.516 213.535 475.622C213.037 475.727 212.539 475.705 212.041 475.554C211.551 475.395 211.102 475.113 210.695 474.705ZM211.826 473.913C212.166 474.253 212.539 474.468 212.946 474.558C213.361 474.656 213.776 474.641 214.191 474.513C214.613 474.377 215.002 474.132 215.356 473.778C215.726 473.408 215.971 473.012 216.091 472.59C216.22 472.175 216.235 471.76 216.137 471.345C216.046 470.938 215.831 470.565 215.492 470.225C215.152 469.886 214.775 469.667 214.36 469.569C213.946 469.471 213.523 469.486 213.093 469.614C212.678 469.742 212.294 469.984 211.939 470.338C211.577 470.7 211.328 471.092 211.193 471.515C211.072 471.937 211.061 472.356 211.159 472.771C211.264 473.193 211.487 473.574 211.826 473.913ZM213.636 477.421L212.607 476.391L214.055 474.943L215.56 473.823L216.668 472.329L220.685 468.313L221.714 469.343L213.636 477.421Z" fill="white"/>
<path d="M115.786 533.57L123.637 525.718L124.701 526.782L116.849 534.633L115.786 533.57ZM119.96 530.843L120.933 529.87L125.029 533.966L124.056 534.939L119.96 530.843ZM123.388 527.415L124.361 526.442L128.649 530.73L127.676 531.703L123.388 527.415ZM124.145 542.155C123.617 541.627 123.266 541.028 123.093 540.356C122.919 539.685 122.919 539.014 123.093 538.343C123.274 537.664 123.628 537.06 124.156 536.532C124.676 536.012 125.269 535.669 125.932 535.503C126.604 535.329 127.275 535.329 127.946 535.503C128.617 535.676 129.217 536.027 129.745 536.555C130.265 537.075 130.612 537.671 130.786 538.343C130.974 539.014 130.982 539.685 130.809 540.356C130.635 541.028 130.288 541.624 129.768 542.144C129.24 542.672 128.636 543.026 127.957 543.207C127.286 543.381 126.611 543.377 125.932 543.196C125.261 543.023 124.665 542.676 124.145 542.155ZM125.129 541.171C125.468 541.51 125.849 541.733 126.272 541.839C126.694 541.944 127.116 541.937 127.539 541.816C127.969 541.688 128.361 541.446 128.715 541.092C129.062 540.745 129.292 540.356 129.406 539.926C129.526 539.504 129.53 539.085 129.417 538.671C129.319 538.256 129.1 537.879 128.761 537.539C128.421 537.2 128.04 536.977 127.618 536.872C127.203 536.759 126.785 536.762 126.362 536.883C125.94 537.004 125.555 537.238 125.208 537.585C124.854 537.939 124.612 538.331 124.484 538.761C124.363 539.184 124.356 539.606 124.462 540.028C124.567 540.451 124.79 540.832 125.129 541.171ZM128.211 545.995L136.289 537.917L137.307 538.935L129.229 547.013L128.211 545.995ZM130.719 548.503L138.797 540.425L139.815 541.443L131.737 549.521L130.719 548.503ZM135.569 553.579C135.041 553.052 134.69 552.452 134.517 551.781C134.343 551.109 134.343 550.438 134.517 549.767C134.698 549.088 135.052 548.485 135.58 547.957C136.101 547.436 136.693 547.093 137.356 546.927C138.028 546.754 138.699 546.754 139.37 546.927C140.042 547.1 140.641 547.451 141.169 547.979C141.69 548.5 142.037 549.095 142.21 549.767C142.399 550.438 142.406 551.109 142.233 551.781C142.059 552.452 141.712 553.048 141.192 553.568C140.664 554.096 140.06 554.451 139.382 554.632C138.71 554.805 138.035 554.801 137.356 554.62C136.685 554.447 136.089 554.1 135.569 553.579ZM136.553 552.595C136.893 552.935 137.274 553.157 137.696 553.263C138.118 553.368 138.541 553.361 138.963 553.24C139.393 553.112 139.785 552.87 140.14 552.516C140.487 552.169 140.717 551.781 140.83 551.351C140.95 550.928 140.954 550.51 140.841 550.095C140.743 549.68 140.524 549.303 140.185 548.963C139.846 548.624 139.465 548.402 139.042 548.296C138.627 548.183 138.209 548.187 137.786 548.307C137.364 548.428 136.979 548.662 136.632 549.009C136.278 549.363 136.037 549.755 135.908 550.185C135.788 550.608 135.78 551.03 135.886 551.453C135.991 551.875 136.214 552.256 136.553 552.595ZM141.019 558.803L144.266 551.302L145.33 552.366L142.682 558.091L142.343 557.751L148.056 555.093L148.645 555.681L145.986 561.394L145.646 561.055L151.371 558.407L152.435 559.471L144.945 562.729L144.345 562.13L146.857 556.518L147.23 556.891L141.607 559.392L141.019 558.803ZM152.378 570.389C151.933 569.944 151.631 569.446 151.473 568.895C151.33 568.345 151.337 567.794 151.496 567.244C151.654 566.693 151.967 566.184 152.435 565.716L155.557 562.594L156.576 563.612L153.498 566.689C153.204 566.983 152.997 567.289 152.876 567.606C152.77 567.922 152.759 568.235 152.842 568.545C152.925 568.854 153.098 569.14 153.362 569.404C153.762 569.804 154.2 569.993 154.675 569.97C155.158 569.94 155.621 569.702 156.066 569.257L159.144 566.18L160.162 567.198L157.039 570.321C156.572 570.788 156.063 571.101 155.512 571.26C154.961 571.418 154.411 571.426 153.86 571.283C153.325 571.139 152.831 570.841 152.378 570.389ZM158.868 576.879C158.461 576.471 158.174 576.019 158.008 575.521C157.857 575.023 157.835 574.525 157.94 574.028C158.046 573.53 158.28 573.077 158.642 572.67L160.26 571.052C160.674 570.682 161.127 570.449 161.617 570.351C162.123 570.252 162.62 570.283 163.111 570.441C163.616 570.599 164.069 570.879 164.468 571.278C164.959 571.769 165.275 572.334 165.419 572.975C165.569 573.624 165.547 574.273 165.351 574.921C165.155 575.57 164.793 576.158 164.265 576.686C163.737 577.214 163.148 577.576 162.5 577.772C161.851 577.968 161.202 577.991 160.554 577.84C159.92 577.689 159.358 577.369 158.868 576.879ZM153.901 576.188L161.527 568.563L162.545 569.581L161.131 570.995L159.637 572.104L158.517 573.609L154.92 577.207L153.901 576.188ZM159.66 575.747C159.999 576.087 160.377 576.305 160.791 576.403C161.206 576.501 161.625 576.49 162.047 576.369C162.477 576.241 162.873 575.996 163.235 575.634C163.59 575.28 163.831 574.887 163.959 574.457C164.087 574.028 164.099 573.609 163.993 573.202C163.895 572.787 163.68 572.413 163.348 572.082C163.009 571.742 162.632 571.523 162.217 571.425C161.81 571.32 161.395 571.335 160.972 571.471C160.55 571.606 160.158 571.855 159.796 572.217C159.441 572.572 159.192 572.956 159.049 573.371C158.921 573.786 158.906 574.201 159.004 574.616C159.109 575.038 159.328 575.415 159.66 575.747ZM163.308 581.319C163.097 581.108 162.992 580.859 162.992 580.572C163.007 580.286 163.116 580.04 163.32 579.837C163.531 579.626 163.772 579.52 164.044 579.52C164.33 579.52 164.579 579.626 164.79 579.837C165.002 580.048 165.103 580.293 165.096 580.572C165.103 580.851 165.002 581.096 164.79 581.308C164.587 581.511 164.338 581.617 164.044 581.624C163.765 581.632 163.52 581.53 163.308 581.319ZM166.59 584.6C166.379 584.389 166.273 584.14 166.273 583.854C166.288 583.567 166.397 583.322 166.601 583.118C166.812 582.907 167.054 582.801 167.325 582.801C167.612 582.801 167.861 582.907 168.072 583.118C168.283 583.329 168.385 583.575 168.377 583.854C168.385 584.133 168.283 584.378 168.072 584.589C167.868 584.793 167.619 584.898 167.325 584.906C167.046 584.913 166.801 584.812 166.59 584.6ZM169.871 587.882C169.66 587.671 169.554 587.422 169.554 587.135C169.57 586.848 169.679 586.603 169.883 586.4C170.094 586.188 170.335 586.083 170.607 586.083C170.893 586.083 171.142 586.188 171.353 586.4C171.564 586.611 171.666 586.856 171.659 587.135C171.666 587.414 171.564 587.659 171.353 587.87C171.15 588.074 170.901 588.18 170.607 588.187C170.328 588.195 170.082 588.093 169.871 587.882Z" fill="#BEA9DA"/>
<path d="M117.788 457.572L123.072 447.152L124.135 448.216L119.768 456.656L119.463 456.351L127.869 451.949L128.638 452.719L124.237 461.125L123.943 460.831L132.383 456.464L133.435 457.516L123.026 462.811L122.268 462.053L126.647 453.647L126.941 453.941L118.546 458.33L117.788 457.572ZM128.052 468.062C127.562 467.572 127.237 467.007 127.079 466.365C126.928 465.717 126.947 465.064 127.136 464.408C127.332 463.76 127.694 463.171 128.222 462.643C128.75 462.115 129.338 461.753 129.987 461.557C130.643 461.369 131.291 461.346 131.933 461.489C132.581 461.64 133.154 461.964 133.652 462.462C134.06 462.87 134.335 463.318 134.478 463.809C134.637 464.299 134.663 464.793 134.557 465.291C134.459 465.781 134.225 466.233 133.856 466.648L132.238 468.266C131.831 468.628 131.378 468.862 130.88 468.968C130.39 469.081 129.896 469.062 129.398 468.911C128.916 468.76 128.467 468.477 128.052 468.062ZM129.183 467.271C129.689 467.776 130.266 468.013 130.914 467.983C131.571 467.946 132.166 467.659 132.702 467.123C133.071 466.754 133.32 466.362 133.449 465.947C133.592 465.532 133.611 465.121 133.505 464.714C133.407 464.299 133.188 463.922 132.849 463.582C132.51 463.243 132.129 463.02 131.706 462.915C131.291 462.817 130.869 462.832 130.439 462.96C130.024 463.088 129.64 463.33 129.285 463.684C128.923 464.046 128.674 464.438 128.538 464.861C128.418 465.283 128.41 465.705 128.516 466.128C128.621 466.55 128.844 466.931 129.183 467.271ZM129.953 469.737L131.401 468.289L132.906 467.169L134.014 465.675L135.327 464.363L136.356 465.392L130.982 470.766L129.953 469.737ZM132.476 472.26L137.85 466.886L138.868 467.904L133.494 473.278L132.476 472.26ZM139.434 466.321C139.245 466.132 139.151 465.917 139.151 465.676C139.159 465.427 139.257 465.208 139.445 465.019C139.626 464.838 139.837 464.748 140.079 464.748C140.328 464.74 140.546 464.831 140.735 465.019C140.924 465.208 141.014 465.427 141.006 465.676C141.006 465.917 140.916 466.128 140.735 466.309C140.546 466.498 140.328 466.596 140.079 466.603C139.837 466.603 139.622 466.509 139.434 466.321ZM135.821 475.605L143.446 467.979L144.464 468.998L136.839 476.623L135.821 475.605ZM138.943 469.835L139.871 468.907L143.537 472.573L142.609 473.501L138.943 469.835ZM139.171 478.956L144.545 473.582L145.564 474.6L140.19 479.974L139.171 478.956ZM146.129 473.016C145.941 472.827 145.846 472.612 145.846 472.371C145.854 472.122 145.952 471.903 146.141 471.715C146.322 471.534 146.533 471.443 146.774 471.443C147.023 471.436 147.242 471.526 147.43 471.715C147.619 471.903 147.709 472.122 147.702 472.371C147.702 472.612 147.611 472.824 147.43 473.005C147.242 473.193 147.023 473.291 146.774 473.299C146.533 473.299 146.318 473.205 146.129 473.016ZM145.492 485.276L148.625 482.142C149.033 481.735 149.24 481.271 149.248 480.75C149.255 480.23 149.055 479.766 148.648 479.359C148.377 479.087 148.075 478.906 147.743 478.816C147.411 478.725 147.079 478.725 146.747 478.816C146.416 478.906 146.114 479.087 145.842 479.359L145.661 478.703C146.069 478.295 146.521 478.024 147.019 477.888C147.517 477.752 148.018 477.756 148.524 477.899C149.037 478.035 149.497 478.307 149.904 478.714C150.311 479.121 150.568 479.581 150.673 480.094C150.786 480.615 150.768 481.131 150.617 481.644C150.473 482.15 150.217 482.587 149.847 482.957L146.51 486.294L145.492 485.276ZM141.69 481.474L147.064 476.1L148.082 477.119L142.708 482.493L141.69 481.474ZM147.753 492.266C147.202 491.715 146.814 491.123 146.587 490.49C146.369 489.864 146.316 489.238 146.429 488.612L147.753 488.6C147.692 489.098 147.741 489.57 147.9 490.015C148.051 490.467 148.333 490.901 148.748 491.316C149.299 491.866 149.88 492.153 150.491 492.176C151.102 492.213 151.652 491.987 152.142 491.497L153.477 490.162L154.869 489.132L155.887 487.752L157.301 486.338L158.32 487.356L153.161 492.515C152.648 493.028 152.078 493.356 151.452 493.499C150.834 493.65 150.2 493.62 149.552 493.409C148.91 493.205 148.311 492.824 147.753 492.266ZM150.208 489.811C149.717 489.321 149.393 488.763 149.235 488.137C149.084 487.518 149.099 486.892 149.28 486.258C149.469 485.617 149.819 485.04 150.332 484.527C150.845 484.015 151.415 483.671 152.041 483.498C152.674 483.317 153.3 483.302 153.919 483.453C154.552 483.604 155.114 483.924 155.604 484.414C156.027 484.837 156.317 485.293 156.476 485.783C156.634 486.274 156.657 486.764 156.543 487.254C156.445 487.744 156.204 488.197 155.819 488.612L154.394 490.037C153.979 490.407 153.523 490.644 153.025 490.75C152.542 490.856 152.056 490.829 151.565 490.671C151.075 490.512 150.623 490.226 150.208 489.811ZM151.373 489.053C151.705 489.385 152.067 489.604 152.459 489.709C152.859 489.822 153.255 489.819 153.647 489.698C154.047 489.57 154.42 489.332 154.767 488.985C155.114 488.638 155.344 488.265 155.457 487.865C155.586 487.465 155.597 487.069 155.491 486.677C155.393 486.277 155.174 485.908 154.835 485.568C154.496 485.229 154.122 485.006 153.715 484.901C153.315 484.788 152.908 484.788 152.493 484.901C152.093 485.014 151.724 485.24 151.384 485.58C151.045 485.919 150.815 486.292 150.694 486.7C150.581 487.115 150.577 487.526 150.683 487.933C150.804 488.34 151.034 488.714 151.373 489.053ZM155.221 495.231C155.01 495.02 154.904 494.771 154.904 494.485C154.919 494.198 155.029 493.953 155.232 493.749C155.443 493.538 155.685 493.433 155.956 493.433C156.243 493.433 156.492 493.538 156.703 493.749C156.914 493.96 157.016 494.206 157.008 494.485C157.016 494.764 156.914 495.009 156.703 495.22C156.499 495.424 156.25 495.529 155.956 495.537C155.677 495.544 155.432 495.443 155.221 495.231ZM158.502 498.513C158.291 498.302 158.185 498.053 158.185 497.766C158.201 497.479 158.31 497.234 158.514 497.031C158.725 496.82 158.966 496.714 159.238 496.714C159.524 496.714 159.773 496.82 159.984 497.031C160.196 497.242 160.297 497.487 160.29 497.766C160.297 498.045 160.196 498.29 159.984 498.501C159.781 498.705 159.532 498.811 159.238 498.818C158.959 498.826 158.713 498.724 158.502 498.513ZM161.784 501.794C161.572 501.583 161.467 501.334 161.467 501.048C161.482 500.761 161.591 500.516 161.795 500.312C162.006 500.101 162.248 499.995 162.519 499.995C162.806 499.995 163.055 500.101 163.266 500.312C163.477 500.523 163.579 500.768 163.571 501.048C163.579 501.327 163.477 501.572 163.266 501.783C163.062 501.987 162.813 502.092 162.519 502.1C162.24 502.107 161.995 502.005 161.784 501.794Z" fill="#BEA9DA"/>
<path d="M117.788 613.572L123.072 603.152L124.135 604.216L119.768 612.656L119.463 612.351L127.869 607.949L128.638 608.719L124.237 617.125L123.943 616.831L132.383 612.464L133.435 613.516L123.026 618.811L122.268 618.053L126.647 609.647L126.941 609.941L118.546 614.33L117.788 613.572ZM128.052 624.062C127.562 623.572 127.237 623.007 127.079 622.365C126.928 621.717 126.947 621.064 127.136 620.408C127.332 619.76 127.694 619.171 128.222 618.643C128.75 618.115 129.338 617.753 129.987 617.557C130.643 617.369 131.291 617.346 131.933 617.489C132.581 617.64 133.154 617.964 133.652 618.462C134.06 618.87 134.335 619.318 134.478 619.809C134.637 620.299 134.663 620.793 134.557 621.291C134.459 621.781 134.225 622.233 133.856 622.648L132.238 624.266C131.831 624.628 131.378 624.862 130.88 624.968C130.39 625.081 129.896 625.062 129.398 624.911C128.916 624.76 128.467 624.477 128.052 624.062ZM129.183 623.271C129.689 623.776 130.266 624.013 130.914 623.983C131.571 623.946 132.166 623.659 132.702 623.123C133.071 622.754 133.32 622.362 133.449 621.947C133.592 621.532 133.611 621.121 133.505 620.714C133.407 620.299 133.188 619.922 132.849 619.582C132.51 619.243 132.129 619.02 131.706 618.915C131.291 618.817 130.869 618.832 130.439 618.96C130.024 619.088 129.64 619.33 129.285 619.684C128.923 620.046 128.674 620.438 128.538 620.861C128.418 621.283 128.41 621.705 128.516 622.128C128.621 622.55 128.844 622.931 129.183 623.271ZM129.953 625.737L131.401 624.289L132.906 623.169L134.014 621.675L135.327 620.363L136.356 621.392L130.982 626.766L129.953 625.737ZM132.476 628.26L137.85 622.886L138.868 623.904L133.494 629.278L132.476 628.26ZM139.434 622.321C139.245 622.132 139.151 621.917 139.151 621.676C139.159 621.427 139.257 621.208 139.445 621.019C139.626 620.838 139.837 620.748 140.079 620.748C140.328 620.74 140.546 620.831 140.735 621.019C140.924 621.208 141.014 621.427 141.006 621.676C141.006 621.917 140.916 622.128 140.735 622.309C140.546 622.498 140.328 622.596 140.079 622.603C139.837 622.603 139.622 622.509 139.434 622.321ZM135.821 631.605L143.446 623.979L144.464 624.998L136.839 632.623L135.821 631.605ZM138.943 625.835L139.871 624.907L143.537 628.573L142.609 629.501L138.943 625.835ZM139.171 634.956L144.545 629.582L145.564 630.6L140.19 635.974L139.171 634.956ZM146.129 629.016C145.941 628.827 145.846 628.612 145.846 628.371C145.854 628.122 145.952 627.903 146.141 627.715C146.322 627.534 146.533 627.443 146.774 627.443C147.023 627.436 147.242 627.526 147.43 627.715C147.619 627.903 147.709 628.122 147.702 628.371C147.702 628.612 147.611 628.824 147.43 629.005C147.242 629.193 147.023 629.291 146.774 629.299C146.533 629.299 146.318 629.205 146.129 629.016ZM145.492 641.276L148.625 638.142C149.033 637.735 149.24 637.271 149.248 636.75C149.255 636.23 149.055 635.766 148.648 635.359C148.377 635.087 148.075 634.906 147.743 634.816C147.411 634.725 147.079 634.725 146.747 634.816C146.416 634.906 146.114 635.087 145.842 635.359L145.661 634.703C146.069 634.295 146.521 634.024 147.019 633.888C147.517 633.752 148.018 633.756 148.524 633.899C149.037 634.035 149.497 634.307 149.904 634.714C150.311 635.121 150.568 635.581 150.673 636.094C150.786 636.615 150.768 637.131 150.617 637.644C150.473 638.15 150.217 638.587 149.847 638.957L146.51 642.294L145.492 641.276ZM141.69 637.474L147.064 632.1L148.082 633.119L142.708 638.493L141.69 637.474ZM147.753 648.266C147.202 647.715 146.814 647.123 146.587 646.49C146.369 645.864 146.316 645.238 146.429 644.612L147.753 644.6C147.692 645.098 147.741 645.57 147.9 646.015C148.051 646.467 148.333 646.901 148.748 647.316C149.299 647.866 149.88 648.153 150.491 648.176C151.102 648.213 151.652 647.987 152.142 647.497L153.477 646.162L154.869 645.132L155.887 643.752L157.301 642.338L158.32 643.356L153.161 648.515C152.648 649.028 152.078 649.356 151.452 649.499C150.834 649.65 150.2 649.62 149.552 649.409C148.91 649.205 148.311 648.824 147.753 648.266ZM150.208 645.811C149.717 645.321 149.393 644.763 149.235 644.137C149.084 643.518 149.099 642.892 149.28 642.258C149.469 641.617 149.819 641.04 150.332 640.527C150.845 640.015 151.415 639.671 152.041 639.498C152.674 639.317 153.3 639.302 153.919 639.453C154.552 639.604 155.114 639.924 155.604 640.414C156.027 640.837 156.317 641.293 156.476 641.783C156.634 642.274 156.657 642.764 156.543 643.254C156.445 643.744 156.204 644.197 155.819 644.612L154.394 646.037C153.979 646.407 153.523 646.644 153.025 646.75C152.542 646.856 152.056 646.829 151.565 646.671C151.075 646.512 150.623 646.226 150.208 645.811ZM151.373 645.053C151.705 645.385 152.067 645.604 152.459 645.709C152.859 645.822 153.255 645.819 153.647 645.698C154.047 645.57 154.42 645.332 154.767 644.985C155.114 644.638 155.344 644.265 155.457 643.865C155.586 643.465 155.597 643.069 155.491 642.677C155.393 642.277 155.174 641.908 154.835 641.568C154.496 641.229 154.122 641.006 153.715 640.901C153.315 640.788 152.908 640.788 152.493 640.901C152.093 641.014 151.724 641.24 151.384 641.58C151.045 641.919 150.815 642.292 150.694 642.7C150.581 643.115 150.577 643.526 150.683 643.933C150.804 644.34 151.034 644.714 151.373 645.053ZM153.252 651.526L155.3 650.881L155.753 651.152C155.632 651.197 155.515 651.216 155.402 651.209C155.296 651.209 155.202 651.167 155.119 651.084C154.961 650.926 154.878 650.715 154.87 650.451C154.878 650.187 154.979 649.957 155.176 649.761C155.394 649.542 155.647 649.433 155.934 649.433C156.228 649.425 156.484 649.531 156.703 649.749C156.899 649.945 156.997 650.194 156.997 650.496C157.005 650.79 156.899 651.047 156.68 651.265C156.597 651.348 156.477 651.431 156.318 651.514C156.175 651.597 155.964 651.68 155.685 651.763L153.524 652.431L153.252 651.526ZM162.251 658.262C161.723 657.734 161.369 657.13 161.188 656.452C161.014 655.78 161.014 655.109 161.188 654.438C161.376 653.766 161.731 653.171 162.251 652.65C162.779 652.122 163.375 651.768 164.039 651.587C164.71 651.413 165.378 651.417 166.041 651.598C166.72 651.779 167.323 652.133 167.851 652.661C168.266 653.076 168.572 653.54 168.768 654.053C168.972 654.558 169.054 655.086 169.017 655.637L167.659 655.637C167.689 655.275 167.633 654.924 167.489 654.585C167.361 654.245 167.154 653.932 166.867 653.646C166.528 653.306 166.147 653.084 165.724 652.978C165.31 652.865 164.891 652.869 164.469 652.99C164.046 653.11 163.658 653.348 163.303 653.702C162.949 654.057 162.711 654.445 162.591 654.868C162.47 655.29 162.462 655.712 162.568 656.135C162.674 656.557 162.896 656.938 163.235 657.277C163.522 657.564 163.831 657.775 164.163 657.911C164.51 658.047 164.868 658.103 165.238 658.081L165.227 659.427C164.691 659.465 164.163 659.382 163.643 659.178C163.13 658.982 162.666 658.677 162.251 658.262ZM169.246 665.03L172.38 661.896C172.787 661.489 172.995 661.025 173.002 660.505C173.01 659.984 172.81 659.52 172.402 659.113C172.131 658.842 171.829 658.661 171.497 658.57C171.166 658.48 170.834 658.48 170.502 658.57C170.17 658.661 169.868 658.842 169.597 659.113L169.416 658.457C169.823 658.05 170.276 657.778 170.773 657.642C171.271 657.507 171.773 657.51 172.278 657.654C172.791 657.789 173.251 658.061 173.658 658.468C174.066 658.876 174.333 659.324 174.462 659.815C174.597 660.312 174.594 660.814 174.45 661.319C174.307 661.825 174.024 662.289 173.602 662.711L170.264 666.048L169.246 665.03ZM165.445 661.229L173.523 653.151L174.541 654.169L166.463 662.247L165.445 661.229ZM173.815 669.826C173.325 669.335 173 668.77 172.842 668.129C172.691 667.48 172.71 666.827 172.899 666.171C173.095 665.523 173.457 664.934 173.985 664.406C174.513 663.878 175.101 663.516 175.75 663.32C176.406 663.132 177.055 663.109 177.696 663.252C178.344 663.403 178.917 663.727 179.415 664.225C179.823 664.633 180.098 665.081 180.241 665.572C180.4 666.062 180.426 666.556 180.32 667.054C180.222 667.544 179.989 667.997 179.619 668.411L178.001 670.029C177.594 670.391 177.141 670.625 176.643 670.731C176.153 670.844 175.659 670.825 175.161 670.674C174.679 670.523 174.23 670.24 173.815 669.826ZM174.946 669.034C175.452 669.539 176.029 669.777 176.677 669.746C177.334 669.709 177.929 669.422 178.465 668.887C178.835 668.517 179.083 668.125 179.212 667.71C179.355 667.295 179.374 666.884 179.268 666.477C179.17 666.062 178.951 665.685 178.612 665.345C178.273 665.006 177.892 664.783 177.469 664.678C177.055 664.58 176.632 664.595 176.202 664.723C175.787 664.851 175.403 665.093 175.048 665.447C174.686 665.809 174.437 666.201 174.302 666.624C174.181 667.046 174.173 667.469 174.279 667.891C174.384 668.313 174.607 668.694 174.946 669.034ZM175.716 671.5L177.164 670.052L178.669 668.932L179.777 667.438L181.09 666.126L182.119 667.156L176.745 672.53L175.716 671.5ZM179.823 675.833C179.521 675.532 179.272 675.207 179.076 674.861C178.895 674.514 178.763 674.155 178.68 673.786C178.605 673.409 178.586 673.035 178.624 672.666L179.936 672.666C179.891 673.103 179.936 673.51 180.072 673.888C180.215 674.257 180.445 674.6 180.762 674.917C181.079 675.234 181.377 675.426 181.656 675.494C181.942 675.554 182.184 675.487 182.38 675.29C182.576 675.094 182.655 674.872 182.617 674.623C182.595 674.374 182.508 674.106 182.357 673.82C182.214 673.525 182.052 673.22 181.871 672.903C181.705 672.586 181.569 672.262 181.463 671.93C181.358 671.598 181.331 671.263 181.384 670.923C181.445 670.591 181.637 670.263 181.961 669.939C182.286 669.615 182.644 669.415 183.036 669.339C183.436 669.256 183.839 669.29 184.247 669.441C184.661 669.6 185.069 669.879 185.468 670.278C185.891 670.701 186.189 671.15 186.362 671.625C186.551 672.1 186.604 672.59 186.521 673.096L185.208 673.096C185.254 672.749 185.216 672.409 185.095 672.077C184.982 671.753 184.786 671.451 184.507 671.172C184.213 670.878 183.934 670.705 183.67 670.652C183.421 670.599 183.206 670.663 183.025 670.844C182.844 671.025 182.772 671.233 182.81 671.466C182.847 671.7 182.942 671.96 183.093 672.247C183.251 672.541 183.413 672.847 183.579 673.163C183.753 673.473 183.888 673.797 183.986 674.136C184.084 674.476 184.1 674.815 184.032 675.155C183.971 675.502 183.775 675.841 183.443 676.173C182.938 676.678 182.357 676.897 181.701 676.829C181.052 676.769 180.426 676.437 179.823 675.833ZM183.067 678.852L188.441 673.478L189.459 674.496L184.085 679.87L183.067 678.852ZM190.025 672.912C189.837 672.723 189.742 672.508 189.742 672.267C189.75 672.018 189.848 671.799 190.036 671.611C190.218 671.43 190.429 671.339 190.67 671.339C190.919 671.332 191.138 671.422 191.326 671.611C191.515 671.799 191.605 672.018 191.598 672.267C191.598 672.508 191.507 672.719 191.326 672.901C191.138 673.089 190.919 673.187 190.67 673.195C190.429 673.195 190.214 673.1 190.025 672.912ZM189.387 685.172L192.521 682.038C192.929 681.631 193.136 681.167 193.144 680.646C193.151 680.126 192.951 679.662 192.544 679.255C192.272 678.983 191.971 678.802 191.639 678.712C191.307 678.621 190.975 678.621 190.643 678.712C190.311 678.802 190.01 678.983 189.738 679.255L189.557 678.598C189.964 678.191 190.417 677.92 190.915 677.784C191.413 677.648 191.914 677.652 192.42 677.795C192.932 677.931 193.393 678.202 193.8 678.61C194.207 679.017 194.464 679.477 194.569 679.99C194.682 680.51 194.663 681.027 194.513 681.54C194.369 682.045 194.113 682.483 193.743 682.852L190.406 686.19L189.387 685.172ZM185.586 681.37L190.96 675.996L191.978 677.015L186.604 682.389L185.586 681.37ZM191.649 692.162C191.098 691.611 190.709 691.019 190.483 690.386C190.264 689.76 190.212 689.134 190.325 688.508L191.649 688.496C191.588 688.994 191.637 689.465 191.796 689.91C191.946 690.363 192.229 690.797 192.644 691.212C193.195 691.762 193.775 692.049 194.386 692.071C194.997 692.109 195.548 691.883 196.038 691.393L197.373 690.058L198.765 689.028L199.783 687.648L201.197 686.234L202.216 687.252L197.056 692.411C196.544 692.924 195.974 693.252 195.348 693.395C194.73 693.546 194.096 693.516 193.447 693.305C192.806 693.101 192.207 692.72 191.649 692.162ZM194.104 689.707C193.613 689.217 193.289 688.658 193.131 688.032C192.98 687.414 192.995 686.788 193.176 686.154C193.364 685.513 193.715 684.936 194.228 684.423C194.741 683.91 195.31 683.567 195.936 683.394C196.57 683.213 197.196 683.198 197.814 683.349C198.448 683.499 199.01 683.82 199.5 684.31C199.923 684.733 200.213 685.189 200.371 685.679C200.53 686.169 200.552 686.66 200.439 687.15C200.341 687.64 200.1 688.093 199.715 688.508L198.29 689.933C197.875 690.303 197.419 690.54 196.921 690.646C196.438 690.751 195.951 690.725 195.461 690.567C194.971 690.408 194.518 690.122 194.104 689.707ZM195.269 688.949C195.601 689.281 195.963 689.499 196.355 689.605C196.755 689.718 197.151 689.714 197.543 689.594C197.943 689.465 198.316 689.228 198.663 688.881C199.01 688.534 199.24 688.161 199.353 687.761C199.481 687.361 199.493 686.965 199.387 686.573C199.289 686.173 199.07 685.804 198.731 685.464C198.391 685.125 198.018 684.902 197.611 684.797C197.211 684.684 196.804 684.684 196.389 684.797C195.989 684.91 195.62 685.136 195.28 685.476C194.941 685.815 194.711 686.188 194.59 686.596C194.477 687.01 194.473 687.421 194.579 687.829C194.699 688.236 194.929 688.609 195.269 688.949ZM199.117 695.127C198.906 694.916 198.8 694.667 198.8 694.381C198.815 694.094 198.924 693.849 199.128 693.645C199.339 693.434 199.581 693.328 199.852 693.328C200.139 693.328 200.388 693.434 200.599 693.645C200.81 693.856 200.912 694.101 200.904 694.381C200.912 694.66 200.81 694.905 200.599 695.116C200.395 695.32 200.146 695.425 199.852 695.433C199.573 695.44 199.328 695.338 199.117 695.127ZM202.398 698.409C202.187 698.197 202.081 697.949 202.081 697.662C202.096 697.375 202.206 697.13 202.409 696.927C202.621 696.715 202.862 696.61 203.134 696.61C203.42 696.61 203.669 696.715 203.88 696.927C204.091 697.138 204.193 697.383 204.186 697.662C204.193 697.941 204.091 698.186 203.88 698.397C203.677 698.601 203.428 698.707 203.134 698.714C202.854 698.722 202.609 698.62 202.398 698.409ZM205.68 701.69C205.468 701.479 205.363 701.23 205.363 700.943C205.378 700.657 205.487 700.412 205.691 700.208C205.902 699.997 206.143 699.891 206.415 699.891C206.702 699.891 206.95 699.997 207.162 700.208C207.373 700.419 207.475 700.664 207.467 700.943C207.475 701.222 207.373 701.468 207.162 701.679C206.958 701.882 206.709 701.988 206.415 701.996C206.136 702.003 205.891 701.901 205.68 701.69Z" fill="#BEA9DA"/>
<path d="M115.786 687.57L123.637 679.718L124.701 680.782L116.849 688.633L115.786 687.57ZM116.51 688.294L117.483 687.321L121.691 691.53L120.718 692.503L116.51 688.294ZM124.002 696.012C123.466 695.477 123.104 694.874 122.916 694.202C122.735 693.523 122.731 692.848 122.904 692.177C123.078 691.506 123.432 690.902 123.968 690.367C124.496 689.839 125.092 689.484 125.756 689.303C126.427 689.13 127.091 689.13 127.747 689.303C128.418 689.477 129.014 689.824 129.534 690.344C130.032 690.842 130.356 691.393 130.507 691.996C130.666 692.607 130.651 693.218 130.462 693.829C130.281 694.447 129.938 695.009 129.432 695.515C129.357 695.59 129.27 695.669 129.172 695.752C129.082 695.828 128.969 695.911 128.833 696.001L124.296 691.464L125.145 690.616L129.138 694.61L128.437 694.564C128.799 694.202 129.04 693.833 129.161 693.456C129.289 693.071 129.304 692.694 129.206 692.324C129.116 691.947 128.905 691.593 128.573 691.261C128.226 690.914 127.845 690.684 127.43 690.571C127.015 690.457 126.6 690.465 126.185 690.593C125.771 690.721 125.378 690.97 125.009 691.34C124.632 691.717 124.375 692.124 124.239 692.562C124.111 692.992 124.107 693.425 124.228 693.863C124.356 694.293 124.602 694.689 124.964 695.051C125.265 695.352 125.593 695.575 125.948 695.718C126.31 695.869 126.687 695.929 127.079 695.899L127.068 697.223C126.51 697.268 125.963 697.182 125.427 696.963C124.899 696.752 124.424 696.435 124.002 696.012ZM131.493 703.277L134.627 700.143C135.034 699.736 135.242 699.272 135.249 698.752C135.257 698.231 135.057 697.768 134.65 697.36C134.378 697.089 134.076 696.908 133.745 696.817C133.413 696.727 133.081 696.727 132.749 696.817C132.417 696.908 132.115 697.089 131.844 697.36L131.663 696.704C132.07 696.297 132.523 696.025 133.02 695.89C133.518 695.754 134.02 695.758 134.525 695.901C135.038 696.037 135.498 696.308 135.905 696.715C136.313 697.123 136.569 697.583 136.675 698.096C136.788 698.616 136.769 699.133 136.618 699.646C136.475 700.151 136.218 700.588 135.849 700.958L132.511 704.296L131.493 703.277ZM127.692 699.476L133.066 694.102L134.084 695.12L128.71 700.494L127.692 699.476ZM133.754 710.268C133.204 709.717 132.815 709.125 132.589 708.491C132.37 707.865 132.317 707.239 132.43 706.613L133.754 706.602C133.694 707.1 133.743 707.571 133.901 708.016C134.052 708.469 134.335 708.902 134.75 709.317C135.3 709.868 135.881 710.154 136.492 710.177C137.103 710.215 137.654 709.988 138.144 709.498L139.479 708.163L140.87 707.134L141.889 705.753L143.303 704.339L144.321 705.357L139.162 710.516C138.649 711.029 138.08 711.357 137.454 711.501C136.835 711.652 136.202 711.621 135.553 711.41C134.912 711.207 134.312 710.826 133.754 710.268ZM136.209 707.812C135.719 707.322 135.395 706.764 135.236 706.138C135.085 705.52 135.1 704.894 135.281 704.26C135.47 703.619 135.821 703.042 136.334 702.529C136.847 702.016 137.416 701.673 138.042 701.499C138.676 701.318 139.302 701.303 139.92 701.454C140.554 701.605 141.116 701.926 141.606 702.416C142.028 702.838 142.319 703.295 142.477 703.785C142.635 704.275 142.658 704.765 142.545 705.256C142.447 705.746 142.205 706.198 141.821 706.613L140.395 708.039C139.98 708.408 139.524 708.646 139.026 708.752C138.544 708.857 138.057 708.831 137.567 708.672C137.077 708.514 136.624 708.227 136.209 707.812ZM137.375 707.054C137.706 707.386 138.068 707.605 138.461 707.711C138.86 707.824 139.256 707.82 139.649 707.699C140.048 707.571 140.422 707.334 140.769 706.987C141.116 706.64 141.346 706.266 141.459 705.867C141.587 705.467 141.598 705.071 141.493 704.679C141.395 704.279 141.176 703.909 140.837 703.57C140.497 703.23 140.124 703.008 139.716 702.902C139.317 702.789 138.909 702.789 138.495 702.902C138.095 703.015 137.725 703.242 137.386 703.581C137.046 703.921 136.816 704.294 136.696 704.701C136.583 705.116 136.579 705.527 136.684 705.934C136.805 706.342 137.035 706.715 137.375 707.054ZM141.268 713.052L148.893 705.426L149.911 706.445L142.286 714.07L141.268 713.052ZM144.39 707.282L145.318 706.354L148.984 710.02L148.056 710.948L144.39 707.282ZM148.408 720.193L151.542 717.059C151.95 716.651 152.157 716.188 152.165 715.667C152.172 715.147 151.972 714.683 151.565 714.276C151.293 714.004 150.992 713.823 150.66 713.733C150.328 713.642 149.996 713.642 149.664 713.733C149.332 713.823 149.031 714.004 148.759 714.276L148.578 713.619C148.985 713.212 149.438 712.941 149.936 712.805C150.434 712.669 150.935 712.673 151.44 712.816C151.953 712.952 152.413 713.223 152.821 713.631C153.228 714.038 153.496 714.487 153.624 714.977C153.76 715.475 153.756 715.976 153.613 716.482C153.469 716.987 153.187 717.451 152.764 717.873L149.427 721.211L148.408 720.193ZM144.607 716.391L152.685 708.313L153.703 709.332L145.625 717.41L144.607 716.391ZM152.525 724.4L155.614 716.65L156.745 717.781L154.233 723.755L153.871 723.393L159.935 720.972L161.067 722.103L153.136 725.011L152.525 724.4ZM148.78 725.067L153.611 723.404L153.136 725.011L149.911 726.199L148.78 725.067ZM161.685 733.696C161.278 733.289 160.991 732.836 160.826 732.338C160.675 731.84 160.652 731.343 160.758 730.845C160.863 730.347 161.097 729.895 161.459 729.487L163.077 727.869C163.492 727.5 163.944 727.266 164.435 727.168C164.94 727.07 165.438 727.1 165.928 727.258C166.433 727.417 166.886 727.696 167.286 728.096C167.776 728.586 168.093 729.152 168.236 729.793C168.387 730.441 168.364 731.09 168.168 731.739C167.972 732.387 167.61 732.976 167.082 733.504C166.554 734.032 165.966 734.394 165.317 734.59C164.668 734.786 164.02 734.808 163.371 734.658C162.738 734.507 162.176 734.186 161.685 733.696ZM158.97 730.754L167.048 722.676L168.066 723.695L164.05 727.711L162.557 728.82L161.436 730.324L159.988 731.773L158.97 730.754ZM162.477 732.565C162.817 732.904 163.194 733.123 163.609 733.221C164.024 733.319 164.442 733.308 164.865 733.187C165.294 733.059 165.69 732.813 166.052 732.451C166.407 732.097 166.648 731.705 166.777 731.275C166.905 730.845 166.916 730.426 166.811 730.019C166.712 729.604 166.497 729.231 166.166 728.899C165.826 728.56 165.449 728.341 165.034 728.243C164.627 728.137 164.212 728.152 163.79 728.288C163.367 728.424 162.975 728.673 162.613 729.035C162.259 729.389 162.01 729.774 161.866 730.189C161.738 730.604 161.723 731.018 161.821 731.433C161.927 731.856 162.145 732.233 162.477 732.565ZM167.727 739.738C167.237 739.248 166.913 738.682 166.754 738.041C166.603 737.392 166.622 736.74 166.811 736.083C167.007 735.435 167.369 734.847 167.897 734.319C168.425 733.791 169.013 733.429 169.662 733.232C170.318 733.044 170.967 733.021 171.608 733.165C172.257 733.315 172.83 733.64 173.328 734.138C173.735 734.545 174.01 734.994 174.153 735.484C174.312 735.974 174.338 736.468 174.233 736.966C174.135 737.456 173.901 737.909 173.531 738.324L171.913 739.941C171.506 740.304 171.053 740.537 170.556 740.643C170.065 740.756 169.571 740.737 169.074 740.586C168.591 740.435 168.142 740.153 167.727 739.738ZM168.859 738.946C169.364 739.451 169.941 739.689 170.59 739.659C171.246 739.621 171.842 739.334 172.377 738.799C172.747 738.429 172.996 738.037 173.124 737.622C173.267 737.207 173.286 736.796 173.18 736.389C173.082 735.974 172.864 735.597 172.524 735.258C172.185 734.918 171.804 734.696 171.382 734.59C170.967 734.492 170.544 734.507 170.114 734.635C169.7 734.764 169.315 735.005 168.96 735.359C168.598 735.721 168.35 736.114 168.214 736.536C168.093 736.958 168.086 737.381 168.191 737.803C168.297 738.226 168.519 738.606 168.859 738.946ZM169.628 741.412L171.076 739.964L172.581 738.844L173.69 737.351L175.002 736.038L176.032 737.068L170.658 742.442L169.628 741.412ZM174.482 746.492C173.954 745.964 173.599 745.361 173.418 744.682C173.245 744.011 173.245 743.34 173.418 742.668C173.607 741.997 173.961 741.401 174.482 740.881C175.01 740.353 175.606 739.998 176.269 739.817C176.941 739.644 177.608 739.648 178.272 739.829C178.951 740.01 179.554 740.364 180.082 740.892C180.497 741.307 180.802 741.771 180.999 742.284C181.202 742.789 181.285 743.317 181.248 743.868L179.89 743.868C179.92 743.506 179.863 743.155 179.72 742.815C179.592 742.476 179.385 742.163 179.098 741.876C178.758 741.537 178.378 741.315 177.955 741.209C177.54 741.096 177.122 741.1 176.699 741.22C176.277 741.341 175.889 741.579 175.534 741.933C175.18 742.288 174.942 742.676 174.821 743.098C174.701 743.521 174.693 743.943 174.799 744.365C174.904 744.788 175.127 745.169 175.466 745.508C175.753 745.795 176.062 746.006 176.394 746.142C176.741 746.277 177.099 746.334 177.469 746.311L177.457 747.658C176.922 747.695 176.394 747.613 175.873 747.409C175.361 747.213 174.897 746.907 174.482 746.492ZM181.115 752.899L181.352 747.638L186.466 747.502L187.699 748.735L182.031 748.86L182.665 748.317L182.427 754.211L181.115 752.899ZM177.675 749.46L185.753 741.382L186.772 742.4L178.694 750.478L177.675 749.46ZM187.836 759.846C187.345 759.356 187.021 758.79 186.863 758.149C186.712 757.5 186.731 756.848 186.919 756.192C187.115 755.543 187.477 754.955 188.005 754.427C188.533 753.899 189.122 753.537 189.77 753.341C190.426 753.152 191.075 753.13 191.716 753.273C192.365 753.424 192.938 753.748 193.436 754.246C193.843 754.653 194.118 755.102 194.262 755.592C194.42 756.082 194.447 756.577 194.341 757.074C194.243 757.565 194.009 758.017 193.64 758.432L192.022 760.05C191.614 760.412 191.162 760.646 190.664 760.751C190.174 760.864 189.68 760.846 189.182 760.695C188.699 760.544 188.25 760.261 187.836 759.846ZM188.967 759.054C189.472 759.56 190.049 759.797 190.698 759.767C191.354 759.729 191.95 759.443 192.486 758.907C192.855 758.538 193.104 758.145 193.232 757.731C193.376 757.316 193.394 756.905 193.289 756.497C193.191 756.082 192.972 755.705 192.633 755.366C192.293 755.027 191.912 754.804 191.49 754.698C191.075 754.6 190.653 754.615 190.223 754.744C189.808 754.872 189.423 755.113 189.069 755.468C188.707 755.83 188.458 756.222 188.322 756.644C188.201 757.067 188.194 757.489 188.299 757.912C188.405 758.334 188.628 758.715 188.967 759.054ZM189.736 761.521L191.184 760.072L192.689 758.952L193.798 757.459L195.11 756.147L196.14 757.176L190.766 762.55L189.736 761.521ZM196.05 767.834L199.184 764.7C199.591 764.293 199.798 763.829 199.806 763.309C199.813 762.788 199.614 762.324 199.206 761.917C198.935 761.645 198.633 761.464 198.301 761.374C197.969 761.283 197.637 761.283 197.306 761.374C196.974 761.464 196.672 761.645 196.4 761.917L196.219 761.261C196.627 760.853 197.079 760.582 197.577 760.446C198.075 760.31 198.576 760.314 199.082 760.457C199.595 760.593 200.055 760.865 200.462 761.272C200.869 761.679 201.126 762.139 201.231 762.652C201.345 763.173 201.326 763.689 201.175 764.202C201.032 764.708 200.775 765.145 200.405 765.515L197.068 768.852L196.05 767.834ZM192.248 764.033L197.622 758.659L198.641 759.677L193.267 765.051L192.248 764.033ZM200.607 772.618C200.11 772.12 199.785 771.555 199.634 770.921C199.491 770.28 199.514 769.631 199.702 768.975C199.898 768.326 200.261 767.738 200.788 767.21C201.316 766.682 201.905 766.32 202.553 766.124C203.21 765.935 203.858 765.913 204.499 766.056C205.14 766.199 205.71 766.52 206.208 767.018C206.608 767.417 206.883 767.866 207.034 768.364C207.192 768.854 207.218 769.348 207.113 769.846C207.022 770.344 206.792 770.8 206.423 771.215L204.805 772.833C204.398 773.195 203.945 773.429 203.447 773.534C202.949 773.64 202.452 773.617 201.954 773.467C201.464 773.308 201.015 773.025 200.607 772.618ZM201.739 771.826C202.078 772.165 202.452 772.38 202.859 772.471C203.274 772.569 203.689 772.554 204.103 772.426C204.526 772.29 204.914 772.045 205.269 771.69C205.638 771.321 205.883 770.925 206.004 770.502C206.132 770.088 206.147 769.673 206.049 769.258C205.959 768.851 205.744 768.477 205.404 768.138C205.065 767.798 204.688 767.58 204.273 767.482C203.858 767.384 203.436 767.399 203.006 767.527C202.591 767.655 202.206 767.896 201.852 768.251C201.49 768.613 201.241 769.005 201.105 769.428C200.985 769.85 200.973 770.269 201.071 770.683C201.177 771.106 201.399 771.487 201.739 771.826ZM203.549 775.333L202.519 774.304L203.968 772.856L205.472 771.736L206.581 770.242L210.597 766.226L211.627 767.255L203.549 775.333ZM208.154 779.938L214.331 773.761C214.731 773.361 215.165 773.101 215.633 772.98C216.108 772.852 216.583 772.852 217.058 772.98C217.541 773.116 217.986 773.388 218.393 773.795C218.702 774.104 218.917 774.425 219.038 774.757C219.159 775.089 219.211 775.451 219.196 775.843L217.873 775.832C217.88 775.628 217.85 775.439 217.782 775.266C217.722 775.085 217.605 774.908 217.431 774.734C217.107 774.41 216.76 774.251 216.391 774.259C216.028 774.274 215.682 774.448 215.35 774.779L209.172 780.957L208.154 779.938ZM211.277 774.168L212.204 773.241L216.255 777.291L215.327 778.219L211.277 774.168ZM213.936 785.947C213.408 785.419 213.058 784.819 212.884 784.148C212.711 783.477 212.711 782.805 212.884 782.134C213.065 781.455 213.42 780.852 213.948 780.324C214.468 779.803 215.06 779.46 215.724 779.294C216.395 779.121 217.066 779.121 217.738 779.294C218.409 779.468 219.009 779.819 219.537 780.347C220.057 780.867 220.404 781.463 220.577 782.134C220.766 782.805 220.774 783.477 220.6 784.148C220.427 784.819 220.08 785.415 219.559 785.935C219.031 786.463 218.428 786.818 217.749 786.999C217.078 787.172 216.403 787.169 215.724 786.988C215.053 786.814 214.457 786.467 213.936 785.947ZM214.921 784.963C215.26 785.302 215.641 785.524 216.063 785.63C216.486 785.736 216.908 785.728 217.33 785.607C217.76 785.479 218.152 785.238 218.507 784.883C218.854 784.536 219.084 784.148 219.197 783.718C219.318 783.296 219.322 782.877 219.208 782.462C219.11 782.047 218.892 781.67 218.552 781.331C218.213 780.991 217.832 780.769 217.41 780.663C216.995 780.55 216.576 780.554 216.154 780.675C215.731 780.795 215.347 781.029 215 781.376C214.645 781.731 214.404 782.123 214.276 782.553C214.155 782.975 214.147 783.397 214.253 783.82C214.359 784.242 214.581 784.623 214.921 784.963ZM218.002 789.787L223.376 784.413L224.395 785.431L219.021 790.805L218.002 789.787ZM222.087 787.739L221.872 787.185C222.558 786.498 223.263 786.11 223.987 786.019C224.711 785.929 225.371 786.181 225.967 786.777C226.239 787.049 226.435 787.343 226.556 787.66C226.684 787.969 226.733 788.327 226.703 788.735L225.345 788.757C225.353 788.523 225.315 788.312 225.232 788.124C225.149 787.935 225.017 787.75 224.836 787.569C224.459 787.192 224.029 787.004 223.546 787.004C223.063 787.004 222.577 787.249 222.087 787.739ZM223.358 795.143L230.984 787.517L232.002 788.535L224.377 796.161L223.358 795.143ZM226.481 789.373L227.409 788.445L231.074 792.11L230.146 793.038L226.481 789.373ZM230.499 802.283L233.633 799.149C234.04 798.742 234.248 798.278 234.255 797.758C234.263 797.237 234.063 796.774 233.656 796.366C233.384 796.095 233.082 795.914 232.751 795.823C232.419 795.733 232.087 795.733 231.755 795.823C231.423 795.914 231.121 796.095 230.85 796.366L230.669 795.71C231.076 795.303 231.529 795.031 232.026 794.896C232.524 794.76 233.026 794.764 233.531 794.907C234.044 795.043 234.504 795.314 234.911 795.721C235.319 796.129 235.586 796.577 235.715 797.068C235.85 797.566 235.847 798.067 235.703 798.572C235.56 799.078 235.277 799.542 234.855 799.964L231.517 803.302L230.499 802.283ZM226.698 798.482L234.776 790.404L235.794 791.422L227.716 799.5L226.698 798.482ZM233.677 805.687C233.465 805.476 233.36 805.227 233.36 804.94C233.375 804.654 233.484 804.409 233.688 804.205C233.899 803.994 234.14 803.888 234.412 803.888C234.699 803.888 234.947 803.994 235.159 804.205C235.37 804.416 235.472 804.661 235.464 804.94C235.472 805.219 235.37 805.465 235.159 805.676C234.955 805.879 234.706 805.985 234.412 805.993C234.133 806 233.888 805.898 233.677 805.687ZM236.958 808.969C236.747 808.757 236.641 808.508 236.641 808.222C236.656 807.935 236.766 807.69 236.969 807.486C237.18 807.275 237.422 807.17 237.693 807.17C237.98 807.17 238.229 807.275 238.44 807.486C238.651 807.698 238.753 807.943 238.746 808.222C238.753 808.501 238.651 808.746 238.44 808.957C238.236 809.161 237.988 809.266 237.693 809.274C237.414 809.282 237.169 809.18 236.958 808.969ZM240.239 812.25C240.028 812.039 239.923 811.79 239.923 811.503C239.938 811.217 240.047 810.971 240.251 810.768C240.462 810.557 240.703 810.451 240.975 810.451C241.261 810.451 241.51 810.557 241.721 810.768C241.933 810.979 242.034 811.224 242.027 811.503C242.034 811.782 241.933 812.027 241.721 812.239C241.518 812.442 241.269 812.548 240.975 812.555C240.696 812.563 240.451 812.461 240.239 812.25Z" fill="#BEA9DA"/>
<path d="M115.786 766.57L123.637 758.718L124.384 759.465L122.246 768.256L121.737 767.746L130.527 765.608L131.274 766.355L123.422 774.207L122.359 773.143L128.344 767.158L128.525 767.475L121.59 769.161L120.843 768.414L122.529 761.479L122.834 761.648L116.849 767.633L115.786 766.57ZM127.437 778.448C126.909 777.92 126.559 777.32 126.385 776.649C126.212 775.978 126.212 775.306 126.385 774.635C126.566 773.956 126.921 773.353 127.449 772.825C127.969 772.304 128.561 771.961 129.225 771.795C129.896 771.622 130.567 771.622 131.239 771.795C131.91 771.969 132.51 772.319 133.037 772.847C133.558 773.368 133.905 773.964 134.078 774.635C134.267 775.306 134.274 775.978 134.101 776.649C133.928 777.32 133.581 777.916 133.06 778.436C132.532 778.964 131.929 779.319 131.25 779.5C130.579 779.673 129.904 779.67 129.225 779.489C128.553 779.315 127.958 778.968 127.437 778.448ZM128.421 777.463C128.761 777.803 129.142 778.025 129.564 778.131C129.987 778.237 130.409 778.229 130.831 778.108C131.261 777.98 131.653 777.739 132.008 777.384C132.355 777.037 132.585 776.649 132.698 776.219C132.819 775.797 132.823 775.378 132.709 774.963C132.611 774.548 132.393 774.171 132.053 773.832C131.714 773.492 131.333 773.27 130.911 773.164C130.496 773.051 130.077 773.055 129.655 773.176C129.232 773.296 128.848 773.53 128.501 773.877C128.146 774.232 127.905 774.624 127.777 775.054C127.656 775.476 127.648 775.898 127.754 776.321C127.86 776.743 128.082 777.124 128.421 777.463ZM131.503 782.288L136.877 776.914L137.896 777.932L132.522 783.306L131.503 782.288ZM135.588 780.24L135.373 779.686C136.059 778.999 136.764 778.611 137.488 778.52C138.212 778.43 138.872 778.682 139.468 779.278C139.74 779.55 139.936 779.844 140.057 780.161C140.185 780.47 140.234 780.828 140.204 781.236L138.846 781.258C138.854 781.024 138.816 780.813 138.733 780.625C138.65 780.436 138.518 780.251 138.337 780.07C137.96 779.693 137.53 779.505 137.047 779.505C136.564 779.505 136.078 779.75 135.588 780.24ZM138.243 789.254C137.708 788.719 137.346 788.115 137.157 787.444C136.976 786.765 136.973 786.09 137.146 785.419C137.32 784.747 137.674 784.144 138.21 783.608C138.738 783.081 139.333 782.726 139.997 782.545C140.668 782.372 141.332 782.372 141.988 782.545C142.66 782.718 143.255 783.065 143.776 783.586C144.274 784.084 144.598 784.634 144.749 785.238C144.907 785.849 144.892 786.46 144.704 787.07C144.523 787.689 144.179 788.251 143.674 788.756C143.599 788.832 143.512 788.911 143.414 788.994C143.323 789.069 143.21 789.152 143.074 789.243L138.538 784.706L139.386 783.857L143.38 787.851L142.678 787.806C143.04 787.444 143.282 787.074 143.403 786.697C143.531 786.312 143.546 785.935 143.448 785.566C143.357 785.189 143.146 784.834 142.814 784.502C142.467 784.155 142.086 783.925 141.672 783.812C141.257 783.699 140.842 783.707 140.427 783.835C140.012 783.963 139.62 784.212 139.25 784.581C138.873 784.959 138.617 785.366 138.481 785.803C138.353 786.233 138.349 786.667 138.47 787.104C138.598 787.534 138.843 787.93 139.205 788.292C139.507 788.594 139.835 788.817 140.189 788.96C140.551 789.111 140.929 789.171 141.321 789.141L141.309 790.465C140.751 790.51 140.205 790.423 139.669 790.204C139.141 789.993 138.666 789.676 138.243 789.254ZM145.825 796.61L149.072 789.109L150.136 790.172L147.488 795.897L147.149 795.557L152.862 792.899L153.451 793.487L150.792 799.2L150.453 798.861L156.177 796.214L157.241 797.277L149.751 800.535L149.151 799.936L151.663 794.324L152.036 794.698L146.414 797.198L145.825 796.61ZM154.789 805.8C154.299 805.31 153.975 804.744 153.816 804.103C153.666 803.454 153.684 802.802 153.873 802.146C154.069 801.497 154.431 800.909 154.959 800.381C155.487 799.853 156.075 799.491 156.724 799.295C157.38 799.106 158.029 799.083 158.67 799.227C159.319 799.378 159.892 799.702 160.39 800.2C160.797 800.607 161.072 801.056 161.216 801.546C161.374 802.036 161.4 802.53 161.295 803.028C161.197 803.518 160.963 803.971 160.593 804.386L158.975 806.004C158.568 806.366 158.116 806.599 157.618 806.705C157.128 806.818 156.634 806.799 156.136 806.648C155.653 806.498 155.204 806.215 154.789 805.8ZM155.921 805.008C156.426 805.513 157.003 805.751 157.652 805.721C158.308 805.683 158.904 805.396 159.439 804.861C159.809 804.491 160.058 804.099 160.186 803.684C160.329 803.269 160.348 802.858 160.243 802.451C160.145 802.036 159.926 801.659 159.586 801.32C159.247 800.98 158.866 800.758 158.444 800.652C158.029 800.554 157.607 800.569 157.177 800.697C156.762 800.826 156.377 801.067 156.023 801.422C155.661 801.784 155.412 802.176 155.276 802.598C155.155 803.021 155.148 803.443 155.253 803.865C155.359 804.288 155.581 804.669 155.921 805.008ZM156.69 807.474L158.138 806.026L159.643 804.906L160.752 803.413L162.064 802.1L163.094 803.13L157.72 808.504L156.69 807.474ZM159.213 809.998L164.587 804.624L165.606 805.642L160.232 811.016L159.213 809.998ZM166.171 804.058C165.983 803.869 165.889 803.654 165.889 803.413C165.896 803.164 165.994 802.945 166.183 802.757C166.364 802.576 166.575 802.485 166.816 802.485C167.065 802.478 167.284 802.568 167.472 802.757C167.661 802.945 167.752 803.164 167.744 803.413C167.744 803.654 167.653 803.866 167.472 804.047C167.284 804.235 167.065 804.333 166.816 804.341C166.575 804.341 166.36 804.247 166.171 804.058ZM162.558 813.342L170.184 805.717L171.202 806.735L163.576 814.361L162.558 813.342ZM165.681 807.572L166.608 806.645L170.274 810.31L169.346 811.238L165.681 807.572ZM165.909 816.693L171.283 811.319L172.301 812.337L166.927 817.711L165.909 816.693ZM172.867 810.753C172.678 810.565 172.584 810.35 172.584 810.109C172.591 809.86 172.69 809.641 172.878 809.452C173.059 809.271 173.27 809.181 173.512 809.181C173.761 809.173 173.979 809.264 174.168 809.452C174.356 809.641 174.447 809.86 174.439 810.109C174.439 810.35 174.349 810.561 174.168 810.742C173.979 810.931 173.761 811.029 173.512 811.036C173.27 811.036 173.055 810.942 172.867 810.753ZM172.229 823.013L175.363 819.879C175.77 819.472 175.978 819.008 175.985 818.488C175.993 817.967 175.793 817.504 175.386 817.096C175.114 816.825 174.812 816.644 174.48 816.553C174.149 816.463 173.817 816.463 173.485 816.553C173.153 816.644 172.851 816.825 172.58 817.096L172.399 816.44C172.806 816.033 173.259 815.761 173.756 815.625C174.254 815.49 174.756 815.493 175.261 815.637C175.774 815.773 176.234 816.044 176.641 816.451C177.049 816.859 177.305 817.319 177.411 817.832C177.524 818.352 177.505 818.869 177.354 819.382C177.211 819.887 176.954 820.324 176.585 820.694L173.247 824.032L172.229 823.013ZM168.428 819.212L173.802 813.838L174.82 814.856L169.446 820.23L168.428 819.212ZM174.49 830.004C173.94 829.453 173.551 828.861 173.325 828.227C173.106 827.601 173.053 826.975 173.166 826.349L174.49 826.338C174.43 826.836 174.479 827.307 174.637 827.752C174.788 828.205 175.071 828.638 175.486 829.053C176.036 829.604 176.617 829.89 177.228 829.913C177.839 829.951 178.39 829.724 178.88 829.234L180.215 827.899L181.606 826.87L182.625 825.489L184.039 824.075L185.057 825.093L179.898 830.252C179.385 830.765 178.816 831.093 178.19 831.237C177.571 831.388 176.938 831.357 176.289 831.146C175.648 830.943 175.048 830.562 174.49 830.004ZM176.945 827.548C176.455 827.058 176.131 826.5 175.972 825.874C175.821 825.256 175.836 824.63 176.017 823.996C176.206 823.355 176.557 822.778 177.07 822.265C177.583 821.752 178.152 821.409 178.778 821.235C179.412 821.054 180.038 821.039 180.656 821.19C181.29 821.341 181.852 821.662 182.342 822.152C182.764 822.574 183.055 823.031 183.213 823.521C183.371 824.011 183.394 824.501 183.281 824.992C183.183 825.482 182.941 825.934 182.557 826.349L181.131 827.775C180.716 828.144 180.26 828.382 179.762 828.487C179.28 828.593 178.793 828.567 178.303 828.408C177.813 828.25 177.36 827.963 176.945 827.548ZM178.111 826.79C178.442 827.122 178.804 827.341 179.197 827.447C179.596 827.56 179.992 827.556 180.385 827.435C180.784 827.307 181.158 827.07 181.505 826.723C181.852 826.376 182.082 826.002 182.195 825.602C182.323 825.203 182.334 824.807 182.229 824.415C182.131 824.015 181.912 823.645 181.573 823.306C181.233 822.966 180.86 822.744 180.452 822.638C180.053 822.525 179.645 822.525 179.231 822.638C178.831 822.751 178.461 822.978 178.122 823.317C177.782 823.657 177.552 824.03 177.432 824.437C177.319 824.852 177.315 825.263 177.42 825.67C177.541 826.078 177.771 826.451 178.111 826.79ZM181.958 832.969C181.747 832.758 181.642 832.509 181.642 832.222C181.657 831.936 181.766 831.69 181.97 831.487C182.181 831.276 182.422 831.17 182.694 831.17C182.98 831.17 183.229 831.276 183.44 831.487C183.652 831.698 183.753 831.943 183.746 832.222C183.753 832.501 183.652 832.746 183.44 832.958C183.237 833.161 182.988 833.267 182.694 833.274C182.415 833.282 182.17 833.18 181.958 832.969ZM185.24 836.25C185.029 836.039 184.923 835.79 184.923 835.504C184.938 835.217 185.047 834.972 185.251 834.768C185.462 834.557 185.704 834.451 185.975 834.451C186.262 834.451 186.511 834.557 186.722 834.768C186.933 834.979 187.035 835.225 187.027 835.504C187.035 835.783 186.933 836.028 186.722 836.239C186.518 836.443 186.269 836.548 185.975 836.556C185.696 836.563 185.451 836.461 185.24 836.25ZM188.521 839.532C188.31 839.321 188.204 839.072 188.204 838.785C188.219 838.498 188.329 838.253 188.532 838.05C188.744 837.838 188.985 837.733 189.257 837.733C189.543 837.733 189.792 837.838 190.003 838.05C190.214 838.261 190.316 838.506 190.309 838.785C190.316 839.064 190.214 839.309 190.003 839.52C189.8 839.724 189.551 839.83 189.257 839.837C188.977 839.845 188.732 839.743 188.521 839.532Z" fill="#BEA9DA"/>
<path d="M115.209 846.993L126.273 842.354L127.043 843.124L122.393 854.177L121.239 853.023L125.244 843.746L125.64 844.142L116.34 848.124L115.209 846.993ZM118.512 846.744L119.44 845.816L123.569 849.946L122.642 850.873L118.512 846.744ZM126.197 858.208C125.79 857.801 125.504 857.348 125.338 856.85C125.187 856.353 125.164 855.855 125.27 855.357C125.375 854.859 125.609 854.407 125.971 853.999L127.589 852.381C128.004 852.012 128.456 851.778 128.947 851.68C129.452 851.582 129.95 851.612 130.44 851.771C130.945 851.929 131.398 852.208 131.798 852.608C132.288 853.098 132.605 853.664 132.748 854.305C132.899 854.953 132.876 855.602 132.68 856.251C132.484 856.899 132.122 857.488 131.594 858.016C131.066 858.544 130.478 858.906 129.829 859.102C129.181 859.298 128.532 859.321 127.883 859.17C127.25 859.019 126.688 858.698 126.197 858.208ZM121.231 857.518L128.856 849.892L129.874 850.911L128.46 852.325L126.967 853.434L125.847 854.938L122.249 858.536L121.231 857.518ZM126.989 857.077C127.329 857.416 127.706 857.635 128.121 857.733C128.536 857.831 128.954 857.82 129.377 857.699C129.807 857.571 130.203 857.326 130.565 856.964C130.919 856.609 131.16 856.217 131.289 855.787C131.417 855.357 131.428 854.938 131.323 854.531C131.225 854.116 131.01 853.743 130.678 853.411C130.338 853.072 129.961 852.853 129.546 852.755C129.139 852.649 128.724 852.664 128.302 852.8C127.879 852.936 127.487 853.185 127.125 853.547C126.771 853.901 126.522 854.286 126.378 854.701C126.25 855.116 126.235 855.53 126.333 855.945C126.439 856.368 126.658 856.745 126.989 857.077ZM132.782 864.793C132.375 864.386 132.088 863.933 131.923 863.435C131.772 862.938 131.749 862.44 131.855 861.942C131.96 861.444 132.194 860.992 132.556 860.584L134.174 858.966C134.589 858.597 135.041 858.363 135.532 858.265C136.037 858.167 136.535 858.197 137.025 858.355C137.53 858.514 137.983 858.793 138.383 859.193C138.873 859.683 139.19 860.249 139.333 860.89C139.484 861.538 139.461 862.187 139.265 862.836C139.069 863.484 138.707 864.073 138.179 864.601C137.651 865.129 137.063 865.491 136.414 865.687C135.765 865.883 135.117 865.905 134.468 865.755C133.835 865.604 133.273 865.283 132.782 864.793ZM127.816 864.103L135.441 856.477L136.459 857.496L135.045 858.91L133.552 860.019L132.432 861.523L128.834 865.121L127.816 864.103ZM133.574 863.662C133.914 864.001 134.291 864.22 134.706 864.318C135.121 864.416 135.539 864.405 135.962 864.284C136.391 864.156 136.787 863.91 137.149 863.548C137.504 863.194 137.745 862.802 137.874 862.372C138.002 861.942 138.013 861.523 137.908 861.116C137.809 860.701 137.594 860.328 137.263 859.996C136.923 859.657 136.546 859.438 136.131 859.34C135.724 859.234 135.309 859.249 134.887 859.385C134.464 859.521 134.072 859.77 133.71 860.132C133.356 860.486 133.107 860.871 132.963 861.286C132.835 861.701 132.82 862.115 132.918 862.53C133.024 862.953 133.242 863.33 133.574 863.662ZM136.652 868.436L142.026 863.062L143.044 864.081L137.67 869.455L136.652 868.436ZM140.736 866.389L140.521 865.834C141.208 865.148 141.913 864.759 142.637 864.669C143.361 864.578 144.021 864.831 144.617 865.427C144.888 865.698 145.085 865.993 145.205 866.309C145.333 866.619 145.382 866.977 145.352 867.384L143.995 867.407C144.002 867.173 143.964 866.962 143.882 866.773C143.799 866.585 143.667 866.4 143.486 866.219C143.108 865.842 142.678 865.653 142.196 865.653C141.713 865.653 141.227 865.898 140.736 866.389ZM143.358 875.369C142.83 874.841 142.479 874.241 142.306 873.57C142.133 872.899 142.133 872.227 142.306 871.556C142.487 870.877 142.841 870.274 143.369 869.746C143.89 869.225 144.482 868.882 145.146 868.716C145.817 868.543 146.488 868.543 147.16 868.716C147.831 868.89 148.43 869.24 148.958 869.768C149.479 870.289 149.826 870.885 149.999 871.556C150.188 872.227 150.195 872.899 150.022 873.57C149.848 874.241 149.501 874.837 148.981 875.357C148.453 875.885 147.85 876.24 147.171 876.421C146.5 876.594 145.825 876.591 145.146 876.41C144.474 876.236 143.879 875.889 143.358 875.369ZM144.342 874.384C144.682 874.724 145.063 874.946 145.485 875.052C145.908 875.158 146.33 875.15 146.752 875.029C147.182 874.901 147.574 874.66 147.929 874.305C148.276 873.958 148.506 873.57 148.619 873.14C148.74 872.718 148.743 872.299 148.63 871.884C148.532 871.469 148.314 871.092 147.974 870.753C147.635 870.413 147.254 870.191 146.831 870.085C146.417 869.972 145.998 869.976 145.576 870.097C145.153 870.217 144.769 870.451 144.422 870.798C144.067 871.152 143.826 871.545 143.698 871.975C143.577 872.397 143.569 872.819 143.675 873.242C143.781 873.664 144.003 874.045 144.342 874.384ZM149.07 880.854L151.977 873.014L153.109 874.145L150.552 880.662L149.896 880.005L156.424 877.46L157.51 878.546L149.669 881.454L149.07 880.854ZM154.977 886.988C154.487 886.498 154.163 885.932 154.004 885.291C153.853 884.642 153.872 883.99 154.061 883.333C154.257 882.685 154.619 882.097 155.147 881.569C155.675 881.041 156.263 880.679 156.912 880.482C157.568 880.294 158.217 880.271 158.858 880.415C159.507 880.565 160.08 880.89 160.578 881.388C160.985 881.795 161.26 882.244 161.403 882.734C161.562 883.224 161.588 883.718 161.483 884.216C161.385 884.706 161.151 885.159 160.781 885.574L159.163 887.191C158.756 887.553 158.303 887.787 157.806 887.893C157.315 888.006 156.821 887.987 156.324 887.836C155.841 887.685 155.392 887.403 154.977 886.988ZM156.109 886.196C156.614 886.701 157.191 886.939 157.84 886.909C158.496 886.871 159.092 886.584 159.627 886.049C159.997 885.679 160.246 885.287 160.374 884.872C160.517 884.457 160.536 884.046 160.43 883.639C160.332 883.224 160.114 882.847 159.774 882.508C159.435 882.168 159.054 881.946 158.632 881.84C158.217 881.742 157.794 881.757 157.364 881.885C156.95 882.014 156.565 882.255 156.21 882.609C155.848 882.971 155.599 883.364 155.464 883.786C155.343 884.208 155.336 884.631 155.441 885.053C155.547 885.476 155.769 885.856 156.109 886.196ZM156.878 888.662L158.326 887.214L159.831 886.094L160.94 884.601L162.252 883.288L163.282 884.318L157.907 889.692L156.878 888.662ZM159.39 891.174L167.468 883.096L168.486 884.114L160.408 892.192L159.39 891.174Z" fill="#BEA9DA"/>
<path d="M12.9182 13.6445L82.0844 83.0734C83.9516 84.9476 85 87.4854 85 90.131L85 577" stroke="#9A7BC6" stroke-width="2"/>
<path d="M12.9183 910.103L81.884 841.137C83.7231 839.298 84.7734 836.815 84.8118 834.214L85 821.5" stroke="#9A7BC6" stroke-width="2"/>
<path d="M85 341.5C86.8712 422.287 115.152 405.829 89.4594 442.556C70.8311 469.185 83.0191 407.45 72.6378 413.426C63.1585 418.882 66.164 438.836 83.5755 473.852M83.5755 473.852C85.2323 477.183 87.0195 480.652 88.9387 484.257C111.028 525.749 171.339 530.858 134.169 499.153C119.902 486.983 100.636 478.18 83.5755 473.852ZM83.5755 473.852C56.1887 466.903 34.4845 471.485 48.263 492.183C51.3296 496.79 54.7501 501.567 58.3523 506.307M58.3523 506.307C65.9555 516.31 74.3683 526.144 81.972 533.84M58.3523 506.307C58.9328 496.316 61.3677 488.112 65.4894 482.267C73.3687 471.094 98.3091 509.839 105.054 539.145C106.996 547.586 104.963 550.055 100.549 548.489M58.3523 506.307C57.8231 515.415 58.8351 526.009 61.5154 537.656C63.6535 546.946 69.4145 559.274 75.9593 569.635M81.972 533.84C89.4675 541.427 96.1768 546.938 100.549 548.489M81.972 533.84C89.2143 505.998 96.965 525.318 100.549 548.489M81.972 533.84C80.8086 538.313 79.6584 544.002 78.5407 551.087C77.5115 557.612 76.6543 563.797 75.9593 569.635M100.549 548.489C102.519 561.224 103.231 575.122 101.908 582.994C99.3573 598.171 86.6188 586.511 75.9593 569.635M75.9593 569.635C72.7088 596.937 73.0023 616.637 75.8096 627.864M75.8096 627.864C79.3428 641.995 86.8579 642.706 96.301 628.26C114.852 599.881 123.5 573.884 96.6672 602.605C90.5157 609.189 83.0988 618.072 75.8096 627.864ZM75.8096 627.864C51.3039 660.786 28.2414 703.992 59.5553 704.725C75.4423 705.097 86.9609 699.912 94.8256 692.274M94.8256 692.274C107.073 680.379 110.46 662.536 107.683 650.471C103.123 630.659 53.414 662.903 68.3096 673.135C74.6151 677.467 85.8667 684.304 94.8256 692.274ZM94.8256 692.274C107.031 703.132 114.981 716.094 100.373 727.693C75.0432 747.805 32.3325 734.777 64.5968 765.987C86.8232 787.488 84.7981 787.321 85 821.499" stroke="url(#paint0_linear_461_309)" stroke-width="2"/>
<path d="M11.9992 14L12 909.5" stroke="#52338C" stroke-width="3" stroke-linecap="round"/>
<circle cx="84.7521" cy="109.892" r="3.89246" transform="rotate(90 84.7521 109.892)" fill="#9A7BC6"/>
<circle cx="84.7521" cy="187.892" r="3.89246" transform="rotate(90 84.7521 187.892)" fill="#9A7BC6"/>
<circle cx="84.7521" cy="265.892" r="3.89246" transform="rotate(90 84.7521 265.892)" fill="#9A7BC6"/>
<circle cx="84.7521" cy="810.392" r="3.89246" transform="rotate(90 84.7521 810.392)" fill="#9A7BC6"/>
<circle cx="12" cy="12" r="12" transform="rotate(90 12 12)" fill="#BEA9DA"/>
<path fill-rule="evenodd" clip-rule="evenodd" d="M17.9993 8.66671L10.5817 8.66671C10.3427 9.59231 9.618 10.3245 8.69672 10.5743C8.96375 13.0573 10.9421 15.0356 13.4251 15.3027C13.7324 14.1692 14.7699 13.3334 15.9993 13.3334C17.47 13.3334 18.666 14.5294 18.666 16C18.666 17.4707 17.47 18.6667 15.9993 18.6667C14.7495 18.6667 13.6981 17.803 13.4105 16.6409C10.2033 16.3589 7.64045 13.7961 7.35846 10.5889C6.19643 10.3013 5.33268 9.24984 5.33268 8.00004C5.33268 6.52937 6.52868 5.33337 7.99935 5.33337C9.23989 5.33337 10.285 6.18437 10.5817 7.33337L17.9993 7.33337C18.3673 7.33337 18.666 7.63204 18.666 8.00004C18.666 8.36804 18.3673 8.66671 17.9993 8.66671ZM14.666 16C14.666 16.7354 15.264 17.3334 15.9993 17.3334C16.7347 17.3334 17.3327 16.7354 17.3327 16C17.3327 15.2647 16.7347 14.6667 15.9993 14.6667C15.264 14.6667 14.666 15.2647 14.666 16ZM7.99935 9.33337C8.73468 9.33337 9.33268 8.73537 9.33268 8.00004C9.33268 7.26471 8.73468 6.66671 7.99935 6.66671C7.26402 6.66671 6.66602 7.26471 6.66602 8.00004C6.66602 8.73537 7.26402 9.33337 7.99935 9.33337Z" fill="#52338C"/>
<circle cx="85" cy="342.5" r="12" transform="rotate(90 85 342.5)" fill="white"/>
<path fill-rule="evenodd" clip-rule="evenodd" d="M86.417 339.167C86.7137 340.316 87.7588 341.167 88.9993 341.167C90.47 341.167 91.666 339.971 91.666 338.5C91.666 337.029 90.47 335.833 88.9993 335.833C87.7588 335.833 86.7137 336.684 86.417 337.833L78.9993 337.833C78.6307 337.833 78.3327 338.132 78.3327 338.5C78.3327 338.868 78.6307 339.167 78.9993 339.167L86.417 339.167ZM87.666 338.5C87.666 337.765 88.264 337.167 88.9993 337.167C89.7347 337.167 90.3327 337.765 90.3327 338.5C90.3327 339.235 89.7347 339.833 88.9993 339.833C88.264 339.833 87.666 339.235 87.666 338.5Z" fill="#52338C"/>
<path fill-rule="evenodd" clip-rule="evenodd" d="M80.9993 343.833C79.5287 343.833 78.3327 345.029 78.3327 346.5C78.3327 347.971 79.5287 349.167 80.9993 349.167C82.2399 349.167 83.285 348.316 83.5817 347.167L87.666 347.167C88.7687 347.167 89.666 346.269 89.666 345.167L89.666 343.167C89.666 342.799 89.3673 342.5 88.9993 342.5C88.6313 342.5 88.3327 342.799 88.3327 343.167L88.3327 345.167C88.3327 345.535 88.0333 345.833 87.666 345.833L83.5817 345.833C83.285 344.684 82.2399 343.833 80.9993 343.833ZM80.9993 345.167C81.7347 345.167 82.3327 345.765 82.3327 346.5C82.3327 347.235 81.7347 347.833 80.9993 347.833C80.264 347.833 79.666 347.235 79.666 346.5C79.666 345.765 80.264 345.167 80.9993 345.167Z" fill="#52338C"/>
<circle cx="13" cy="910" r="12" transform="rotate(90 13 910)" fill="#BEA9DA"/>
<path fill-rule="evenodd" clip-rule="evenodd" d="M14.417 905.833C14.7137 904.684 15.7588 903.833 16.9993 903.833C18.47 903.833 19.666 905.029 19.666 906.5C19.666 907.971 18.47 909.167 16.9993 909.167C15.7699 909.167 14.7324 908.331 14.4251 907.197C11.9421 907.464 9.96375 909.443 9.69672 911.926C10.8301 912.233 11.666 913.27 11.666 914.5C11.666 915.971 10.47 917.167 8.99935 917.167C7.52868 917.167 6.33268 915.971 6.33268 914.5C6.33268 913.25 7.19642 912.199 8.35845 911.911C8.52866 909.974 9.53027 908.273 11.0033 907.167L6.99935 907.167C6.63068 907.167 6.33268 906.868 6.33268 906.5C6.33268 906.132 6.63068 905.833 6.99935 905.833L14.417 905.833ZM8.99935 913.167C8.26401 913.167 7.66602 913.765 7.66602 914.5C7.66602 915.235 8.26401 915.833 8.99935 915.833C9.73468 915.833 10.3327 915.235 10.3327 914.5C10.3327 913.765 9.73468 913.167 8.99935 913.167ZM15.666 906.5C15.666 907.235 16.264 907.833 16.9993 907.833C17.7347 907.833 18.3327 907.235 18.3327 906.5C18.3327 905.765 17.7347 905.167 16.9993 905.167C16.264 905.167 15.666 905.765 15.666 906.5Z" fill="#52338C"/>
<defs>
<linearGradient id="paint0_linear_461_309" x1="84.2651" y1="380.576" x2="73.1017" y2="782.908" gradientUnits="userSpaceOnUse">
<stop stop-color="#9A7BC6"/>
<stop offset="0.22" stop-color="#FFBF00"/>
<stop offset="0.425" stop-color="#E64412"/>
<stop offset="0.665" stop-color="#E71F62"/>
<stop offset="0.816036" stop-color="#266BBA"/>
<stop offset="0.925" stop-color="#9A7BC6"/>
</linearGradient>
</defs>
</svg>
