<svg width="821" height="362" viewBox="0 0 821 362" fill="none" xmlns="http://www.w3.org/2000/svg">
<path d="M226.201 41.6759C225.476 42.014 224.743 42.1968 224.002 42.2243C223.258 42.2421 222.543 42.1224 221.858 41.8651C221.182 41.6032 220.573 41.2167 220.028 40.7056C219.484 40.1944 219.045 39.5811 218.711 38.8658C218.373 38.1407 218.183 37.4054 218.142 36.6598C218.1 35.9142 218.198 35.2035 218.436 34.5276C218.679 33.8375 219.045 33.22 219.532 32.675C220.024 32.1158 220.633 31.6671 221.358 31.329C222.151 30.9594 222.91 30.7701 223.636 30.7613C224.361 30.7525 225.064 30.872 225.745 31.1196L225.242 32.5017C224.756 32.2928 224.234 32.195 223.675 32.2083C223.126 32.2172 222.556 32.3591 221.967 32.6341C221.435 32.882 220.992 33.2064 220.637 33.6071C220.278 33.9981 220.016 34.4443 219.849 34.9456C219.683 35.4469 219.618 35.9772 219.655 36.5365C219.702 37.0914 219.856 37.6492 220.118 38.2099C220.379 38.7706 220.708 39.2472 221.102 39.6397C221.507 40.0278 221.955 40.3192 222.446 40.5139C222.937 40.7087 223.45 40.7991 223.985 40.785C224.515 40.7614 225.046 40.6255 225.578 40.3776C226.206 40.0846 226.705 39.7284 227.074 39.309C227.439 38.8799 227.698 38.4122 227.85 37.9057L229.225 38.3943C228.987 39.094 228.616 39.7257 228.114 40.2894C227.621 40.8486 226.984 41.3108 226.201 41.6759ZM234.29 37.9036C233.614 38.2192 232.93 38.3437 232.24 38.2771C231.55 38.2105 230.919 37.9809 230.348 37.5883C229.772 37.1861 229.326 36.6466 229.01 35.9699C228.699 35.3028 228.579 34.6291 228.65 33.9486C228.717 33.2585 228.947 32.6277 229.339 32.0562C229.732 31.4847 230.267 31.0412 230.943 30.7257C231.61 30.4146 232.289 30.2924 232.979 30.359C233.674 30.4114 234.308 30.6339 234.879 31.0265C235.451 31.4191 235.892 31.9489 236.203 32.616C236.518 33.2927 236.645 33.9809 236.583 34.6807C236.517 35.3708 236.282 36.0039 235.88 36.5799C235.487 37.1513 234.957 37.5926 234.29 37.9036ZM233.702 36.6421C234.137 36.4392 234.476 36.1574 234.72 35.7966C234.964 35.4358 235.101 35.0363 235.132 34.5981C235.159 34.1503 235.066 33.6992 234.854 33.2448C234.647 32.8001 234.361 32.4511 233.995 32.1977C233.64 31.9399 233.248 31.7932 232.819 31.7576C232.396 31.7078 231.967 31.7844 231.532 31.9873C231.097 32.1901 230.757 32.4719 230.513 32.8327C230.265 33.1839 230.126 33.5785 230.095 34.0167C230.064 34.4549 230.152 34.8963 230.359 35.341C230.571 35.7954 230.857 36.1563 231.217 36.4238C231.573 36.6817 231.967 36.8333 232.4 36.8785C232.833 36.9237 233.267 36.8449 233.702 36.6421ZM239.289 35.396L236.078 28.508L237.383 27.8995L240.595 34.7874L239.289 35.396ZM243.944 33.2254L242.004 29.0636C241.765 28.5513 241.418 28.2245 240.964 28.0832C240.515 27.9278 240.053 27.9605 239.58 28.1814C239.261 28.3302 239.007 28.5308 238.819 28.7834C238.631 29.0359 238.515 29.3191 238.473 29.6329C238.431 29.9467 238.489 30.2728 238.647 30.6111L237.989 30.6003C237.745 30.0783 237.645 29.5721 237.687 29.0817C237.738 28.5868 237.913 28.1406 238.21 27.7431C238.503 27.336 238.896 27.0174 239.389 26.7875C239.872 26.5621 240.357 26.4656 240.843 26.498C241.338 26.5258 241.787 26.6812 242.19 26.9643C242.602 27.2428 242.932 27.6479 243.18 28.1796L245.249 32.6168L243.944 33.2254ZM248.599 31.0548L246.658 26.8931C246.419 26.3807 246.073 26.0539 245.619 25.9126C245.17 25.7572 244.713 25.7877 244.249 26.0041C243.93 26.1528 243.671 26.3557 243.474 26.6128C243.285 26.8653 243.17 27.1485 243.128 27.4623C243.086 27.7761 243.144 28.1022 243.302 28.4406L242.441 28.5244C242.222 27.9792 242.15 27.4595 242.226 26.9652C242.306 26.4568 242.5 26.0016 242.807 25.5996C243.109 25.1879 243.502 24.8694 243.985 24.644C244.488 24.4096 244.987 24.3063 245.483 24.3342C245.978 24.362 246.432 24.5152 246.845 24.7937C247.267 25.0677 247.604 25.4754 247.856 26.0167L249.919 30.4395L248.599 31.0548ZM251.695 29.6114L248.483 22.7235L249.788 22.1149L253 29.0028L251.695 29.6114ZM256.349 27.4408L254.409 23.2791C254.17 22.7667 253.823 22.4399 253.369 22.2986C252.92 22.1432 252.458 22.1759 251.985 22.3968C251.666 22.5456 251.412 22.7462 251.224 22.9988C251.036 23.2513 250.921 23.5345 250.879 23.8483C250.837 24.1621 250.894 24.4882 251.052 24.8266L250.394 24.8157C250.151 24.2937 250.05 23.7875 250.092 23.2971C250.144 22.8022 250.318 22.356 250.615 21.9585C250.908 21.5514 251.301 21.2328 251.794 21.0029C252.277 20.7775 252.762 20.681 253.248 20.7134C253.743 20.7412 254.192 20.8967 254.595 21.1797C255.007 21.4582 255.337 21.8633 255.585 22.395L257.654 26.8323L256.349 27.4408ZM261.004 25.2703L259.063 21.1085C258.825 20.5961 258.478 20.2693 258.024 20.1281C257.575 19.9726 257.118 20.0031 256.654 20.2195C256.335 20.3682 256.077 20.5712 255.879 20.8282C255.69 21.0808 255.575 21.3639 255.533 21.6777C255.491 21.9916 255.549 22.3176 255.707 22.656L254.846 22.7398C254.627 22.1946 254.555 21.6749 254.631 21.1806C254.711 20.6722 254.905 20.217 255.212 19.815C255.514 19.4033 255.907 19.0848 256.391 18.8594C256.893 18.625 257.392 18.5217 257.888 18.5496C258.383 18.5774 258.837 18.7306 259.25 19.0091C259.672 19.2831 260.009 19.6908 260.261 20.2321L262.324 24.6549L261.004 25.2703ZM264.114 23.82L260.902 16.9321L262.207 16.3235L265.419 23.2115L264.114 23.82ZM260.912 15.2502C260.671 15.3629 260.436 15.378 260.21 15.2955C259.978 15.2032 259.806 15.0363 259.694 14.7946C259.585 14.5626 259.573 14.3332 259.655 14.1064C259.733 13.8699 259.893 13.6953 260.135 13.5826C260.376 13.4699 260.613 13.4597 260.844 13.5519C261.071 13.6345 261.239 13.7917 261.347 14.0237C261.459 14.2654 261.477 14.5045 261.399 14.741C261.316 14.9678 261.154 15.1375 260.912 15.2502ZM268.401 21.821L263.844 12.0474L265.149 11.4388L269.706 21.2124L268.401 21.821ZM264.047 16.9133L263.493 15.7242L268.191 13.5334L268.745 14.7224L264.047 16.9133Z" fill="#8A66BD"/>
<path d="M277.201 60.6759C276.476 61.014 275.743 61.1968 275.002 61.2243C274.258 61.2421 273.543 61.1224 272.858 60.8651C272.182 60.6032 271.573 60.2167 271.028 59.7056C270.484 59.1944 270.045 58.5811 269.711 57.8658C269.373 57.1407 269.183 56.4054 269.142 55.6598C269.1 54.9142 269.198 54.2035 269.436 53.5276C269.679 52.8375 270.045 52.22 270.532 51.675C271.024 51.1158 271.633 50.6671 272.358 50.329C273.151 49.9594 273.91 49.7701 274.636 49.7613C275.361 49.7525 276.064 49.872 276.745 50.1196L276.242 51.5017C275.756 51.2928 275.234 51.195 274.675 51.2083C274.126 51.2172 273.556 51.3591 272.967 51.6341C272.435 51.882 271.992 52.2064 271.637 52.6071C271.278 52.9981 271.016 53.4443 270.849 53.9456C270.683 54.4469 270.618 54.9772 270.655 55.5365C270.702 56.0914 270.856 56.6492 271.118 57.2099C271.379 57.7706 271.708 58.2472 272.102 58.6397C272.507 59.0278 272.955 59.3192 273.446 59.5139C273.937 59.7087 274.45 59.7991 274.985 59.785C275.515 59.7614 276.046 59.6255 276.578 59.3776C277.206 59.0846 277.705 58.7284 278.074 58.309C278.439 57.8799 278.698 57.4122 278.85 56.9057L280.225 57.3943C279.987 58.094 279.616 58.7257 279.114 59.2894C278.621 59.8486 277.984 60.3108 277.201 60.6759ZM285.305 56.897C284.628 57.2126 283.944 57.3371 283.254 57.2705C282.564 57.2039 281.933 56.9743 281.362 56.5817C280.786 56.1795 280.34 55.64 280.025 54.9633C279.714 54.2962 279.594 53.6225 279.665 52.942C279.731 52.2519 279.961 51.6211 280.353 51.0496C280.746 50.4781 281.281 50.0346 281.957 49.7191C282.624 49.408 283.303 49.2858 283.993 49.3524C284.688 49.4048 285.322 49.6273 285.893 50.0199C286.465 50.4125 286.906 50.9423 287.217 51.6094C287.533 52.2861 287.659 52.9743 287.597 53.6741C287.531 54.3642 287.296 54.9973 286.894 55.5733C286.501 56.1447 285.972 56.586 285.305 56.897ZM284.716 55.6355C285.151 55.4326 285.491 55.1508 285.734 54.79C285.978 54.4292 286.115 54.0297 286.146 53.5915C286.173 53.1437 286.08 52.6926 285.868 52.2382C285.661 51.7935 285.375 51.4445 285.009 51.1911C284.654 50.9333 284.262 50.7866 283.833 50.751C283.41 50.7012 282.981 50.7778 282.546 50.9807C282.111 51.1835 281.771 51.4653 281.528 51.8261C281.279 52.1772 281.14 52.5719 281.109 53.0101C281.078 53.4483 281.166 53.8897 281.373 54.3344C281.585 54.7888 281.871 55.1497 282.231 55.4172C282.587 55.6751 282.981 55.8266 283.414 55.8719C283.847 55.9171 284.281 55.8383 284.716 55.6355ZM290.304 54.3894L287.092 47.5014L288.397 46.8929L291.609 53.7808L290.304 54.3894ZM294.958 52.2188L293.018 48.057C292.779 47.5447 292.432 47.2179 291.978 47.0766C291.529 46.9212 291.068 46.9539 290.594 47.1748C290.275 47.3236 290.021 47.5242 289.833 47.7768C289.645 48.0293 289.53 48.3125 289.488 48.6263C289.446 48.9401 289.504 49.2662 289.661 49.6045L289.003 49.5937C288.76 49.0717 288.659 48.5655 288.701 48.0751C288.753 47.5802 288.927 47.134 289.224 46.7365C289.517 46.3293 289.91 46.0108 290.403 45.7809C290.886 45.5555 291.371 45.459 291.857 45.4914C292.352 45.5192 292.801 45.6746 293.204 45.9577C293.616 46.2362 293.946 46.6413 294.194 47.173L296.264 51.6102L294.958 52.2188ZM299.613 50.0482L297.673 45.8865C297.434 45.3741 297.087 45.0473 296.633 44.906C296.184 44.7506 295.727 44.7811 295.263 44.9975C294.944 45.1462 294.686 45.3491 294.488 45.6062C294.299 45.8587 294.184 46.1419 294.142 46.4557C294.1 46.7695 294.158 47.0956 294.316 47.434L293.455 47.5178C293.236 46.9726 293.164 46.4529 293.24 45.9586C293.32 45.4502 293.514 44.995 293.821 44.593C294.123 44.1813 294.516 43.8628 295 43.6374C295.502 43.403 296.001 43.2997 296.497 43.3276C296.993 43.3554 297.446 43.5086 297.859 43.7871C298.281 44.0611 298.618 44.4688 298.87 45.0101L300.933 49.4329L299.613 50.0482ZM302.709 48.6048L299.497 41.7168L300.802 41.1083L304.014 47.9962L302.709 48.6048ZM307.364 46.4342L305.423 42.2725C305.184 41.7601 304.837 41.4333 304.383 41.292C303.934 41.1366 303.473 41.1693 302.999 41.3902C302.68 41.539 302.426 41.7396 302.238 41.9922C302.05 42.2447 301.935 42.5279 301.893 42.8417C301.851 43.1555 301.909 43.4816 302.066 43.82L301.408 43.8091C301.165 43.2871 301.064 42.7809 301.106 42.2905C301.158 41.7956 301.332 41.3494 301.629 40.9519C301.922 40.5448 302.315 40.2262 302.808 39.9963C303.291 39.7709 303.776 39.6744 304.262 39.7068C304.757 39.7346 305.206 39.8901 305.609 40.1731C306.021 40.4516 306.352 40.8567 306.599 41.3884L308.669 45.8257L307.364 46.4342ZM312.018 44.2637L310.078 40.1019C309.839 39.5895 309.492 39.2627 309.038 39.1215C308.589 38.966 308.132 38.9965 307.668 39.2129C307.349 39.3616 307.091 39.5645 306.893 39.8216C306.705 40.0742 306.589 40.3573 306.547 40.6711C306.506 40.9849 306.563 41.311 306.721 41.6494L305.86 41.7332C305.641 41.188 305.569 40.6683 305.645 40.174C305.726 39.6656 305.919 39.2104 306.226 38.8084C306.529 38.3967 306.921 38.0782 307.405 37.8528C307.907 37.6184 308.407 37.5151 308.902 37.543C309.398 37.5708 309.852 37.724 310.264 38.0025C310.686 38.2765 311.023 38.6842 311.276 39.2255L313.338 43.6483L312.018 44.2637ZM315.128 42.8134L311.916 35.9255L313.222 35.3169L316.433 42.2049L315.128 42.8134ZM311.927 34.2436C311.685 34.3563 311.451 34.3714 311.224 34.2888C310.993 34.1966 310.821 34.0297 310.708 33.788C310.6 33.556 310.587 33.3266 310.669 33.0998C310.747 32.8633 310.907 32.6887 311.149 32.576C311.391 32.4633 311.627 32.4531 311.858 32.5453C312.085 32.6278 312.253 32.7851 312.361 33.0171C312.474 33.2588 312.491 33.4979 312.413 33.7344C312.33 33.9612 312.168 34.1309 311.927 34.2436ZM319.415 40.8144L314.858 31.0408L316.163 30.4322L320.72 40.2058L319.415 40.8144ZM315.061 35.9067L314.507 34.7176L319.205 32.5268L319.76 33.7158L315.061 35.9067Z" fill="#8A66BD"/>
<path d="M330.201 79.6759C329.476 80.014 328.743 80.1968 328.002 80.2243C327.258 80.2421 326.543 80.1224 325.858 79.8651C325.182 79.6032 324.573 79.2167 324.028 78.7056C323.484 78.1944 323.045 77.5811 322.711 76.8658C322.373 76.1407 322.183 75.4054 322.142 74.6598C322.1 73.9142 322.198 73.2035 322.436 72.5276C322.679 71.8375 323.045 71.22 323.532 70.675C324.024 70.1158 324.633 69.6671 325.358 69.329C326.151 68.9594 326.91 68.7701 327.636 68.7613C328.361 68.7525 329.064 68.872 329.745 69.1196L329.242 70.5017C328.756 70.2928 328.234 70.195 327.675 70.2083C327.126 70.2172 326.556 70.3591 325.967 70.6341C325.435 70.882 324.992 71.2064 324.637 71.6071C324.278 71.9981 324.016 72.4443 323.849 72.9456C323.683 73.4469 323.618 73.9772 323.655 74.5365C323.702 75.0914 323.856 75.6492 324.118 76.2099C324.379 76.7706 324.708 77.2472 325.102 77.6397C325.507 78.0278 325.955 78.3192 326.446 78.5139C326.937 78.7087 327.45 78.7991 327.985 78.785C328.515 78.7614 329.046 78.6255 329.578 78.3776C330.206 78.0846 330.705 77.7284 331.074 77.309C331.439 76.8799 331.698 76.4122 331.85 75.9057L333.225 76.3943C332.987 77.094 332.616 77.7257 332.114 78.2894C331.621 78.8486 330.984 79.3108 330.201 79.6759ZM338.305 75.897C337.628 76.2126 336.944 76.3371 336.254 76.2705C335.564 76.2039 334.933 75.9743 334.362 75.5817C333.786 75.1795 333.34 74.64 333.025 73.9633C332.714 73.2962 332.594 72.6225 332.665 71.942C332.731 71.2519 332.961 70.6211 333.353 70.0496C333.746 69.4781 334.281 69.0346 334.957 68.7191C335.624 68.408 336.303 68.2858 336.993 68.3524C337.688 68.4048 338.322 68.6273 338.893 69.0199C339.465 69.4125 339.906 69.9423 340.217 70.6094C340.533 71.2861 340.659 71.9743 340.597 72.6741C340.531 73.3642 340.296 73.9973 339.894 74.5733C339.501 75.1447 338.972 75.586 338.305 75.897ZM337.716 74.6355C338.151 74.4326 338.491 74.1508 338.734 73.79C338.978 73.4292 339.115 73.0297 339.146 72.5915C339.173 72.1437 339.08 71.6926 338.868 71.2382C338.661 70.7935 338.375 70.4445 338.009 70.1911C337.654 69.9333 337.262 69.7866 336.833 69.751C336.41 69.7012 335.981 69.7778 335.546 69.9807C335.111 70.1835 334.771 70.4653 334.528 70.8261C334.279 71.1772 334.14 71.5719 334.109 72.0101C334.078 72.4483 334.166 72.8897 334.373 73.3344C334.585 73.7888 334.871 74.1497 335.231 74.4172C335.587 74.6751 335.981 74.8266 336.414 74.8719C336.847 74.9171 337.281 74.8383 337.716 74.6355ZM343.304 73.3894L340.092 66.5014L341.397 65.8929L344.609 72.7808L343.304 73.3894ZM347.958 71.2188L346.018 67.057C345.779 66.5447 345.432 66.2179 344.978 66.0766C344.529 65.9212 344.068 65.9539 343.594 66.1748C343.275 66.3236 343.021 66.5242 342.833 66.7768C342.645 67.0293 342.53 67.3125 342.488 67.6263C342.446 67.9401 342.504 68.2662 342.661 68.6045L342.003 68.5937C341.76 68.0717 341.659 67.5655 341.701 67.0751C341.753 66.5802 341.927 66.134 342.224 65.7365C342.517 65.3293 342.91 65.0108 343.403 64.7809C343.886 64.5555 344.371 64.459 344.857 64.4914C345.352 64.5192 345.801 64.6746 346.204 64.9577C346.616 65.2362 346.946 65.6413 347.194 66.173L349.264 70.6102L347.958 71.2188ZM352.613 69.0482L350.673 64.8865C350.434 64.3741 350.087 64.0473 349.633 63.906C349.184 63.7506 348.727 63.7811 348.263 63.9975C347.944 64.1462 347.686 64.3491 347.488 64.6062C347.299 64.8587 347.184 65.1419 347.142 65.4557C347.1 65.7695 347.158 66.0956 347.316 66.434L346.455 66.5178C346.236 65.9726 346.164 65.4529 346.24 64.9586C346.32 64.4502 346.514 63.995 346.821 63.593C347.123 63.1813 347.516 62.8628 348 62.6374C348.502 62.403 349.001 62.2997 349.497 62.3276C349.993 62.3554 350.446 62.5086 350.859 62.7871C351.281 63.0611 351.618 63.4688 351.87 64.0101L353.933 68.4329L352.613 69.0482ZM355.709 67.6048L352.497 60.7168L353.802 60.1083L357.014 66.9962L355.709 67.6048ZM360.364 65.4342L358.423 61.2725C358.184 60.7601 357.837 60.4333 357.383 60.292C356.934 60.1366 356.473 60.1693 355.999 60.3902C355.68 60.539 355.426 60.7396 355.238 60.9922C355.05 61.2447 354.935 61.5279 354.893 61.8417C354.851 62.1555 354.909 62.4816 355.066 62.82L354.408 62.8091C354.165 62.2871 354.064 61.7809 354.106 61.2905C354.158 60.7956 354.332 60.3494 354.629 59.9519C354.922 59.5448 355.315 59.2262 355.808 58.9963C356.291 58.7709 356.776 58.6744 357.262 58.7068C357.757 58.7346 358.206 58.8901 358.609 59.1731C359.021 59.4516 359.352 59.8567 359.599 60.3884L361.669 64.8257L360.364 65.4342ZM365.018 63.2637L363.078 59.1019C362.839 58.5895 362.492 58.2627 362.038 58.1215C361.589 57.966 361.132 57.9965 360.668 58.2129C360.349 58.3616 360.091 58.5645 359.893 58.8216C359.705 59.0742 359.589 59.3573 359.547 59.6711C359.506 59.9849 359.563 60.311 359.721 60.6494L358.86 60.7332C358.641 60.188 358.569 59.6683 358.645 59.174C358.726 58.6656 358.919 58.2104 359.226 57.8084C359.529 57.3967 359.921 57.0782 360.405 56.8528C360.907 56.6184 361.407 56.5151 361.902 56.543C362.398 56.5708 362.852 56.724 363.264 57.0025C363.686 57.2765 364.023 57.6842 364.276 58.2255L366.338 62.6483L365.018 63.2637ZM368.128 61.8134L364.916 54.9255L366.222 54.3169L369.433 61.2049L368.128 61.8134ZM364.927 53.2436C364.685 53.3563 364.451 53.3714 364.224 53.2888C363.993 53.1966 363.821 53.0297 363.708 52.788C363.6 52.556 363.587 52.3266 363.669 52.0998C363.747 51.8633 363.907 51.6887 364.149 51.576C364.391 51.4633 364.627 51.4531 364.858 51.5453C365.085 51.6278 365.253 51.7851 365.361 52.0171C365.474 52.2588 365.491 52.4979 365.413 52.7344C365.33 52.9612 365.168 53.1309 364.927 53.2436ZM372.415 59.8144L367.858 50.0408L369.163 49.4322L373.72 59.2058L372.415 59.8144ZM368.061 54.9067L367.507 53.7176L372.205 51.5268L372.76 52.7158L368.061 54.9067Z" fill="#8A66BD"/>
<path d="M369.653 100.32L369.099 99.1306L371.839 97.8526C372.216 97.6768 372.514 97.4439 372.732 97.154C372.959 96.8596 373.09 96.5339 373.123 96.1769C373.167 95.8154 373.098 95.4413 372.918 95.0546C372.738 94.6679 372.495 94.375 372.19 94.1758C371.895 93.972 371.562 93.8627 371.19 93.8478C370.828 93.8284 370.458 93.9065 370.081 94.0824L367.341 95.3603L366.786 94.1713L369.614 92.8527C370.232 92.5642 370.842 92.4329 371.443 92.4589C372.053 92.4803 372.606 92.6577 373.103 92.991C373.605 93.3101 374.002 93.7839 374.295 94.4122C374.584 95.0309 374.691 95.6399 374.618 96.2392C374.549 96.8243 374.329 97.3623 373.958 97.8532C373.592 98.33 373.1 98.7126 372.481 99.0011L369.653 100.32ZM370.565 104.661L365.873 94.5973L367.236 93.9617L371.928 104.025L370.565 104.661ZM381.979 99.5151C381.409 99.7811 380.838 99.8943 380.266 99.8548C379.7 99.8012 379.185 99.6058 378.722 99.2686C378.258 98.9315 377.887 98.4632 377.608 97.8638L375.741 93.8616L377.046 93.253L378.886 97.1973C379.061 97.5743 379.278 97.8737 379.534 98.0954C379.796 98.303 380.086 98.4207 380.405 98.4485C380.724 98.4763 381.052 98.4113 381.391 98.2535C381.903 98.0146 382.23 97.668 382.371 97.2138C382.508 96.7498 382.443 96.2327 382.177 95.6623L380.338 91.7181L381.643 91.1095L383.51 95.1118C383.789 95.7111 383.909 96.2966 383.87 96.8682C383.83 97.4397 383.649 97.9597 383.326 98.4281C383.008 98.8823 382.559 99.2446 381.979 99.5151ZM386.604 97.1818L381.776 86.8281L383.081 86.2196L387.909 96.5732L386.604 97.1818ZM389.819 95.6828L384.991 85.3292L386.296 84.7206L391.124 95.0742L389.819 95.6828ZM396.05 92.7773L392.838 85.8894L394.143 85.2808L397.355 92.1687L396.05 92.7773ZM395.522 88.239L394.928 88.2514C394.518 87.3717 394.394 86.5761 394.556 85.8647C394.719 85.1534 395.182 84.6196 395.946 84.2635C396.294 84.1012 396.637 84.0176 396.976 84.0125C397.311 83.9978 397.664 84.0742 398.037 84.2419L397.594 85.5254C397.376 85.4383 397.165 85.4016 396.96 85.415C396.754 85.4285 396.535 85.4893 396.303 85.5975C395.82 85.8229 395.496 86.1624 395.33 86.616C395.165 87.0696 395.229 87.6106 395.522 88.239ZM404.901 88.8264C404.215 89.1464 403.524 89.2803 402.829 89.2278C402.129 89.1658 401.493 88.9384 400.922 88.5458C400.35 88.1532 399.905 87.6137 399.584 86.9274C399.269 86.2507 399.14 85.5695 399.197 84.8839C399.263 84.1937 399.49 83.57 399.878 83.0127C400.27 82.4413 400.8 82 401.467 81.689C402.105 81.3914 402.733 81.275 403.352 81.3396C403.98 81.3997 404.549 81.6229 405.059 82.009C405.578 82.3906 405.989 82.9053 406.291 83.553C406.336 83.6497 406.381 83.7583 406.425 83.8788C406.465 83.9897 406.504 84.1243 406.543 84.2829L400.728 86.9944L400.221 85.9068L405.34 83.5199L405.057 84.1635C404.841 83.6995 404.576 83.3463 404.263 83.1039C403.945 82.8519 403.596 82.7087 403.215 82.6744C402.83 82.6305 402.425 82.7077 401.999 82.9061C401.555 83.1134 401.208 83.3927 400.96 83.7438C400.712 84.0949 400.577 84.4873 400.556 84.921C400.534 85.3547 400.634 85.8084 400.855 86.2821C401.08 86.7654 401.375 87.1457 401.74 87.4229C402.1 87.6904 402.506 87.8423 402.959 87.8785C403.406 87.9051 403.862 87.8102 404.326 87.5938C404.713 87.4135 405.034 87.1813 405.29 86.8971C405.556 86.6085 405.742 86.2748 405.847 85.8959L407.087 86.3593C406.939 86.8992 406.67 87.3834 406.282 87.8118C405.903 88.2357 405.443 88.5739 404.901 88.8264ZM412.429 85.316C411.791 85.6136 411.144 85.7271 410.487 85.6567C409.826 85.5766 409.219 85.3357 408.667 84.9341C408.125 84.528 407.696 83.9865 407.38 83.3098C407.065 82.6331 406.926 81.9565 406.963 81.2799C407.01 80.5987 407.216 79.9792 407.579 79.4213C407.943 78.8633 408.439 78.4379 409.067 78.1448C409.599 77.8969 410.12 77.7894 410.63 77.8225C411.144 77.8413 411.613 77.9877 412.035 78.2617C412.462 78.5215 412.807 78.896 413.071 79.3852L414.038 81.4588C414.239 81.9654 414.304 82.4706 414.232 82.9745C414.171 83.4739 413.984 83.9317 413.672 84.3479C413.366 84.7499 412.951 85.0726 412.429 85.316ZM412.057 83.9888C412.705 83.6868 413.126 83.2258 413.319 82.606C413.508 81.9764 413.443 81.3185 413.123 80.6321C412.902 80.1584 412.618 79.7904 412.272 79.528C411.931 79.2515 411.552 79.0932 411.133 79.0531C410.719 78.9988 410.295 79.0731 409.86 79.276C409.425 79.4788 409.085 79.7607 408.842 80.1215C408.608 80.4777 408.477 80.8798 408.451 81.3277C408.42 81.7658 408.51 82.2121 408.722 82.6665C408.938 83.1305 409.227 83.4963 409.587 83.7638C409.942 84.0217 410.332 84.1755 410.755 84.2252C411.188 84.2705 411.622 84.1916 412.057 83.9888ZM415.998 86.9883L413.848 82.377L413.296 80.5867L412.286 79.0273L411.441 77.2147L412.746 76.6061L417.303 86.3798L415.998 86.9883ZM420.724 81.4482C420.153 81.7141 419.582 81.8274 419.011 81.7879C418.444 81.7343 417.93 81.5389 417.466 81.2017C417.003 80.8645 416.632 80.3963 416.352 79.7969L414.486 75.7947L415.791 75.1861L417.63 79.1303C417.806 79.5074 418.022 79.8068 418.279 80.0285C418.54 80.2361 418.83 80.3538 419.149 80.3816C419.468 80.4094 419.797 80.3444 420.135 80.1866C420.648 79.9477 420.975 79.6011 421.116 79.1468C421.253 78.6829 421.188 78.1658 420.922 77.5954L419.083 73.6511L420.388 73.0426L422.254 77.0448C422.534 77.6442 422.654 78.2297 422.614 78.8012C422.575 79.3728 422.393 79.8928 422.071 80.3612C421.753 80.8154 421.304 81.1777 420.724 81.4482ZM428.607 77.7722C427.92 78.0923 427.23 78.2261 426.534 78.1737C425.834 78.1117 425.199 77.8843 424.627 77.4917C424.056 77.0991 423.61 76.5596 423.29 75.8733C422.975 75.1965 422.845 74.5154 422.902 73.8298C422.969 73.1396 423.196 72.5159 423.583 71.9586C423.976 71.3872 424.506 70.9459 425.173 70.6349C425.811 70.3373 426.439 70.2209 427.058 70.2855C427.686 70.3456 428.255 70.5688 428.764 70.9549C429.284 71.3365 429.694 71.8512 429.996 72.4989C430.041 72.5956 430.086 72.7042 430.131 72.8247C430.171 72.9355 430.21 73.0702 430.248 73.2288L424.434 75.9403L423.926 74.8527L429.045 72.4658L428.763 73.1094C428.546 72.6454 428.282 72.2922 427.969 72.0498C427.651 71.7978 427.302 71.6546 426.921 71.6203C426.536 71.5764 426.13 71.6536 425.705 71.852C425.26 72.0593 424.914 72.3386 424.666 72.6897C424.417 73.0408 424.283 73.4332 424.261 73.8669C424.24 74.3006 424.34 74.7542 424.56 75.2279C424.786 75.7113 425.081 76.0916 425.445 76.3688C425.806 76.6363 426.212 76.7882 426.664 76.8244C427.112 76.851 427.568 76.756 428.032 76.5397C428.419 76.3594 428.74 76.1271 428.996 75.843C429.262 75.5544 429.447 75.2207 429.553 74.8418L430.793 75.3052C430.645 75.8451 430.376 76.3293 429.987 76.7577C429.608 77.1816 429.148 77.5198 428.607 77.7722ZM435.381 74.6135C434.994 74.7939 434.604 74.9168 434.211 74.9824C433.823 75.0339 433.441 75.0354 433.066 74.9869C432.685 74.9288 432.328 74.8189 431.994 74.657L432.443 73.4238C432.838 73.6159 433.236 73.7127 433.637 73.7141C434.033 73.7058 434.435 73.607 434.841 73.4177C435.247 73.2284 435.529 73.0142 435.689 72.7752C435.843 72.5265 435.862 72.2765 435.745 72.0251C435.628 71.7738 435.446 71.6232 435.199 71.5735C434.957 71.5097 434.676 71.4996 434.355 71.5433C434.03 71.5774 433.687 71.6253 433.327 71.6871C432.973 71.7346 432.622 71.7513 432.274 71.737C431.926 71.7227 431.601 71.6327 431.301 71.467C431.009 71.2968 430.767 71.0039 430.573 70.5882C430.379 70.1725 430.314 69.7675 430.377 69.3731C430.436 68.9691 430.606 68.6015 430.887 68.2704C431.178 67.9347 431.579 67.6475 432.092 67.4085C432.633 67.1561 433.156 67.0296 433.662 67.0291C434.173 67.0145 434.652 67.1325 435.099 67.3833L434.65 68.6166C434.339 68.4554 434.007 68.3747 433.654 68.3746C433.311 68.37 432.96 68.4511 432.602 68.6179C432.225 68.7937 431.967 68.9966 431.827 69.2266C431.692 69.4425 431.679 69.6664 431.787 69.8984C431.895 70.1304 432.066 70.2687 432.298 70.3132C432.531 70.3578 432.808 70.3582 433.129 70.3144C433.459 70.2662 433.802 70.2183 434.156 70.1707C434.506 70.1135 434.857 70.0968 435.21 70.1208C435.562 70.1447 435.887 70.2466 436.182 70.4265C436.488 70.6019 436.739 70.9022 436.938 71.3276C437.24 71.9753 437.247 72.5958 436.959 73.1892C436.68 73.7781 436.154 74.2529 435.381 74.6135ZM440.37 72.1103L435.813 62.3367L437.118 61.7281L441.675 71.5017L440.37 72.1103ZM436.016 67.2026L435.462 66.0135L440.16 63.8226L440.715 65.0117L436.016 67.2026ZM450.881 67.3856C450.204 67.7011 449.516 67.8279 448.816 67.7658C448.126 67.6992 447.495 67.4696 446.924 67.077C446.358 66.6702 445.919 66.1333 445.608 65.4663C445.292 64.7896 445.163 64.1084 445.22 63.4228C445.287 62.7327 445.518 62.1067 445.916 61.5449C446.318 60.9689 446.857 60.5232 447.534 60.2076C448.066 59.9597 448.606 59.8313 449.155 59.8224C449.7 59.8039 450.224 59.9065 450.729 60.1302L450.264 61.406C449.934 61.2538 449.585 61.187 449.217 61.2056C448.855 61.21 448.49 61.2979 448.122 61.4692C447.687 61.672 447.348 61.9539 447.104 62.3147C446.856 62.6658 446.716 63.0604 446.685 63.4986C446.654 63.9368 446.745 64.3831 446.957 64.8374C447.168 65.2918 447.452 65.6479 447.808 65.9058C448.163 66.1636 448.558 66.3152 448.991 66.3604C449.424 66.4056 449.858 66.3268 450.293 66.124C450.66 65.9527 450.964 65.7343 451.205 65.4689C451.452 65.1893 451.627 64.872 451.733 64.517L452.994 64.9881C452.846 65.5042 452.588 65.9719 452.218 66.3913C451.859 66.8062 451.413 67.1376 450.881 67.3856ZM454.761 65.3996L451.55 58.5116L452.855 57.9031L456.067 64.791L454.761 65.3996ZM454.234 60.8613L453.64 60.8736C453.229 59.9939 453.106 59.1984 453.268 58.487C453.431 57.7756 453.894 57.2419 454.658 56.8858C455.006 56.7235 455.349 56.6398 455.688 56.6348C456.023 56.62 456.376 56.6965 456.748 56.8642L456.305 58.1477C456.088 58.0606 455.877 58.0238 455.671 58.0373C455.466 58.0508 455.247 58.1116 455.015 58.2198C454.532 58.4452 454.207 58.7847 454.042 59.2383C453.877 59.6919 453.941 60.2329 454.234 60.8613ZM463.613 61.4486C462.927 61.7687 462.236 61.9025 461.54 61.8501C460.841 61.788 460.205 61.5607 459.634 61.1681C459.062 60.7755 458.616 60.236 458.296 59.5496C457.981 58.8729 457.851 58.1917 457.908 57.5061C457.975 56.816 458.202 56.1923 458.589 55.635C458.982 55.0635 459.512 54.6223 460.179 54.3112C460.817 54.0137 461.445 53.8973 462.064 53.9619C462.692 54.022 463.261 54.2451 463.771 54.6313C464.29 55.0129 464.7 55.5276 465.003 56.1753C465.048 56.272 465.092 56.3805 465.137 56.5011C465.177 56.6119 465.216 56.7466 465.255 56.9051L459.44 59.6167L458.933 58.5291L464.051 56.1421L463.769 56.7858C463.553 56.3218 463.288 55.9686 462.975 55.7262C462.657 55.4741 462.308 55.331 461.927 55.2967C461.542 55.2528 461.136 55.33 460.711 55.5283C460.266 55.7357 459.92 56.0149 459.672 56.3661C459.423 56.7172 459.289 57.1096 459.267 57.5433C459.246 57.9769 459.346 58.4306 459.567 58.9043C459.792 59.3877 460.087 59.768 460.452 60.0452C460.812 60.3127 461.218 60.4646 461.67 60.5008C462.118 60.5273 462.574 60.4324 463.038 60.216C463.425 60.0357 463.746 59.8035 464.002 59.5194C464.268 59.2308 464.453 58.8971 464.559 58.5182L465.799 58.9815C465.651 59.5215 465.382 60.0057 464.994 60.4341C464.615 60.858 464.154 61.1962 463.613 61.4486ZM471.126 57.9451C470.498 58.2381 469.855 58.3494 469.199 58.2789C468.538 58.1988 467.931 57.958 467.379 57.5563C466.836 57.1502 466.407 56.6088 466.092 55.9321C465.776 55.2554 465.637 54.5787 465.675 53.9021C465.722 53.221 465.923 52.6037 466.277 52.0503C466.64 51.4924 467.141 51.0646 467.779 50.7671C468.301 50.5237 468.817 50.4185 469.327 50.4515C469.842 50.4703 470.315 50.6145 470.747 50.884C471.174 51.1438 471.519 51.5183 471.782 52.0075L472.749 54.0811C472.95 54.5876 473.015 55.0929 472.944 55.5968C472.883 56.0962 472.696 56.5539 472.384 56.9701C472.077 57.3721 471.658 57.6971 471.126 57.9451ZM470.769 56.6111C471.417 56.309 471.837 55.8481 472.031 55.2282C472.22 54.5987 472.154 53.9408 471.834 53.2544C471.613 52.7807 471.33 52.4126 470.984 52.1503C470.643 51.8737 470.263 51.7154 469.845 51.6753C469.421 51.6256 468.992 51.7022 468.557 51.905C468.122 52.1079 467.783 52.3897 467.539 52.7505C467.305 53.1068 467.175 53.5088 467.148 53.9567C467.127 54.3904 467.222 54.8344 467.434 55.2887C467.65 55.7528 467.934 56.1208 468.284 56.3928C468.64 56.6507 469.034 56.8022 469.467 56.8475C469.9 56.8927 470.334 56.8139 470.769 56.6111ZM473.35 56.7317L472.484 54.8756L471.946 53.0785L470.922 51.5258L470.138 49.8437L471.458 49.2284L474.669 56.1163L473.35 56.7317ZM477.6 54.7499L473.042 44.9763L474.347 44.3677L478.905 54.1413L477.6 54.7499ZM473.246 49.8422L472.691 48.6531L477.39 46.4623L477.944 47.6513L473.246 49.8422ZM484.925 51.5105C484.239 51.8305 483.548 51.9644 482.853 51.912C482.153 51.8499 481.517 51.6226 480.946 51.23C480.374 50.8374 479.929 50.2979 479.609 49.6115C479.293 48.9348 479.164 48.2536 479.221 47.568C479.287 46.8779 479.514 46.2542 479.902 45.6969C480.294 45.1254 480.824 44.6841 481.491 44.3731C482.129 44.0756 482.758 43.9591 483.376 44.0237C484.004 44.0839 484.573 44.307 485.083 44.6931C485.602 45.0748 486.013 45.5894 486.315 46.2371C486.36 46.3338 486.405 46.4424 486.449 46.5629C486.489 46.6738 486.528 46.8085 486.567 46.967L480.752 49.6785L480.245 48.591L485.364 46.204L485.081 46.8477C484.865 46.3836 484.6 46.0304 484.287 45.7881C483.97 45.536 483.62 45.3928 483.239 45.3586C482.854 45.3146 482.449 45.3918 482.023 45.5902C481.579 45.7976 481.232 46.0768 480.984 46.4279C480.736 46.7791 480.601 47.1715 480.58 47.6051C480.558 48.0388 480.658 48.4925 480.879 48.9662C481.104 49.4495 481.399 49.8298 481.764 50.107C482.124 50.3746 482.53 50.5264 482.983 50.5626C483.431 50.5892 483.887 50.4943 484.351 50.2779C484.737 50.0976 485.059 49.8654 485.314 49.5813C485.58 49.2927 485.766 48.9589 485.872 48.58L487.112 49.0434C486.963 49.5834 486.695 50.0676 486.306 50.496C485.927 50.9199 485.467 51.258 484.925 51.5105ZM492.424 48.0137C491.786 48.3112 491.144 48.4225 490.497 48.3476C489.845 48.263 489.243 48.0198 488.691 47.6182C488.149 47.2121 487.72 46.6707 487.404 45.994C487.089 45.3172 486.95 44.6406 486.987 43.964C487.035 43.2829 487.235 42.6656 487.589 42.1122C487.943 41.5587 488.439 41.1333 489.077 40.8357C489.589 40.5968 490.105 40.4916 490.625 40.5201C491.14 40.5389 491.613 40.6831 492.045 40.9526C492.481 41.2079 492.831 41.5801 493.095 42.0693L494.062 44.143C494.263 44.6495 494.328 45.1547 494.257 45.6586C494.186 46.1625 493.994 46.6226 493.682 47.0388C493.366 47.4453 492.946 47.7703 492.424 48.0137ZM492.067 46.6797C492.502 46.4768 492.832 46.1995 493.056 45.8477C493.29 45.4915 493.418 45.0965 493.439 44.6628C493.456 44.2195 493.359 43.7706 493.147 43.3162C492.926 42.8426 492.638 42.4768 492.282 42.2189C491.936 41.9565 491.551 41.8005 491.128 41.7507C490.714 41.6965 490.29 41.7708 489.855 41.9736C489.42 42.1765 489.085 42.4561 488.851 42.8124C488.617 43.1686 488.487 43.5707 488.46 44.0185C488.439 44.4522 488.534 44.8962 488.746 45.3506C488.963 45.8146 489.246 46.1827 489.596 46.4547C489.952 46.7126 490.342 46.8664 490.765 46.9161C491.198 46.9613 491.632 46.8825 492.067 46.6797ZM495.982 46.1782L494.662 46.7935L493.797 44.9374L493.259 43.1404L492.235 41.5877L489.834 36.4399L491.154 35.8245L495.982 46.1782Z" fill="white"/>
<path d="M436.565 119.161L431.873 109.097L433.236 108.462L437.928 118.525L436.565 119.161ZM437.493 118.728L436.912 117.481L442.683 114.79L443.265 116.037L437.493 118.728ZM435.37 114.175L434.816 112.986L440.108 110.518L440.663 111.707L435.37 114.175ZM433.382 109.911L432.801 108.664L438.499 106.007L439.081 107.254L433.382 109.911ZM449.759 113.009L447.886 108.992C447.642 108.47 447.277 108.116 446.791 107.931C446.304 107.746 445.8 107.775 445.278 108.019C444.93 108.181 444.657 108.402 444.458 108.683C444.26 108.964 444.146 109.276 444.118 109.619C444.089 109.962 444.156 110.307 444.319 110.655L443.64 110.601C443.397 110.079 443.296 109.561 443.339 109.046C443.382 108.532 443.557 108.062 443.864 107.636C444.167 107.201 444.58 106.861 445.102 106.618C445.624 106.375 446.144 106.291 446.662 106.367C447.19 106.439 447.669 106.633 448.099 106.95C448.525 107.258 448.848 107.648 449.069 108.122L451.064 112.4L449.759 113.009ZM444.887 115.281L441.675 108.393L442.98 107.784L446.192 114.672L444.887 115.281ZM455.813 110.362C455.175 110.659 454.533 110.771 453.886 110.696C453.234 110.611 452.632 110.368 452.08 109.966C451.538 109.56 451.109 109.019 450.793 108.342C450.478 107.665 450.339 106.989 450.376 106.312C450.424 105.631 450.624 105.014 450.978 104.46C451.332 103.907 451.828 103.481 452.466 103.184C452.978 102.945 453.494 102.84 454.014 102.868C454.529 102.887 455.002 103.031 455.433 103.301C455.87 103.556 456.22 103.928 456.484 104.418L457.451 106.491C457.652 106.998 457.717 107.503 457.646 108.007C457.575 108.511 457.383 108.971 457.071 109.387C456.755 109.793 456.335 110.118 455.813 110.362ZM455.456 109.028C455.891 108.825 456.221 108.548 456.445 108.196C456.679 107.84 456.807 107.445 456.828 107.011C456.845 106.568 456.748 106.119 456.536 105.664C456.315 105.191 456.027 104.825 455.671 104.567C455.325 104.305 454.94 104.149 454.517 104.099C454.103 104.045 453.679 104.119 453.244 104.322C452.809 104.525 452.474 104.804 452.24 105.161C452.006 105.517 451.876 105.919 451.849 106.367C451.828 106.8 451.923 107.244 452.135 107.699C452.351 108.163 452.635 108.531 452.985 108.803C453.341 109.061 453.731 109.215 454.154 109.264C454.587 109.31 455.021 109.231 455.456 109.028ZM459.371 108.526L458.051 109.142L457.186 107.286L456.648 105.489L455.624 103.936L453.223 98.7881L454.543 98.1727L459.371 108.526ZM461.271 107.64L456.443 97.2867L457.748 96.6781L462.576 107.032L461.271 107.64ZM467.743 104.799C467.057 105.119 466.366 105.253 465.671 105.2C464.971 105.138 464.335 104.911 463.764 104.518C463.192 104.126 462.747 103.586 462.427 102.9C462.111 102.223 461.982 101.542 462.039 100.856C462.105 100.166 462.332 99.5425 462.72 98.9852C463.112 98.4137 463.642 97.9725 464.309 97.6614C464.947 97.3639 465.575 97.2474 466.194 97.3121C466.822 97.3722 467.391 97.5953 467.901 97.9814C468.42 98.3631 468.831 98.8778 469.133 99.5255C469.178 99.6221 469.223 99.7307 469.267 99.8512C469.307 99.9621 469.346 100.097 469.385 100.255L463.57 102.967L463.063 101.879L468.182 99.4923L467.899 100.136C467.683 99.672 467.418 99.3187 467.105 99.0764C466.787 98.8243 466.438 98.6812 466.057 98.6469C465.672 98.603 465.267 98.6802 464.841 98.8785C464.397 99.0859 464.05 99.3651 463.802 99.7162C463.554 100.067 463.419 100.46 463.398 100.893C463.376 101.327 463.476 101.781 463.697 102.254C463.922 102.738 464.217 103.118 464.582 103.395C464.942 103.663 465.348 103.815 465.801 103.851C466.249 103.878 466.704 103.783 467.169 103.566C467.555 103.386 467.876 103.154 468.132 102.87C468.398 102.581 468.584 102.247 468.689 101.868L469.929 102.332C469.781 102.872 469.513 103.356 469.124 103.784C468.745 104.208 468.285 104.546 467.743 104.799ZM474.517 101.64C474.13 101.82 473.741 101.943 473.347 102.009C472.959 102.06 472.578 102.062 472.202 102.013C471.822 101.955 471.465 101.845 471.13 101.684L471.579 100.45C471.975 100.642 472.373 100.739 472.774 100.741C473.17 100.732 473.571 100.634 473.977 100.444C474.383 100.255 474.666 100.041 474.825 99.8017C474.98 99.553 474.999 99.303 474.881 99.0517C474.764 98.8003 474.582 98.6498 474.335 98.6001C474.094 98.5362 473.812 98.5262 473.492 98.5699C473.166 98.6039 472.824 98.6518 472.464 98.7136C472.11 98.7612 471.758 98.7778 471.41 98.7636C471.062 98.7493 470.738 98.6593 470.437 98.4936C470.146 98.3234 469.903 98.0304 469.709 97.6147C469.516 97.199 469.45 96.794 469.514 96.3997C469.572 95.9957 469.742 95.6281 470.023 95.2969C470.314 94.9613 470.716 94.674 471.228 94.4351C471.769 94.1826 472.293 94.0562 472.799 94.0557C473.31 94.041 473.789 94.1591 474.235 94.4099L473.786 95.6431C473.476 95.4819 473.144 95.4013 472.791 95.4012C472.447 95.3966 472.097 95.4777 471.739 95.6444C471.362 95.8203 471.103 96.0232 470.964 96.2532C470.829 96.469 470.816 96.6929 470.924 96.9249C471.032 97.157 471.202 97.2952 471.435 97.3398C471.668 97.3843 471.944 97.3847 472.265 97.341C472.596 97.2927 472.938 97.2448 473.293 97.1973C473.643 97.14 473.994 97.1234 474.346 97.1473C474.699 97.1713 475.023 97.2732 475.319 97.453C475.624 97.6284 475.876 97.9288 476.074 98.3541C476.376 99.0018 476.383 99.6224 476.095 100.216C475.816 100.805 475.291 101.279 474.517 101.64ZM480.706 98.7544C480.319 98.9347 479.929 99.0577 479.536 99.1233C479.148 99.1747 478.766 99.1762 478.39 99.1278C478.01 99.0697 477.653 98.9597 477.319 98.7979L477.767 97.5646C478.163 97.7568 478.561 97.8535 478.962 97.855C479.358 97.8467 479.76 97.7479 480.166 97.5586C480.572 97.3692 480.854 97.1551 481.013 96.916C481.168 96.6673 481.187 96.4173 481.07 96.166C480.953 95.9146 480.771 95.7641 480.524 95.7144C480.282 95.6505 480.001 95.6405 479.68 95.6842C479.354 95.7183 479.012 95.7662 478.652 95.8279C478.298 95.8755 477.947 95.8921 477.599 95.8779C477.251 95.8636 476.926 95.7736 476.625 95.6079C476.334 95.4377 476.092 95.1447 475.898 94.729C475.704 94.3134 475.639 93.9083 475.702 93.514C475.761 93.11 475.931 92.7424 476.212 92.4112C476.502 92.0756 476.904 91.7883 477.416 91.5494C477.958 91.297 478.481 91.1705 478.987 91.17C479.498 91.1553 479.977 91.2734 480.423 91.5242L479.975 92.7574C479.664 92.5962 479.332 92.5156 478.979 92.5155C478.636 92.5109 478.285 92.592 477.927 92.7588C477.55 92.9346 477.292 93.1375 477.152 93.3675C477.017 93.5833 477.004 93.8072 477.112 94.0393C477.22 94.2713 477.391 94.4095 477.623 94.4541C477.856 94.4986 478.133 94.499 478.454 94.4553C478.784 94.4071 479.127 94.3592 479.481 94.3116C479.831 94.2543 480.182 94.2377 480.535 94.2616C480.887 94.2856 481.211 94.3875 481.507 94.5673C481.812 94.7427 482.064 95.0431 482.263 95.4684C482.565 96.1161 482.572 96.7367 482.283 97.3301C482.005 97.919 481.479 98.3938 480.706 98.7544ZM489.625 94.4186L483.687 88.8019L485.05 88.1663L489.524 92.612L489.089 92.8149L488.545 86.5367L489.299 86.185L493.758 90.6375L493.323 90.8404L492.794 84.5554L494.157 83.9198L494.657 92.0722L493.888 92.4306L489.474 88.1512L489.953 87.928L490.379 94.067L489.625 94.4186ZM501.327 89.1384C500.699 89.4314 500.056 89.5427 499.4 89.4722C498.739 89.3921 498.132 89.1513 497.58 88.7496C497.037 88.3435 496.608 87.8021 496.293 87.1254C495.977 86.4487 495.838 85.772 495.876 85.0954C495.923 84.4143 496.124 83.797 496.478 83.2436C496.841 82.6857 497.342 82.2579 497.98 81.9604C498.502 81.717 499.018 81.6118 499.528 81.6448C500.043 81.6636 500.516 81.8078 500.947 82.0773C501.375 82.3371 501.72 82.7116 501.983 83.2008L502.95 85.2744C503.151 85.7809 503.216 86.2862 503.145 86.7901C503.084 87.2895 502.897 87.7472 502.585 88.1634C502.278 88.5654 501.859 88.8904 501.327 89.1384ZM500.97 87.8044C501.618 87.5023 502.038 87.0414 502.232 86.4215C502.421 85.792 502.355 85.1341 502.035 84.4477C501.814 83.974 501.531 83.6059 501.185 83.3436C500.844 83.067 500.464 82.9087 500.045 82.8686C499.622 82.8189 499.193 82.8955 498.758 83.0983C498.323 83.3012 497.983 83.583 497.74 83.9438C497.506 84.3001 497.375 84.7021 497.349 85.15C497.327 85.5837 497.423 86.0277 497.635 86.482C497.851 86.9461 498.134 87.3141 498.485 87.5861C498.841 87.844 499.235 87.9955 499.668 88.0408C500.101 88.086 500.535 88.0072 500.97 87.8044ZM503.551 87.925L502.685 86.0689L502.147 84.2718L501.123 82.7191L500.339 81.037L501.658 80.4217L504.87 87.3096L503.551 87.925ZM506.785 86.4169L503.573 79.5289L504.878 78.9203L508.09 85.8083L506.785 86.4169ZM503.583 77.847C503.341 77.9597 503.107 77.9748 502.88 77.8923C502.649 77.8001 502.477 77.6331 502.364 77.3914C502.256 77.1594 502.243 76.93 502.326 76.7032C502.404 76.4667 502.564 76.2921 502.806 76.1794C503.047 76.0667 503.284 76.0565 503.515 76.1487C503.742 76.2313 503.909 76.3885 504.017 76.6206C504.13 76.8622 504.148 77.1013 504.069 77.3378C503.987 77.5646 503.825 77.7343 503.583 77.847ZM511.072 84.4178L506.514 74.6442L507.819 74.0356L512.377 83.8092L511.072 84.4178ZM506.718 79.5101L506.163 78.321L510.862 76.1302L511.416 77.3192L506.718 79.5101ZM515.366 82.4152L512.155 75.5273L513.46 74.9187L516.672 81.8066L515.366 82.4152ZM512.165 73.8454C511.923 73.9581 511.689 73.9731 511.462 73.8906C511.231 73.7984 511.059 73.6314 510.946 73.3898C510.838 73.1577 510.825 72.9283 510.908 72.7015C510.986 72.4651 511.145 72.2905 511.387 72.1778C511.629 72.0651 511.865 72.0548 512.097 72.147C512.323 72.2296 512.491 72.3869 512.599 72.6189C512.712 72.8606 512.729 73.0997 512.651 73.3361C512.569 73.5629 512.406 73.7327 512.165 73.8454ZM523.467 78.6378L521.594 74.621C521.351 74.099 520.986 73.7454 520.499 73.5603C520.013 73.3753 519.509 73.4044 518.987 73.6479C518.639 73.8101 518.365 74.0317 518.167 74.3126C517.968 74.5935 517.855 74.9054 517.826 75.2482C517.798 75.591 517.865 75.9364 518.027 76.2844L517.348 76.2301C517.105 75.7081 517.005 75.19 517.047 74.6757C517.09 74.1615 517.265 73.6915 517.573 73.2656C517.876 72.8301 518.288 72.4906 518.81 72.2472C519.332 72.0038 519.852 71.9202 520.37 71.9964C520.898 72.068 521.377 72.2625 521.807 72.5796C522.233 72.8871 522.557 73.2777 522.777 73.7514L524.772 78.0292L523.467 78.6378ZM518.595 80.9098L515.383 74.0218L516.688 73.4133L519.9 80.3012L518.595 80.9098ZM530.809 78.9039C530.103 79.2329 529.414 79.3954 528.741 79.3914C528.078 79.3828 527.472 79.2183 526.922 78.8979L527.365 77.6501C527.812 77.8771 528.271 77.9923 528.744 77.9956C529.221 78.0086 529.725 77.8912 530.257 77.6433C530.962 77.3142 531.43 76.8665 531.66 76.3001C531.905 75.7389 531.881 75.1441 531.588 74.5157L530.79 72.8046L530.298 71.1448L529.349 69.7159L528.504 67.9033L529.809 67.2948L532.893 73.9072C533.199 74.5645 533.313 75.2119 533.233 75.8492C533.163 76.4819 532.918 77.067 532.498 77.6043C532.088 78.1371 531.525 78.5703 530.809 78.9039ZM529.342 75.7572C528.713 76.0502 528.078 76.164 527.436 76.0988C526.803 76.029 526.22 75.8007 525.686 75.4139C525.148 75.0174 524.726 74.4905 524.419 73.8331C524.113 73.1758 523.985 72.5233 524.036 71.8757C524.083 71.2184 524.283 70.625 524.636 70.0954C524.995 69.5516 525.488 69.1332 526.116 68.8402C526.658 68.5878 527.186 68.471 527.701 68.4898C528.216 68.5086 528.684 68.6551 529.106 68.9291C529.533 69.1889 529.876 69.5705 530.134 70.0738L530.986 71.9009C531.192 72.4171 531.259 72.9272 531.188 73.4311C531.122 73.9208 530.931 74.369 530.614 74.7755C530.298 75.182 529.873 75.5092 529.342 75.7572ZM529.028 74.4029C529.453 74.2045 529.783 73.9391 530.016 73.6067C530.259 73.2697 530.391 72.8963 530.412 72.4865C530.428 72.067 530.332 71.6349 530.125 71.1902C529.918 70.7455 529.646 70.4017 529.309 70.1586C528.977 69.9014 528.609 69.7554 528.204 69.7204C527.795 69.6758 527.373 69.755 526.938 69.9578C526.503 70.1607 526.166 70.4354 525.927 70.7821C525.684 71.119 525.545 71.5017 525.509 71.9302C525.479 72.3446 525.565 72.7693 525.768 73.2043C525.971 73.6393 526.243 73.9832 526.585 74.2359C526.936 74.4841 527.321 74.6282 527.739 74.6683C528.164 74.6942 528.593 74.6057 529.028 74.4029ZM536.15 72.9003C535.879 73.0265 535.609 73.0406 535.34 72.9425C535.076 72.8303 534.883 72.6437 534.761 72.3827C534.635 72.112 534.618 71.8491 534.711 71.594C534.809 71.3246 534.993 71.1269 535.264 71.0006C535.535 70.8744 535.8 70.8626 536.06 70.9651C536.324 71.0535 536.52 71.233 536.646 71.5037C536.768 71.7647 536.782 72.0347 536.688 72.3137C536.6 72.5785 536.421 72.774 536.15 72.9003ZM540.356 70.939C540.085 71.0653 539.815 71.0794 539.546 70.9813C539.282 70.8691 539.089 70.6825 538.967 70.4215C538.841 70.1508 538.824 69.8879 538.917 69.6327C539.015 69.3634 539.199 69.1656 539.47 69.0394C539.741 68.9132 540.006 68.9014 540.265 69.0039C540.53 69.0923 540.726 69.2718 540.852 69.5425C540.974 69.8035 540.988 70.0735 540.894 70.3525C540.806 70.6173 540.626 70.8128 540.356 70.939ZM544.562 68.9778C544.291 69.1041 544.021 69.1181 543.752 69.0201C543.487 68.9079 543.294 68.7213 543.173 68.4603C543.047 68.1896 543.03 67.9267 543.123 67.6715C543.221 67.4022 543.405 67.2044 543.676 67.0782C543.946 66.952 544.212 66.9401 544.471 67.0427C544.736 67.131 544.932 67.3106 545.058 67.5812C545.18 67.8423 545.194 68.1123 545.1 68.3913C545.012 68.6561 544.832 68.8516 544.562 68.9778Z" fill="#8A66BD"/>
<path d="M482.565 138.786L477.873 128.722L479.236 128.087L483.928 138.15L482.565 138.786ZM481.431 133.93L480.849 132.683L486.099 130.235L486.68 131.483L481.431 133.93ZM479.382 129.537L478.801 128.29L484.296 125.727L484.878 126.974L479.382 129.537ZM493.492 133.867C492.815 134.183 492.132 134.307 491.442 134.241C490.752 134.174 490.121 133.945 489.549 133.552C488.973 133.15 488.528 132.61 488.212 131.933C487.901 131.266 487.781 130.593 487.852 129.912C487.919 129.222 488.148 128.591 488.541 128.02C488.933 127.448 489.468 127.005 490.145 126.689C490.812 126.378 491.49 126.256 492.181 126.323C492.876 126.375 493.509 126.598 494.081 126.99C494.652 127.383 495.093 127.913 495.404 128.58C495.72 129.256 495.847 129.945 495.785 130.644C495.718 131.334 495.484 131.968 495.081 132.544C494.689 133.115 494.159 133.556 493.492 133.867ZM492.904 132.606C493.339 132.403 493.678 132.121 493.922 131.76C494.165 131.399 494.303 131 494.334 130.562C494.36 130.114 494.268 129.663 494.056 129.208C493.848 128.764 493.562 128.415 493.197 128.161C492.841 127.904 492.449 127.757 492.021 127.721C491.597 127.671 491.168 127.748 490.733 127.951C490.298 128.154 489.959 128.436 489.715 128.796C489.467 129.147 489.327 129.542 489.296 129.98C489.265 130.418 489.353 130.86 489.561 131.305C489.772 131.759 490.058 132.12 490.419 132.387C490.774 132.645 491.169 132.797 491.602 132.842C492.035 132.887 492.469 132.809 492.904 132.606ZM498.491 131.36L493.663 121.006L494.968 120.397L499.796 130.751L498.491 131.36ZM501.706 129.861L496.878 119.507L498.183 118.898L503.011 129.252L501.706 129.861ZM508.134 127.039C507.458 127.355 506.774 127.479 506.084 127.413C505.394 127.346 504.763 127.117 504.192 126.724C503.616 126.322 503.17 125.782 502.855 125.106C502.543 124.439 502.423 123.765 502.495 123.084C502.561 122.394 502.791 121.763 503.183 121.192C503.576 120.62 504.111 120.177 504.787 119.861C505.454 119.55 506.133 119.428 506.823 119.495C507.518 119.547 508.152 119.77 508.723 120.162C509.295 120.555 509.736 121.085 510.047 121.752C510.363 122.428 510.489 123.117 510.427 123.816C510.361 124.507 510.126 125.14 509.724 125.716C509.331 126.287 508.802 126.728 508.134 127.039ZM507.546 125.778C507.981 125.575 508.321 125.293 508.564 124.932C508.808 124.572 508.945 124.172 508.976 123.734C509.003 123.286 508.91 122.835 508.698 122.381C508.491 121.936 508.205 121.587 507.839 121.333C507.484 121.076 507.092 120.929 506.663 120.893C506.24 120.844 505.811 120.92 505.376 121.123C504.941 121.326 504.601 121.608 504.358 121.968C504.109 122.32 503.97 122.714 503.939 123.152C503.908 123.591 503.996 124.032 504.203 124.477C504.415 124.931 504.701 125.292 505.061 125.56C505.417 125.817 505.811 125.969 506.244 126.014C506.677 126.059 507.111 125.981 507.546 125.778ZM514.907 123.705L508.969 118.088L510.332 117.452L514.806 121.898L514.371 122.101L513.827 115.823L514.581 115.471L519.041 119.923L518.606 120.126L518.076 113.841L519.439 113.206L519.939 121.358L519.171 121.717L514.757 117.437L515.235 117.214L515.661 123.353L514.907 123.705ZM529.679 116.993C529.109 117.259 528.538 117.372 527.966 117.333C527.4 117.279 526.885 117.084 526.422 116.746C525.959 116.409 525.587 115.941 525.308 115.342L523.441 111.339L524.746 110.731L526.586 114.675C526.762 115.052 526.978 115.351 527.234 115.573C527.496 115.781 527.786 115.898 528.105 115.926C528.424 115.954 528.752 115.889 529.091 115.731C529.603 115.492 529.93 115.146 530.071 114.692C530.208 114.228 530.143 113.71 529.877 113.14L528.038 109.196L529.343 108.587L531.21 112.59C531.489 113.189 531.609 113.774 531.57 114.346C531.53 114.918 531.349 115.438 531.026 115.906C530.708 116.36 530.259 116.722 529.679 116.993ZM537.997 113.114C537.475 113.358 536.952 113.472 536.427 113.458C535.908 113.429 535.432 113.28 535.001 113.011C534.569 112.741 534.224 112.367 533.965 111.887L532.998 109.814C532.793 109.297 532.728 108.792 532.803 108.298C532.884 107.79 533.082 107.332 533.399 106.926C533.721 106.505 534.138 106.175 534.65 105.936C535.278 105.643 535.918 105.539 536.57 105.624C537.231 105.704 537.833 105.947 538.375 106.353C538.918 106.759 539.347 107.3 539.662 107.977C539.978 108.654 540.117 109.331 540.079 110.007C540.042 110.684 539.841 111.301 539.477 111.859C539.119 112.403 538.626 112.821 537.997 113.114ZM535.65 117.545L531.092 107.772L532.398 107.163L533.243 108.976L533.774 110.758L534.805 112.325L536.955 116.937L535.65 117.545ZM537.205 111.983C537.64 111.78 537.974 111.501 538.208 111.144C538.443 110.788 538.575 110.391 538.606 109.953C538.633 109.505 538.538 109.049 538.321 108.585C538.109 108.13 537.823 107.769 537.463 107.502C537.103 107.234 536.714 107.081 536.295 107.041C535.872 106.991 535.447 107.065 535.022 107.263C534.587 107.466 534.252 107.746 534.018 108.102C533.78 108.449 533.652 108.844 533.635 109.287C533.618 109.73 533.718 110.184 533.934 110.648C534.146 111.102 534.423 111.468 534.763 111.744C535.109 112.007 535.494 112.163 535.917 112.213C536.35 112.258 536.78 112.181 537.205 111.983ZM545.002 109.848C544.615 110.028 544.225 110.151 543.832 110.217C543.444 110.268 543.062 110.27 542.686 110.221C542.306 110.163 541.949 110.053 541.615 109.891L542.063 108.658C542.459 108.85 542.857 108.947 543.258 108.948C543.654 108.94 544.056 108.841 544.462 108.652C544.868 108.463 545.15 108.249 545.31 108.01C545.464 107.761 545.483 107.511 545.366 107.259C545.249 107.008 545.067 106.858 544.82 106.808C544.578 106.744 544.297 106.734 543.976 106.778C543.651 106.812 543.308 106.86 542.948 106.921C542.594 106.969 542.243 106.986 541.895 106.971C541.547 106.957 541.222 106.867 540.922 106.701C540.63 106.531 540.388 106.238 540.194 105.823C540 105.407 539.935 105.002 539.998 104.607C540.057 104.203 540.227 103.836 540.508 103.505C540.799 103.169 541.2 102.882 541.712 102.643C542.254 102.39 542.777 102.264 543.283 102.264C543.794 102.249 544.273 102.367 544.72 102.618L544.271 103.851C543.96 103.69 543.628 103.609 543.275 103.609C542.932 103.604 542.581 103.685 542.223 103.852C541.846 104.028 541.588 104.231 541.448 104.461C541.313 104.677 541.3 104.901 541.408 105.133C541.516 105.365 541.687 105.503 541.919 105.548C542.152 105.592 542.429 105.593 542.75 105.549C543.08 105.501 543.423 105.453 543.777 105.405C544.127 105.348 544.478 105.331 544.831 105.355C545.183 105.379 545.507 105.481 545.803 105.661C546.109 105.836 546.36 106.137 546.559 106.562C546.861 107.21 546.868 107.83 546.579 108.424C546.301 109.013 545.775 109.487 545.002 109.848ZM549.749 109.4L549.843 107.255L550.253 106.922C550.255 107.051 550.232 107.168 550.187 107.271C550.15 107.37 550.079 107.445 549.973 107.494C549.77 107.589 549.543 107.595 549.292 107.512C549.047 107.414 548.866 107.24 548.748 106.989C548.618 106.708 548.601 106.433 548.699 106.164C548.793 105.885 548.98 105.68 549.26 105.549C549.511 105.432 549.779 105.425 550.062 105.528C550.341 105.622 550.546 105.809 550.677 106.089C550.727 106.196 550.763 106.337 550.787 106.515C550.816 106.678 550.822 106.904 550.804 107.195L550.692 109.454L549.749 109.4ZM559.157 103.247C558.48 103.563 557.792 103.69 557.092 103.627C556.402 103.561 555.771 103.331 555.2 102.939C554.633 102.532 554.195 101.995 553.884 101.328C553.568 100.651 553.439 99.9701 553.496 99.2845C553.562 98.5943 553.794 97.9684 554.191 97.4066C554.593 96.8306 555.133 96.3849 555.81 96.0693C556.341 95.8214 556.882 95.693 557.431 95.6841C557.975 95.6656 558.5 95.7682 559.004 95.9919L558.54 97.2677C558.21 97.1155 557.861 97.0487 557.493 97.0673C557.13 97.0717 556.765 97.1596 556.398 97.3309C555.963 97.5337 555.624 97.8156 555.38 98.1763C555.132 98.5275 554.992 98.9221 554.961 99.3603C554.93 99.7985 555.02 100.245 555.232 100.699C555.444 101.153 555.728 101.51 556.083 101.767C556.439 102.025 556.833 102.177 557.266 102.222C557.699 102.267 558.133 102.189 558.568 101.986C558.936 101.814 559.24 101.596 559.481 101.331C559.727 101.051 559.903 100.734 560.008 100.379L561.269 100.85C561.122 101.366 560.863 101.834 560.494 102.253C560.134 102.668 559.688 102.999 559.157 103.247ZM567.909 98.9893L566.036 94.9725C565.793 94.4505 565.428 94.0969 564.942 93.9118C564.455 93.7268 563.951 93.7559 563.429 93.9994C563.081 94.1616 562.808 94.3832 562.609 94.6641C562.41 94.945 562.297 95.2569 562.268 95.5997C562.24 95.9425 562.307 96.2879 562.469 96.6359L561.791 96.5816C561.547 96.0596 561.447 95.5415 561.49 95.0272C561.532 94.513 561.707 94.043 562.015 93.6171C562.318 93.1816 562.73 92.8421 563.252 92.5987C563.774 92.3553 564.288 92.2572 564.792 92.3043C565.306 92.347 565.776 92.5221 566.202 92.8296C566.628 93.1371 566.967 93.5616 567.22 94.1029L569.215 98.3807L567.909 98.9893ZM563.037 101.261L558.209 90.9076L559.514 90.299L564.342 100.653L563.037 101.261ZM573.978 96.3359C573.35 96.6289 572.707 96.7402 572.051 96.6697C571.39 96.5896 570.783 96.3488 570.231 95.9472C569.688 95.541 569.259 94.9996 568.944 94.3229C568.628 93.6462 568.489 92.9695 568.527 92.2929C568.574 91.6118 568.775 90.9945 569.129 90.4411C569.492 89.8832 569.993 89.4554 570.631 89.1579C571.153 88.9145 571.669 88.8093 572.179 88.8423C572.694 88.8611 573.167 89.0053 573.599 89.2748C574.026 89.5346 574.371 89.9091 574.634 90.3983L575.601 92.4719C575.802 92.9784 575.867 93.4837 575.796 93.9876C575.735 94.487 575.548 94.9447 575.236 95.3609C574.929 95.763 574.51 96.0879 573.978 96.3359ZM573.621 95.0019C574.269 94.6998 574.689 94.2389 574.883 93.619C575.072 92.9895 575.006 92.3316 574.686 91.6452C574.465 91.1715 574.182 90.8035 573.836 90.5411C573.495 90.2645 573.115 90.1062 572.697 90.0661C572.273 90.0164 571.844 90.093 571.409 90.2958C570.974 90.4987 570.635 90.7805 570.391 91.1413C570.157 91.4976 570.027 91.8996 570 92.3475C569.979 92.7812 570.074 93.2252 570.286 93.6795C570.502 94.1436 570.786 94.5116 571.136 94.7836C571.492 95.0415 571.886 95.1931 572.319 95.2383C572.752 95.2835 573.186 95.2047 573.621 95.0019ZM576.202 95.1225L575.336 93.2664L574.798 91.4693L573.774 89.9166L572.99 88.2345L574.31 87.6192L577.521 94.5071L576.202 95.1225ZM581.679 92.7451C581.292 92.9254 580.902 93.0484 580.509 93.114C580.121 93.1654 579.739 93.1669 579.364 93.1185C578.983 93.0604 578.626 92.9504 578.292 92.7886L578.741 91.5553C579.136 91.7475 579.534 91.8442 579.935 91.8456C580.332 91.8374 580.733 91.7386 581.139 91.5492C581.545 91.3599 581.827 91.1457 581.987 90.9067C582.141 90.658 582.16 90.408 582.043 90.1567C581.926 89.9053 581.744 89.7548 581.497 89.7051C581.255 89.6412 580.974 89.6312 580.653 89.6749C580.328 89.7089 579.985 89.7568 579.626 89.8186C579.271 89.8662 578.92 89.8828 578.572 89.8685C578.224 89.8543 577.9 89.7643 577.599 89.5986C577.307 89.4284 577.065 89.1354 576.871 88.7197C576.677 88.304 576.612 87.899 576.675 87.5047C576.734 87.1006 576.904 86.7331 577.185 86.4019C577.476 86.0663 577.877 85.779 578.39 85.5401C578.931 85.2876 579.455 85.1612 579.96 85.1607C580.471 85.146 580.95 85.2641 581.397 85.5149L580.948 86.7481C580.637 86.5869 580.305 86.5063 579.952 86.5062C579.609 86.5016 579.258 86.5826 578.901 86.7494C578.524 86.9253 578.265 87.1282 578.125 87.3582C577.99 87.574 577.977 87.7979 578.085 88.0299C578.194 88.262 578.364 88.4002 578.597 88.4448C578.829 88.4893 579.106 88.4897 579.427 88.446C579.757 88.3977 580.1 88.3498 580.454 88.3023C580.804 88.245 581.156 88.2284 581.508 88.2523C581.86 88.2762 582.185 88.3782 582.48 88.558C582.786 88.7334 583.038 89.0338 583.236 89.4591C583.538 90.1068 583.545 90.7274 583.257 91.3208C582.978 91.9097 582.452 92.3845 581.679 92.7451ZM585.624 90.7287L582.412 83.8407L583.718 83.2322L586.929 90.1201L585.624 90.7287ZM582.423 82.1589C582.181 82.2716 581.947 82.2866 581.72 82.2041C581.489 82.1119 581.317 81.9449 581.204 81.7032C581.096 81.4712 581.083 81.2418 581.165 81.015C581.243 80.7785 581.403 80.6039 581.645 80.4913C581.887 80.3786 582.123 80.3683 582.354 80.4605C582.581 80.5431 582.749 80.7004 582.857 80.9324C582.97 81.1741 582.987 81.4131 582.909 81.6496C582.826 81.8764 582.664 82.0462 582.423 82.1589ZM593.725 86.9513L591.852 82.9345C591.609 82.4125 591.244 82.0589 590.757 81.8738C590.271 81.6887 589.766 81.7179 589.244 81.9613C588.896 82.1236 588.623 82.3452 588.425 82.6261C588.226 82.907 588.112 83.2189 588.084 83.5617C588.056 83.9045 588.122 84.2499 588.285 84.5979L587.606 84.5436C587.363 84.0216 587.262 83.5034 587.305 82.9892C587.348 82.475 587.523 82.005 587.83 81.5791C588.133 81.1436 588.546 80.8041 589.068 80.5607C589.59 80.3173 590.11 80.2336 590.628 80.3098C591.156 80.3815 591.635 80.5759 592.065 80.8931C592.491 81.2006 592.814 81.5912 593.035 82.0649L595.03 86.3427L593.725 86.9513ZM588.853 89.2233L585.641 82.3353L586.946 81.7267L590.158 88.6147L588.853 89.2233ZM601.067 87.2173C600.361 87.5464 599.672 87.7089 598.999 87.7049C598.336 87.6963 597.73 87.5318 597.18 87.2114L597.622 85.9636C598.07 86.1906 598.529 86.3057 599.002 86.3091C599.479 86.3221 599.983 86.2047 600.514 85.9567C601.22 85.6277 601.688 85.1799 601.918 84.6136C602.163 84.0524 602.138 83.4576 601.845 82.8292L601.048 81.1181L600.556 79.4583L599.607 78.0294L598.762 76.2168L600.067 75.6082L603.151 82.2207C603.457 82.878 603.571 83.5254 603.491 84.1626C603.421 84.7954 603.176 85.3805 602.756 85.9178C602.345 86.4506 601.782 86.8838 601.067 87.2173ZM599.6 84.0706C598.971 84.3637 598.336 84.4775 597.693 84.4123C597.061 84.3425 596.478 84.1142 595.944 83.7274C595.406 83.3309 594.984 82.804 594.677 82.1466C594.371 81.4893 594.243 80.8368 594.294 80.1892C594.341 79.5319 594.541 78.9385 594.894 78.4089C595.252 77.8651 595.746 77.4467 596.374 77.1537C596.916 76.9013 597.444 76.7844 597.959 76.8033C598.473 76.8221 598.942 76.9685 599.364 77.2425C599.791 77.5024 600.134 77.8839 600.392 78.3873L601.244 80.2144C601.449 80.7306 601.517 81.2407 601.446 81.7446C601.38 82.2343 601.189 82.6824 600.872 83.089C600.555 83.4955 600.131 83.8227 599.6 84.0706ZM599.286 82.7163C599.711 82.518 600.041 82.2526 600.274 81.9202C600.517 81.5832 600.649 81.2098 600.67 80.8C600.686 80.3805 600.59 79.9484 600.383 79.5037C600.176 79.059 599.903 78.7151 599.567 78.4721C599.235 78.2149 598.867 78.0688 598.462 78.0339C598.053 77.9893 597.631 78.0685 597.196 78.2713C596.761 78.4742 596.424 78.7489 596.185 79.0955C595.942 79.4325 595.803 79.8152 595.767 80.2437C595.737 80.6581 595.823 81.0827 596.026 81.5178C596.229 81.9528 596.501 82.2967 596.842 82.5494C597.194 82.7976 597.579 82.9417 597.997 82.9818C598.421 83.0077 598.851 82.9192 599.286 82.7163ZM606.408 81.2137C606.137 81.34 605.867 81.3541 605.598 81.256C605.334 81.1438 605.141 80.9572 605.019 80.6962C604.893 80.4255 604.876 80.1626 604.969 79.9074C605.067 79.6381 605.251 79.4403 605.522 79.3141C605.793 79.1879 606.058 79.176 606.318 79.2786C606.582 79.3669 606.778 79.5465 606.904 79.8172C607.026 80.0782 607.04 80.3482 606.946 80.6272C606.858 80.892 606.678 81.0875 606.408 81.2137ZM610.614 79.2525C610.343 79.3787 610.073 79.3928 609.804 79.2948C609.539 79.1826 609.347 78.996 609.225 78.735C609.099 78.4643 609.082 78.2014 609.175 77.9462C609.273 77.6769 609.457 77.4791 609.728 77.3529C609.999 77.2267 610.264 77.2148 610.523 77.3174C610.788 77.4057 610.984 77.5853 611.11 77.8559C611.232 78.117 611.246 78.387 611.152 78.666C611.064 78.9308 610.884 79.1263 610.614 79.2525ZM614.819 77.2913C614.549 77.4175 614.279 77.4316 614.009 77.3336C613.745 77.2214 613.552 77.0348 613.431 76.7738C613.304 76.5031 613.288 76.2402 613.381 75.985C613.479 75.7157 613.663 75.5179 613.934 75.3917C614.204 75.2655 614.47 75.2536 614.729 75.3562C614.994 75.4445 615.19 75.624 615.316 75.8947C615.437 76.1557 615.452 76.4257 615.358 76.7047C615.27 76.9696 615.09 77.1651 614.819 77.2913Z" fill="#8A66BD"/>
<path d="M536.565 158.125L531.873 148.062L533.236 147.426L537.928 157.49L536.565 158.125ZM537.493 157.692L536.912 156.445L542.306 153.93L542.888 155.177L537.493 157.692ZM547.309 153.292C546.622 153.612 545.932 153.746 545.236 153.693C544.537 153.631 543.901 153.404 543.329 153.011C542.758 152.619 542.312 152.079 541.992 151.393C541.677 150.716 541.547 150.035 541.604 149.349C541.671 148.659 541.898 148.036 542.285 147.478C542.678 146.907 543.208 146.466 543.875 146.154C544.513 145.857 545.141 145.741 545.76 145.805C546.388 145.865 546.957 146.088 547.466 146.475C547.986 146.856 548.396 147.371 548.698 148.019C548.744 148.115 548.788 148.224 548.833 148.344C548.873 148.455 548.912 148.59 548.951 148.748L543.136 151.46L542.628 150.372L547.747 147.985L547.465 148.629C547.249 148.165 546.984 147.812 546.671 147.569C546.353 147.317 546.004 147.174 545.623 147.14C545.238 147.096 544.832 147.173 544.407 147.372C543.962 147.579 543.616 147.858 543.368 148.209C543.119 148.56 542.985 148.953 542.963 149.387C542.942 149.82 543.042 150.274 543.262 150.748C543.488 151.231 543.783 151.611 544.148 151.888C544.508 152.156 544.914 152.308 545.366 152.344C545.814 152.371 546.27 152.276 546.734 152.059C547.121 151.879 547.442 151.647 547.698 151.363C547.964 151.074 548.149 150.74 548.255 150.361L549.495 150.825C549.347 151.365 549.078 151.849 548.689 152.277C548.31 152.701 547.85 153.039 547.309 153.292ZM556.698 148.737L554.825 144.72C554.581 144.198 554.216 143.845 553.73 143.66C553.243 143.475 552.739 143.504 552.217 143.747C551.869 143.91 551.596 144.131 551.397 144.412C551.199 144.693 551.085 145.005 551.057 145.348C551.028 145.69 551.095 146.036 551.257 146.384L550.579 146.33C550.336 145.808 550.235 145.289 550.278 144.775C550.321 144.261 550.496 143.791 550.803 143.365C551.106 142.93 551.519 142.59 552.041 142.347C552.563 142.103 553.083 142.02 553.601 142.096C554.129 142.167 554.608 142.362 555.038 142.679C555.464 142.987 555.787 143.377 556.008 143.851L558.003 148.129L556.698 148.737ZM551.825 151.009L548.614 144.121L549.919 143.513L553.131 150.401L551.825 151.009ZM564.04 149.003C563.334 149.332 562.645 149.495 561.972 149.491C561.309 149.482 560.703 149.318 560.153 148.997L560.595 147.75C561.042 147.977 561.502 148.092 561.974 148.095C562.451 148.108 562.956 147.991 563.487 147.743C564.193 147.414 564.661 146.966 564.891 146.4C565.135 145.838 565.111 145.244 564.818 144.615L564.02 142.904L563.529 141.244L562.58 139.815L561.735 138.003L563.04 137.394L566.123 144.007C566.43 144.664 566.543 145.311 566.464 145.949C566.394 146.581 566.149 147.166 565.729 147.704C565.318 148.237 564.755 148.67 564.04 149.003ZM562.572 145.857C561.944 146.15 561.309 146.263 560.666 146.198C560.033 146.128 559.45 145.9 558.917 145.513C558.379 145.117 557.957 144.59 557.65 143.933C557.344 143.275 557.216 142.623 557.267 141.975C557.314 141.318 557.513 140.724 557.867 140.195C558.225 139.651 558.719 139.233 559.347 138.94C559.888 138.687 560.416 138.57 560.931 138.589C561.446 138.608 561.915 138.755 562.337 139.028C562.764 139.288 563.106 139.67 563.365 140.173L564.217 142C564.422 142.517 564.489 143.027 564.418 143.531C564.352 144.02 564.161 144.468 563.845 144.875C563.528 145.281 563.104 145.609 562.572 145.857ZM562.259 144.502C562.684 144.304 563.013 144.039 563.247 143.706C563.49 143.369 563.622 142.996 563.642 142.586C563.659 142.166 563.563 141.734 563.356 141.29C563.148 140.845 562.876 140.501 562.539 140.258C562.207 140.001 561.839 139.855 561.435 139.82C561.025 139.775 560.603 139.854 560.168 140.057C559.733 140.26 559.396 140.535 559.158 140.881C558.915 141.218 558.776 141.601 558.74 142.03C558.71 142.444 558.796 142.869 558.999 143.304C559.202 143.739 559.474 144.083 559.815 144.335C560.166 144.584 560.551 144.728 560.97 144.768C561.394 144.794 561.824 144.705 562.259 144.502ZM569.226 142.895L564.668 133.122L565.973 132.513L570.531 142.287L569.226 142.895ZM564.872 137.988L564.317 136.798L569.016 134.608L569.57 135.797L564.872 137.988ZM578.378 138.627L576.505 134.611C576.262 134.089 575.897 133.735 575.41 133.55C574.924 133.365 574.42 133.394 573.898 133.637C573.55 133.8 573.276 134.021 573.078 134.302C572.879 134.583 572.766 134.895 572.737 135.238C572.709 135.581 572.776 135.926 572.938 136.274L572.26 136.22C572.016 135.698 571.916 135.18 571.958 134.665C572.001 134.151 572.176 133.681 572.484 133.255C572.787 132.82 573.199 132.48 573.721 132.237C574.243 131.993 574.757 131.895 575.261 131.942C575.775 131.985 576.245 132.16 576.671 132.468C577.097 132.775 577.436 133.2 577.689 133.741L579.683 138.019L578.378 138.627ZM573.506 140.899L568.678 130.546L569.983 129.937L574.811 140.291L573.506 140.899ZM583.74 136.198L577.513 130.645L578.964 129.969L583.718 134.372L583.254 134.588L583.053 128.062L584.503 127.386L584.523 135.833L583.74 136.198ZM583.086 139.945L583.175 134.837L584.523 135.833L584.536 139.269L583.086 139.945ZM595.608 130.769C595.086 131.013 594.563 131.127 594.038 131.113C593.519 131.085 593.044 130.936 592.612 130.666C592.18 130.397 591.835 130.022 591.576 129.543L590.609 127.469C590.404 126.953 590.339 126.448 590.414 125.953C590.495 125.445 590.694 124.987 591.01 124.581C591.332 124.16 591.749 123.83 592.261 123.592C592.89 123.299 593.529 123.194 594.181 123.279C594.842 123.359 595.444 123.602 595.986 124.008C596.529 124.414 596.958 124.956 597.273 125.633C597.589 126.309 597.728 126.986 597.69 127.662C597.653 128.339 597.452 128.956 597.088 129.514C596.73 130.058 596.237 130.476 595.608 130.769ZM591.915 132.315L587.087 121.961L588.393 121.353L590.793 126.501L591.324 128.283L592.355 129.85L593.22 131.706L591.915 132.315ZM594.816 129.638C595.251 129.435 595.586 129.156 595.82 128.8C596.054 128.443 596.186 128.046 596.217 127.608C596.244 127.16 596.149 126.704 595.932 126.24C595.721 125.786 595.435 125.425 595.074 125.157C594.714 124.89 594.325 124.736 593.906 124.696C593.483 124.646 593.058 124.72 592.633 124.919C592.198 125.122 591.863 125.401 591.629 125.757C591.391 126.104 591.263 126.499 591.246 126.942C591.229 127.386 591.329 127.839 591.545 128.303C591.757 128.758 592.034 129.123 592.374 129.4C592.72 129.662 593.105 129.818 593.528 129.868C593.961 129.913 594.391 129.837 594.816 129.638ZM603.352 127.158C602.724 127.451 602.081 127.563 601.425 127.492C600.764 127.412 600.157 127.171 599.605 126.77C599.062 126.364 598.633 125.822 598.318 125.145C598.002 124.469 597.863 123.792 597.901 123.115C597.948 122.434 598.149 121.817 598.503 121.264C598.866 120.706 599.367 120.278 600.005 119.98C600.527 119.737 601.043 119.632 601.553 119.665C602.068 119.684 602.541 119.828 602.972 120.097C603.4 120.357 603.745 120.732 604.008 121.221L604.975 123.294C605.176 123.801 605.241 124.306 605.17 124.81C605.109 125.31 604.922 125.767 604.61 126.184C604.303 126.586 603.884 126.91 603.352 127.158ZM602.995 125.824C603.643 125.522 604.063 125.061 604.257 124.442C604.446 123.812 604.38 123.154 604.06 122.468C603.839 121.994 603.556 121.626 603.21 121.364C602.869 121.087 602.489 120.929 602.07 120.889C601.647 120.839 601.218 120.916 600.783 121.118C600.348 121.321 600.008 121.603 599.765 121.964C599.531 122.32 599.4 122.722 599.374 123.17C599.353 123.604 599.448 124.048 599.66 124.502C599.876 124.966 600.159 125.334 600.51 125.606C600.866 125.864 601.26 126.016 601.693 126.061C602.126 126.106 602.56 126.027 602.995 125.824ZM605.576 125.945L604.71 124.089L604.172 122.292L603.148 120.739L602.364 119.057L603.683 118.442L606.895 125.33L605.576 125.945ZM612.01 123.121C611.333 123.437 610.645 123.564 609.945 123.502C609.255 123.435 608.624 123.205 608.053 122.813C607.486 122.406 607.048 121.869 606.737 121.202C606.421 120.525 606.292 119.844 606.349 119.159C606.415 118.468 606.647 117.842 607.044 117.281C607.446 116.705 607.986 116.259 608.663 115.943C609.194 115.695 609.735 115.567 610.284 115.558C610.828 115.54 611.353 115.642 611.857 115.866L611.393 117.142C611.063 116.99 610.714 116.923 610.346 116.941C609.983 116.946 609.618 117.034 609.251 117.205C608.816 117.408 608.476 117.69 608.233 118.05C607.985 118.402 607.845 118.796 607.814 119.234C607.783 119.673 607.873 120.119 608.085 120.573C608.297 121.028 608.581 121.384 608.936 121.642C609.292 121.899 609.686 122.051 610.119 122.096C610.552 122.141 610.986 122.063 611.421 121.86C611.789 121.688 612.093 121.47 612.334 121.205C612.58 120.925 612.756 120.608 612.861 120.253L614.122 120.724C613.975 121.24 613.716 121.708 613.347 122.127C612.987 122.542 612.541 122.873 612.01 123.121ZM620.298 119.08L615.436 117.057L617.057 112.205L618.638 111.468L616.816 116.837L616.523 116.056L621.98 118.295L620.298 119.08ZM615.89 121.135L611.062 110.782L612.367 110.173L617.195 120.527L615.89 121.135ZM629.125 115.14C628.497 115.433 627.854 115.545 627.198 115.474C626.537 115.394 625.93 115.153 625.378 114.752C624.836 114.345 624.406 113.804 624.091 113.127C623.775 112.451 623.636 111.774 623.674 111.097C623.721 110.416 623.922 109.799 624.276 109.245C624.639 108.688 625.14 108.26 625.778 107.962C626.3 107.719 626.816 107.614 627.326 107.647C627.841 107.665 628.314 107.81 628.746 108.079C629.173 108.339 629.518 108.713 629.781 109.203L630.748 111.276C630.949 111.783 631.014 112.288 630.943 112.792C630.882 113.291 630.695 113.749 630.383 114.165C630.076 114.567 629.657 114.892 629.125 115.14ZM628.768 113.806C629.416 113.504 629.836 113.043 630.03 112.423C630.219 111.794 630.153 111.136 629.833 110.45C629.612 109.976 629.329 109.608 628.983 109.345C628.642 109.069 628.262 108.911 627.844 108.871C627.42 108.821 626.991 108.897 626.556 109.1C626.121 109.303 625.782 109.585 625.538 109.946C625.304 110.302 625.174 110.704 625.147 111.152C625.126 111.586 625.221 112.03 625.433 112.484C625.649 112.948 625.933 113.316 626.283 113.588C626.639 113.846 627.033 113.997 627.466 114.043C627.899 114.088 628.333 114.009 628.768 113.806ZM631.349 113.927L630.483 112.071L629.945 110.274L628.921 108.721L628.137 107.039L629.457 106.424L632.668 113.311L631.349 113.927ZM639.441 110.153L637.568 106.137C637.324 105.615 636.959 105.261 636.473 105.076C635.986 104.891 635.482 104.92 634.96 105.164C634.612 105.326 634.339 105.547 634.14 105.828C633.942 106.109 633.828 106.421 633.8 106.764C633.771 107.107 633.838 107.452 634.001 107.8L633.322 107.746C633.079 107.224 632.978 106.706 633.021 106.191C633.064 105.677 633.239 105.207 633.546 104.781C633.849 104.346 634.262 104.006 634.784 103.763C635.306 103.519 635.826 103.436 636.344 103.512C636.872 103.584 637.351 103.778 637.781 104.095C638.207 104.403 638.53 104.793 638.751 105.267L640.746 109.545L639.441 110.153ZM634.569 112.425L631.357 105.538L632.662 104.929L635.874 111.817L634.569 112.425ZM645.495 107.507C644.857 107.804 644.215 107.916 643.568 107.841C642.916 107.756 642.314 107.513 641.762 107.111C641.22 106.705 640.791 106.164 640.475 105.487C640.16 104.81 640.021 104.134 640.058 103.457C640.106 102.776 640.306 102.159 640.66 101.605C641.014 101.052 641.51 100.626 642.148 100.329C642.66 100.09 643.176 99.9848 643.696 100.013C644.211 100.032 644.684 100.176 645.115 100.446C645.552 100.701 645.902 101.073 646.166 101.562L647.133 103.636C647.334 104.143 647.399 104.648 647.328 105.152C647.257 105.656 647.065 106.116 646.753 106.532C646.436 106.938 646.017 107.263 645.495 107.507ZM645.138 106.173C645.573 105.97 645.903 105.693 646.127 105.341C646.361 104.985 646.489 104.59 646.51 104.156C646.527 103.713 646.43 103.264 646.218 102.809C645.997 102.336 645.709 101.97 645.353 101.712C645.007 101.45 644.622 101.294 644.199 101.244C643.785 101.19 643.361 101.264 642.926 101.467C642.491 101.67 642.156 101.949 641.922 102.305C641.688 102.662 641.558 103.064 641.531 103.512C641.51 103.945 641.605 104.389 641.817 104.844C642.033 105.308 642.317 105.676 642.667 105.948C643.023 106.206 643.413 106.36 643.836 106.409C644.269 106.454 644.703 106.376 645.138 106.173ZM649.053 105.671L647.733 106.287L646.868 104.431L646.33 102.634L645.306 101.081L642.905 95.933L644.225 95.3177L649.053 105.671ZM654.955 102.919L651.263 95.0015C651.024 94.4891 650.928 93.9926 650.975 93.5119C651.017 93.0215 651.179 92.575 651.462 92.1723C651.755 91.7652 652.162 91.4399 652.684 91.1964C653.081 91.0116 653.455 90.9192 653.809 90.9193C654.162 90.9194 654.52 90.9937 654.883 91.142L654.42 92.382C654.231 92.3052 654.044 92.2691 653.857 92.2736C653.667 92.2683 653.46 92.3176 653.238 92.4213C652.822 92.6151 652.555 92.887 652.435 93.2368C652.326 93.5822 652.37 93.9676 652.568 94.3929L656.26 102.31L654.955 102.919ZM650.601 98.0113L650.047 96.8222L655.238 94.4014L655.793 95.5905L650.601 98.0113ZM662.579 99.5406C661.902 99.8561 661.219 99.9806 660.529 99.9141C659.838 99.8475 659.208 99.6179 658.636 99.2253C658.06 98.823 657.614 98.2835 657.299 97.6068C656.988 96.9398 656.868 96.266 656.939 95.5855C657.006 94.8954 657.235 94.2646 657.628 93.6932C658.02 93.1217 658.555 92.6782 659.232 92.3626C659.899 92.0516 660.577 91.9293 661.267 91.9959C661.963 92.0483 662.596 92.2708 663.168 92.6634C663.739 93.056 664.18 93.5859 664.491 94.2529C664.807 94.9296 664.934 95.6179 664.872 96.3177C664.805 97.0078 664.571 97.6408 664.168 98.2168C663.776 98.7883 663.246 99.2295 662.579 99.5406ZM661.991 98.279C662.426 98.0761 662.765 97.7943 663.009 97.4335C663.252 97.0727 663.39 96.6733 663.421 96.2351C663.447 95.7872 663.355 95.3361 663.143 94.8818C662.935 94.4371 662.649 94.088 662.284 93.8347C661.928 93.5768 661.536 93.4301 661.108 93.3945C660.684 93.3448 660.255 93.4214 659.82 93.6242C659.385 93.8271 659.046 94.1089 658.802 94.4697C658.554 94.8208 658.414 95.2155 658.383 95.6536C658.352 96.0918 658.44 96.5333 658.648 96.9779C658.859 97.4323 659.145 97.7933 659.506 98.0608C659.861 98.3187 660.255 98.4702 660.689 98.5154C661.122 98.5607 661.556 98.4819 661.991 98.279ZM667.578 97.0329L664.366 90.145L665.671 89.5364L668.883 96.4244L667.578 97.0329ZM667.051 92.4946L666.456 92.507C666.046 91.6273 665.922 90.8317 666.085 90.1204C666.247 89.409 666.71 88.8753 667.474 88.5191C667.822 88.3568 668.166 88.2732 668.505 88.2681C668.839 88.2534 669.192 88.3299 669.565 88.4975L669.122 89.781C668.905 89.694 668.693 89.6572 668.488 89.6706C668.282 89.6841 668.063 89.7449 667.831 89.8531C667.348 90.0785 667.024 90.418 666.859 90.8716C666.694 91.3252 666.758 91.8662 667.051 92.4946ZM674.443 93.8319L669.885 84.0583L671.19 83.4497L675.748 93.2233L674.443 93.8319ZM670.089 88.9242L669.534 87.7351L674.232 85.5443L674.787 86.7333L670.089 88.9242ZM683.595 89.5641L681.722 85.5473C681.479 85.0253 681.114 84.6717 680.627 84.4866C680.141 84.3015 679.636 84.3307 679.114 84.5741C678.766 84.7364 678.493 84.958 678.295 85.2389C678.096 85.5198 677.982 85.8317 677.954 86.1745C677.926 86.5173 677.992 86.8627 678.155 87.2107L677.476 87.1564C677.233 86.6344 677.132 86.1162 677.175 85.602C677.218 85.0878 677.393 84.6178 677.7 84.1919C678.003 83.7564 678.416 83.4169 678.938 83.1735C679.46 82.9301 679.973 82.8319 680.478 82.8791C680.992 82.9218 681.462 83.0969 681.888 83.4044C682.314 83.7119 682.653 84.1363 682.905 84.6777L684.9 88.9555L683.595 89.5641ZM678.723 91.836L673.895 81.4824L675.2 80.8738L680.028 91.2275L678.723 91.836ZM687.88 87.7424C687.61 87.8686 687.34 87.8827 687.07 87.7846C686.806 87.6724 686.613 87.4858 686.491 87.2248C686.365 86.9541 686.349 86.6912 686.441 86.4361C686.539 86.1667 686.724 85.969 686.994 85.8427C687.265 85.7165 687.53 85.7047 687.79 85.8072C688.055 85.8956 688.25 86.0751 688.377 86.3458C688.498 86.6068 688.512 86.8768 688.419 87.1558C688.33 87.4206 688.151 87.6161 687.88 87.7424ZM692.086 85.7811C691.815 85.9074 691.545 85.9215 691.276 85.8234C691.012 85.7112 690.819 85.5246 690.697 85.2636C690.571 84.9929 690.554 84.73 690.647 84.4748C690.745 84.2055 690.93 84.0077 691.2 83.8815C691.471 83.7553 691.736 83.7435 691.996 83.846C692.261 83.9343 692.456 84.1139 692.582 84.3846C692.704 84.6456 692.718 84.9156 692.625 85.1946C692.536 85.4594 692.357 85.6549 692.086 85.7811ZM696.292 83.8199C696.021 83.9461 695.751 83.9602 695.482 83.8622C695.218 83.75 695.025 83.5634 694.903 83.3024C694.777 83.0317 694.76 82.7688 694.853 82.5136C694.951 82.2443 695.135 82.0465 695.406 81.9203C695.677 81.7941 695.942 81.7822 696.202 81.8848C696.466 81.9731 696.662 82.1527 696.788 82.4233C696.91 82.6844 696.924 82.9544 696.83 83.2334C696.742 83.4982 696.563 83.6937 696.292 83.8199Z" fill="#8A66BD"/>
<path d="M589.565 177.786L584.873 167.722L585.83 167.276L593.359 172.292L592.706 172.596L593.704 163.604L594.661 163.158L599.353 173.222L597.99 173.857L594.413 166.186L594.773 166.125L593.985 173.218L593.028 173.664L587.087 169.708L587.351 169.479L590.928 177.15L589.565 177.786ZM604.712 170.899C604.035 171.215 603.352 171.339 602.662 171.273C601.972 171.206 601.341 170.977 600.769 170.584C600.193 170.182 599.748 169.642 599.432 168.966C599.121 168.299 599.001 167.625 599.072 166.944C599.139 166.254 599.368 165.623 599.761 165.052C600.153 164.481 600.688 164.037 601.365 163.721C602.032 163.41 602.71 163.288 603.401 163.355C604.096 163.407 604.729 163.63 605.301 164.022C605.872 164.415 606.313 164.945 606.624 165.612C606.94 166.288 607.067 166.977 607.005 167.677C606.938 168.367 606.704 169 606.301 169.576C605.909 170.147 605.379 170.588 604.712 170.899ZM604.124 169.638C604.559 169.435 604.898 169.153 605.142 168.792C605.385 168.432 605.523 168.032 605.554 167.594C605.58 167.146 605.488 166.695 605.276 166.241C605.068 165.796 604.782 165.447 604.417 165.194C604.061 164.936 603.669 164.789 603.241 164.753C602.817 164.704 602.388 164.78 601.953 164.983C601.518 165.186 601.179 165.468 600.935 165.829C600.687 166.18 600.547 166.574 600.516 167.013C600.485 167.451 600.573 167.892 600.781 168.337C600.992 168.791 601.278 169.152 601.639 169.42C601.994 169.678 602.389 169.829 602.822 169.874C603.255 169.92 603.689 169.841 604.124 169.638ZM609.711 168.392L606.499 161.504L607.804 160.895L611.016 167.783L609.711 168.392ZM609.184 163.853L608.589 163.866C608.179 162.986 608.055 162.191 608.218 161.479C608.38 160.768 608.843 160.234 609.607 159.878C609.955 159.716 610.299 159.632 610.638 159.627C610.972 159.612 611.326 159.689 611.698 159.856L611.255 161.14C611.038 161.053 610.826 161.016 610.621 161.03C610.415 161.043 610.196 161.104 609.964 161.212C609.481 161.437 609.157 161.777 608.992 162.231C608.827 162.684 608.891 163.225 609.184 163.853ZM618.562 164.441C617.876 164.761 617.185 164.895 616.49 164.842C615.79 164.78 615.155 164.553 614.583 164.16C614.012 163.768 613.566 163.228 613.246 162.542C612.93 161.865 612.801 161.184 612.858 160.498C612.924 159.808 613.151 159.185 613.539 158.627C613.931 158.056 614.461 157.615 615.128 157.303C615.766 157.006 616.395 156.889 617.013 156.954C617.642 157.014 618.21 157.237 618.72 157.623C619.239 158.005 619.65 158.52 619.952 159.168C619.997 159.264 620.042 159.373 620.086 159.493C620.126 159.604 620.165 159.739 620.204 159.897L614.389 162.609L613.882 161.521L619.001 159.134L618.718 159.778C618.502 159.314 618.237 158.961 617.924 158.718C617.607 158.466 617.257 158.323 616.877 158.289C616.491 158.245 616.086 158.322 615.661 158.521C615.216 158.728 614.869 159.007 614.621 159.358C614.373 159.709 614.238 160.102 614.217 160.535C614.195 160.969 614.295 161.423 614.516 161.897C614.741 162.38 615.036 162.76 615.401 163.037C615.761 163.305 616.168 163.457 616.62 163.493C617.068 163.52 617.524 163.425 617.988 163.208C618.374 163.028 618.696 162.796 618.952 162.512C619.217 162.223 619.403 161.889 619.509 161.51L620.749 161.974C620.6 162.514 620.332 162.998 619.943 163.426C619.564 163.85 619.104 164.188 618.562 164.441ZM628.067 159.832L622.129 154.215L623.493 153.58L627.967 158.025L627.532 158.228L626.987 151.95L627.741 151.598L632.201 156.051L631.766 156.254L631.236 149.969L632.599 149.333L633.099 157.486L632.331 157.844L627.917 153.565L628.395 153.341L628.822 159.48L628.067 159.832ZM639.77 154.552C639.141 154.845 638.499 154.956 637.842 154.886C637.181 154.806 636.574 154.565 636.022 154.163C635.48 153.757 635.051 153.216 634.735 152.539C634.42 151.862 634.281 151.185 634.318 150.509C634.365 149.828 634.566 149.21 634.92 148.657C635.284 148.099 635.784 147.671 636.422 147.374C636.945 147.13 637.46 147.025 637.97 147.058C638.485 147.077 638.958 147.221 639.39 147.491C639.817 147.751 640.162 148.125 640.426 148.614L641.393 150.688C641.594 151.194 641.659 151.7 641.588 152.203C641.526 152.703 641.339 153.161 641.027 153.577C640.721 153.979 640.301 154.304 639.77 154.552ZM639.412 153.218C640.06 152.916 640.481 152.455 640.674 151.835C640.863 151.205 640.798 150.547 640.478 149.861C640.257 149.387 639.973 149.019 639.627 148.757C639.286 148.48 638.907 148.322 638.488 148.282C638.064 148.232 637.635 148.309 637.2 148.512C636.765 148.715 636.426 148.996 636.182 149.357C635.948 149.713 635.818 150.116 635.791 150.563C635.77 150.997 635.865 151.441 636.077 151.895C636.293 152.359 636.577 152.728 636.927 153C637.283 153.257 637.677 153.409 638.11 153.454C638.543 153.499 638.977 153.421 639.412 153.218ZM641.993 153.338L641.128 151.482L640.59 149.685L639.566 148.133L638.781 146.45L640.101 145.835L643.313 152.723L641.993 153.338ZM645.227 151.83L642.015 144.942L643.32 144.334L646.532 151.222L645.227 151.83ZM642.026 143.26C641.784 143.373 641.55 143.388 641.323 143.306C641.092 143.213 640.92 143.047 640.807 142.805C640.699 142.573 640.686 142.343 640.768 142.117C640.846 141.88 641.006 141.706 641.248 141.593C641.49 141.48 641.726 141.47 641.957 141.562C642.184 141.645 642.352 141.802 642.46 142.034C642.573 142.276 642.59 142.515 642.512 142.751C642.429 142.978 642.267 143.148 642.026 143.26ZM649.514 149.831L644.957 140.058L646.262 139.449L650.819 149.223L649.514 149.831ZM645.16 144.924L644.606 143.734L649.304 141.544L649.859 142.733L645.16 144.924ZM653.809 147.829L650.597 140.941L651.902 140.332L655.114 147.22L653.809 147.829ZM650.607 139.259C650.365 139.372 650.131 139.387 649.904 139.304C649.673 139.212 649.501 139.045 649.388 138.803C649.28 138.571 649.267 138.342 649.35 138.115C649.428 137.878 649.588 137.704 649.83 137.591C650.071 137.479 650.308 137.468 650.539 137.56C650.766 137.643 650.933 137.8 651.042 138.032C651.154 138.274 651.172 138.513 651.094 138.75C651.011 138.976 650.849 139.146 650.607 139.259ZM661.91 144.051L660.037 140.034C659.793 139.512 659.428 139.159 658.942 138.974C658.455 138.789 657.951 138.818 657.429 139.061C657.081 139.224 656.808 139.445 656.609 139.726C656.411 140.007 656.297 140.319 656.269 140.662C656.24 141.004 656.307 141.35 656.469 141.698L655.791 141.644C655.547 141.122 655.447 140.603 655.49 140.089C655.532 139.575 655.707 139.105 656.015 138.679C656.318 138.244 656.73 137.904 657.252 137.661C657.775 137.417 658.295 137.334 658.813 137.41C659.34 137.481 659.819 137.676 660.25 137.993C660.676 138.301 660.999 138.691 661.22 139.165L663.215 143.443L661.91 144.051ZM657.037 146.323L653.825 139.435L655.13 138.827L658.342 145.715L657.037 146.323ZM669.252 144.317C668.546 144.646 667.857 144.809 667.184 144.805C666.521 144.796 665.914 144.632 665.365 144.311L665.807 143.064C666.254 143.291 666.714 143.406 667.186 143.409C667.663 143.422 668.167 143.305 668.699 143.057C669.405 142.728 669.873 142.28 670.103 141.714C670.347 141.152 670.323 140.558 670.03 139.929L669.232 138.218L668.741 136.558L667.792 135.129L666.947 133.317L668.252 132.708L671.335 139.321C671.642 139.978 671.755 140.625 671.676 141.263C671.606 141.895 671.361 142.48 670.941 143.018C670.53 143.551 669.967 143.984 669.252 144.317ZM667.784 141.171C667.156 141.464 666.52 141.577 665.878 141.512C665.245 141.442 664.662 141.214 664.129 140.827C663.591 140.431 663.168 139.904 662.862 139.247C662.555 138.589 662.428 137.937 662.479 137.289C662.525 136.632 662.725 136.038 663.079 135.509C663.437 134.965 663.93 134.547 664.559 134.254C665.1 134.001 665.628 133.884 666.143 133.903C666.658 133.922 667.126 134.068 667.548 134.342C667.976 134.602 668.318 134.984 668.577 135.487L669.429 137.314C669.634 137.831 669.701 138.341 669.63 138.845C669.564 139.334 669.373 139.782 669.057 140.189C668.74 140.595 668.316 140.923 667.784 141.171ZM667.47 139.816C667.896 139.618 668.225 139.353 668.459 139.02C668.702 138.683 668.833 138.31 668.854 137.9C668.87 137.48 668.775 137.048 668.568 136.604C668.36 136.159 668.088 135.815 667.751 135.572C667.419 135.315 667.051 135.169 666.646 135.134C666.237 135.089 665.815 135.168 665.38 135.371C664.945 135.574 664.608 135.849 664.37 136.195C664.127 136.532 663.987 136.915 663.952 137.344C663.921 137.758 664.008 138.183 664.211 138.618C664.413 139.053 664.686 139.397 665.027 139.649C665.378 139.898 665.763 140.042 666.182 140.082C666.606 140.108 667.035 140.019 667.47 139.816ZM674.592 138.314C674.322 138.44 674.052 138.454 673.782 138.356C673.518 138.244 673.325 138.057 673.203 137.796C673.077 137.525 673.061 137.263 673.153 137.007C673.251 136.738 673.436 136.54 673.707 136.414C673.977 136.288 674.242 136.276 674.502 136.379C674.767 136.467 674.962 136.646 675.089 136.917C675.21 137.178 675.224 137.448 675.131 137.727C675.043 137.992 674.863 138.187 674.592 138.314ZM678.798 136.352C678.527 136.479 678.257 136.493 677.988 136.395C677.724 136.283 677.531 136.096 677.409 135.835C677.283 135.564 677.266 135.301 677.359 135.046C677.457 134.777 677.642 134.579 677.912 134.453C678.183 134.327 678.448 134.315 678.708 134.417C678.973 134.506 679.168 134.685 679.294 134.956C679.416 135.217 679.43 135.487 679.337 135.766C679.248 136.031 679.069 136.226 678.798 136.352ZM683.004 134.391C682.733 134.517 682.463 134.532 682.194 134.434C681.93 134.321 681.737 134.135 681.615 133.874C681.489 133.603 681.472 133.34 681.565 133.085C681.663 132.816 681.848 132.618 682.118 132.492C682.389 132.365 682.654 132.354 682.914 132.456C683.179 132.544 683.374 132.724 683.5 132.995C683.622 133.256 683.636 133.526 683.543 133.805C683.454 134.07 683.275 134.265 683.004 134.391Z" fill="#8A66BD"/>
<path d="M642.826 196.47L642.251 184.486L643.237 184.026L652.034 192.176L650.555 192.866L643.207 185.929L643.714 185.693L644.276 195.794L642.826 196.47ZM643.722 193.281L643.167 192.091L648.46 189.623L649.015 190.812L643.722 193.281ZM657.123 189.98C656.601 190.223 656.078 190.338 655.553 190.323C655.034 190.295 654.558 190.146 654.127 189.876C653.695 189.607 653.35 189.232 653.091 188.753L652.124 186.679C651.918 186.163 651.853 185.658 651.929 185.163C652.01 184.655 652.208 184.198 652.525 183.791C652.846 183.37 653.263 183.041 653.776 182.802C654.404 182.509 655.044 182.404 655.696 182.489C656.357 182.569 656.958 182.812 657.501 183.218C658.043 183.625 658.472 184.166 658.788 184.843C659.104 185.519 659.243 186.196 659.205 186.873C659.167 187.549 658.967 188.167 658.603 188.724C658.245 189.268 657.751 189.687 657.123 189.98ZM654.776 194.411L650.218 184.637L651.523 184.029L652.369 185.841L652.9 187.624L653.931 189.191L656.081 193.802L654.776 194.411ZM656.331 188.848C656.766 188.646 657.1 188.366 657.334 188.01C657.568 187.654 657.701 187.256 657.732 186.818C657.758 186.37 657.663 185.914 657.447 185.45C657.235 184.996 656.949 184.635 656.589 184.367C656.229 184.1 655.839 183.946 655.421 183.906C654.997 183.856 654.573 183.931 654.148 184.129C653.713 184.332 653.378 184.611 653.144 184.968C652.905 185.314 652.778 185.709 652.761 186.153C652.744 186.596 652.844 187.05 653.06 187.514C653.272 187.968 653.548 188.333 653.889 188.61C654.235 188.872 654.62 189.028 655.043 189.078C655.476 189.123 655.905 189.047 656.331 188.848ZM665.563 186.044C665.041 186.287 664.518 186.402 663.993 186.388C663.474 186.359 662.998 186.21 662.567 185.941C662.135 185.671 661.79 185.297 661.531 184.817L660.564 182.744C660.358 182.227 660.293 181.722 660.369 181.228C660.45 180.719 660.648 180.262 660.965 179.855C661.286 179.435 661.703 179.105 662.216 178.866C662.844 178.573 663.484 178.469 664.136 178.553C664.797 178.634 665.398 178.877 665.941 179.283C666.483 179.689 666.912 180.23 667.228 180.907C667.544 181.584 667.683 182.26 667.645 182.937C667.607 183.614 667.407 184.231 667.043 184.789C666.685 185.333 666.191 185.751 665.563 186.044ZM663.216 190.475L658.658 180.702L659.963 180.093L660.809 181.906L661.34 183.688L662.37 185.255L664.521 189.867L663.216 190.475ZM664.771 184.913C665.206 184.71 665.54 184.43 665.774 184.074C666.008 183.718 666.141 183.321 666.172 182.882C666.198 182.435 666.103 181.979 665.887 181.515C665.675 181.06 665.389 180.699 665.029 180.432C664.669 180.164 664.279 180.01 663.861 179.97C663.437 179.921 663.013 179.995 662.588 180.193C662.153 180.396 661.818 180.676 661.584 181.032C661.345 181.379 661.218 181.774 661.201 182.217C661.184 182.66 661.284 183.114 661.5 183.578C661.712 184.032 661.988 184.398 662.329 184.674C662.675 184.937 663.06 185.093 663.483 185.143C663.916 185.188 664.345 185.111 664.771 184.913ZM670.31 183.654L667.098 176.766L668.403 176.157L671.615 183.045L670.31 183.654ZM669.783 179.116L669.188 179.128C668.778 178.248 668.654 177.453 668.817 176.741C668.979 176.03 669.443 175.496 670.206 175.14C670.554 174.978 670.898 174.894 671.237 174.889C671.571 174.874 671.925 174.951 672.297 175.118L671.854 176.402C671.637 176.315 671.425 176.278 671.22 176.292C671.014 176.305 670.796 176.366 670.564 176.474C670.08 176.699 669.756 177.039 669.591 177.493C669.426 177.946 669.49 178.487 669.783 179.116ZM679.118 179.723C678.441 180.039 677.758 180.163 677.068 180.097C676.378 180.03 675.747 179.8 675.175 179.408C674.599 179.006 674.154 178.466 673.838 177.789C673.527 177.122 673.407 176.449 673.478 175.768C673.545 175.078 673.774 174.447 674.167 173.876C674.56 173.304 675.094 172.861 675.771 172.545C676.438 172.234 677.117 172.112 677.807 172.179C678.502 172.231 679.135 172.453 679.707 172.846C680.278 173.239 680.719 173.768 681.031 174.435C681.346 175.112 681.473 175.8 681.411 176.5C681.344 177.19 681.11 177.823 680.707 178.399C680.315 178.971 679.785 179.412 679.118 179.723ZM678.53 178.462C678.965 178.259 679.304 177.977 679.548 177.616C679.791 177.255 679.929 176.856 679.96 176.418C679.986 175.97 679.894 175.519 679.682 175.064C679.475 174.62 679.188 174.271 678.823 174.017C678.467 173.759 678.075 173.613 677.647 173.577C677.223 173.527 676.794 173.604 676.359 173.807C675.924 174.01 675.585 174.291 675.341 174.652C675.093 175.003 674.953 175.398 674.922 175.836C674.891 176.274 674.979 176.716 675.187 177.161C675.399 177.615 675.685 177.976 676.045 178.243C676.4 178.501 676.795 178.653 677.228 178.698C677.661 178.743 678.095 178.664 678.53 178.462ZM686.226 176.232L679.853 170.818L681.303 170.142L686.552 174.774L685.711 175.166L685.552 168.161L686.944 167.512L686.994 175.874L686.226 176.232ZM694.01 172.779C693.382 173.072 692.739 173.183 692.083 173.113C691.422 173.033 690.815 172.792 690.263 172.39C689.721 171.984 689.292 171.443 688.976 170.766C688.66 170.089 688.521 169.412 688.559 168.736C688.606 168.055 688.807 167.437 689.161 166.884C689.524 166.326 690.025 165.898 690.663 165.601C691.185 165.357 691.701 165.252 692.211 165.285C692.726 165.304 693.199 165.448 693.631 165.718C694.058 165.977 694.403 166.352 694.666 166.841L695.633 168.915C695.834 169.421 695.899 169.927 695.828 170.43C695.767 170.93 695.58 171.388 695.268 171.804C694.961 172.206 694.542 172.531 694.01 172.779ZM693.653 171.445C694.301 171.143 694.721 170.682 694.915 170.062C695.104 169.432 695.038 168.774 694.718 168.088C694.497 167.614 694.214 167.246 693.868 166.984C693.527 166.707 693.147 166.549 692.729 166.509C692.305 166.459 691.876 166.536 691.441 166.739C691.006 166.942 690.667 167.223 690.423 167.584C690.189 167.94 690.059 168.343 690.032 168.79C690.011 169.224 690.106 169.668 690.318 170.122C690.534 170.586 690.818 170.954 691.168 171.227C691.524 171.484 691.918 171.636 692.351 171.681C692.784 171.726 693.218 171.648 693.653 171.445ZM696.234 171.565L695.368 169.709L694.83 167.912L693.806 166.36L693.022 164.677L694.342 164.062L697.553 170.95L696.234 171.565ZM699.454 170.064L694.626 159.71L695.931 159.102L700.759 169.455L699.454 170.064Z" fill="#8A66BD"/>
<path d="M1 72.0686L688.65 322.353" stroke="#52338C" stroke-linecap="round"/>
<path d="M688.65 322.353L794.392 360.839" stroke="#52338C" stroke-linecap="round" stroke-dasharray="3 3"/>
<path d="M64.4217 94.3984L152.723 53.223C155.135 52.098 157.897 51.9814 160.396 52.8989L340.424 119" stroke="#9A7BC6" stroke-width="2"/>
<path d="M668.611 314.305L627.429 225.989C626.308 223.586 624.278 221.726 621.786 220.819L609.92 216.5" stroke="#9A7BC6" stroke-width="2"/>
<circle cx="179.768" cy="59.9376" r="3.89246" transform="rotate(20 179.768 59.9376)" fill="#9A7BC6"/>
<circle cx="232.307" cy="79.0599" r="3.89246" transform="rotate(20 232.307 79.0599)" fill="#9A7BC6"/>
<circle cx="284.844" cy="98.1823" r="3.89246" transform="rotate(20 284.844 98.1823)" fill="#9A7BC6"/>
<path d="M449.924 151L478.924 137" stroke="#52338C" stroke-linecap="round" stroke-dasharray="2 2"/>
<path d="M401.924 132L430.924 118" stroke="#52338C" stroke-linecap="round" stroke-dasharray="2 2"/>
<path d="M501.924 170L530.924 156" stroke="#52338C" stroke-linecap="round" stroke-dasharray="2 2"/>
<path d="M554.924 189L583.924 175" stroke="#52338C" stroke-linecap="round" stroke-dasharray="2 2"/>
<path d="M606.924 208L635.924 194" stroke="#52338C" stroke-linecap="round" stroke-dasharray="2 2"/>
<path d="M186.924 55L215.924 41" stroke="#52338C" stroke-linecap="round" stroke-dasharray="2 2"/>
<path d="M238.924 74L267.924 60" stroke="#52338C" stroke-linecap="round" stroke-dasharray="2 2"/>
<path d="M291.924 94L320.924 80" stroke="#52338C" stroke-linecap="round" stroke-dasharray="2 2"/>
<path d="M335.924 117L364.924 103" stroke="#52338C" stroke-linecap="round" stroke-dasharray="2 2"/>
<circle cx="63.9238" cy="95" r="12" fill="#BEA9DA"/>
<circle cx="668.924" cy="314" r="12" fill="#BEA9DA"/>
<path fill-rule="evenodd" clip-rule="evenodd" d="M60.5911 89V96.4177C61.5168 96.6567 62.249 97.3814 62.4987 98.3027C64.9817 98.0356 66.9601 96.0573 67.2271 93.5743C66.0937 93.267 65.2578 92.2295 65.2578 91C65.2578 89.5294 66.4538 88.3334 67.9245 88.3334C69.3951 88.3334 70.5911 89.5294 70.5911 91C70.5911 92.2498 69.7274 93.3013 68.5654 93.5889C68.2834 96.7961 65.7205 99.3589 62.5133 99.6409C62.2257 100.803 61.1743 101.667 59.9245 101.667C58.4538 101.667 57.2578 100.471 57.2578 99C57.2578 97.7595 58.1088 96.7144 59.2578 96.4177V89C59.2578 88.632 59.5565 88.3334 59.9245 88.3334C60.2925 88.3334 60.5911 88.632 60.5911 89ZM67.9245 92.3334C68.6598 92.3334 69.2578 91.7354 69.2578 91C69.2578 90.2647 68.6598 89.6667 67.9245 89.6667C67.1891 89.6667 66.5911 90.2647 66.5911 91C66.5911 91.7354 67.1891 92.3334 67.9245 92.3334ZM61.2578 99C61.2578 98.2647 60.6598 97.6667 59.9245 97.6667C59.1891 97.6667 58.5911 98.2647 58.5911 99C58.5911 99.7354 59.1891 100.333 59.9245 100.333C60.6598 100.333 61.2578 99.7354 61.2578 99Z" fill="#52338C"/>
<path fill-rule="evenodd" clip-rule="evenodd" d="M664.258 312.582C663.109 312.286 662.258 311.241 662.258 310C662.258 308.529 663.454 307.333 664.924 307.333C666.395 307.333 667.591 308.529 667.591 310C667.591 311.23 666.755 312.267 665.622 312.574C665.889 315.057 667.867 317.036 670.35 317.303C670.658 316.169 671.695 315.333 672.924 315.333C674.395 315.333 675.591 316.529 675.591 318C675.591 319.471 674.395 320.667 672.924 320.667C671.675 320.667 670.623 319.803 670.336 318.641C668.399 318.471 666.698 317.469 665.591 315.996V320C665.591 320.369 665.292 320.667 664.924 320.667C664.556 320.667 664.258 320.369 664.258 320V312.582ZM671.591 318C671.591 318.735 672.189 319.333 672.924 319.333C673.66 319.333 674.258 318.735 674.258 318C674.258 317.265 673.66 316.667 672.924 316.667C672.189 316.667 671.591 317.265 671.591 318ZM664.924 311.333C665.66 311.333 666.258 310.735 666.258 310C666.258 309.265 665.66 308.667 664.924 308.667C664.189 308.667 663.591 309.265 663.591 310C663.591 310.735 664.189 311.333 664.924 311.333Z" fill="#52338C"/>
<path d="M324.924 114.517C373.435 130.188 373.924 98.5 386.924 130.5C396.349 153.701 363.924 128.964 363.924 139.982C363.924 151 379.335 151.735 411.457 139.982C443.579 128.229 467.179 72.8089 435.713 100.806C404.246 128.803 374.746 193.524 402.279 179.812C429.813 166.1 469.146 136.718 449.479 136.718C429.813 136.718 398.346 151.735 402.279 161.529C406.213 171.323 417.357 177.2 433.746 177.2C450.135 177.2 487.502 158.264 474.39 149.123C461.279 139.982 406.868 136.717 447.513 164.141C488.157 191.565 509.79 187.647 499.302 164.141C488.813 140.635 476.357 126.923 484.224 158.264C492.09 189.606 517.657 252.941 532.079 215.07C546.502 177.2 529.642 158.264 516.346 158.264C503.05 158.264 505.202 211.806 516.346 200.053C527.49 188.3 556.335 153.694 559.613 181.77C562.89 209.847 540.602 247.065 570.102 223.559C590.424 207.366 589.602 209.318 609.924 216.5" stroke="url(#paint0_linear_416_437)" stroke-width="2"/>
<circle cx="335.59" cy="117.667" r="12" fill="white"/>
<path fill-rule="evenodd" clip-rule="evenodd" d="M332.257 116.249C333.406 115.952 334.257 114.907 334.257 113.667C334.257 112.196 333.061 111 331.59 111C330.12 111 328.924 112.196 328.924 113.667C328.924 114.907 329.775 115.952 330.924 116.249V123.667C330.924 124.035 331.222 124.333 331.59 124.333C331.958 124.333 332.257 124.035 332.257 123.667V116.249ZM331.59 115C330.855 115 330.257 114.402 330.257 113.667C330.257 112.931 330.855 112.333 331.59 112.333C332.326 112.333 332.924 112.931 332.924 113.667C332.924 114.402 332.326 115 331.59 115Z" fill="#52338C"/>
<path fill-rule="evenodd" clip-rule="evenodd" d="M336.924 121.667C336.924 123.137 338.12 124.333 339.59 124.333C341.061 124.333 342.257 123.137 342.257 121.667C342.257 120.426 341.406 119.381 340.257 119.084V115C340.257 113.897 339.36 113 338.257 113H336.257C335.889 113 335.59 113.299 335.59 113.667C335.59 114.035 335.889 114.333 336.257 114.333H338.257C338.625 114.333 338.924 114.633 338.924 115V119.084C337.775 119.381 336.924 120.426 336.924 121.667ZM338.257 121.667C338.257 120.931 338.855 120.333 339.59 120.333C340.326 120.333 340.924 120.931 340.924 121.667C340.924 122.402 340.326 123 339.59 123C338.855 123 338.257 122.402 338.257 121.667Z" fill="#52338C"/>
<defs>
<linearGradient id="paint0_linear_416_437" x1="348.424" y1="122" x2="585.424" y2="213" gradientUnits="userSpaceOnUse">
<stop stop-color="#9A7BC6"/>
<stop offset="0.22" stop-color="#FFBF00"/>
<stop offset="0.425" stop-color="#E64412"/>
<stop offset="0.665" stop-color="#E71F62"/>
<stop offset="0.816036" stop-color="#266BBA"/>
<stop offset="0.925" stop-color="#9A7BC6"/>
</linearGradient>
</defs>
</svg>
